<?xml version="1.0" encoding="utf-8" standalone="no"?>
<!DOCTYPE svg PUBLIC "-//W3C//DTD SVG 1.1//EN"
  "http://www.w3.org/Graphics/SVG/1.1/DTD/svg11.dtd">
<svg xmlns:xlink="http://www.w3.org/1999/xlink" width="553.95625pt" height="266.545677pt" viewBox="0 0 553.95625 266.545677" xmlns="http://www.w3.org/2000/svg" version="1.1">
 <metadata>
  <rdf:RDF xmlns:dc="http://purl.org/dc/elements/1.1/" xmlns:cc="http://creativecommons.org/ns#" xmlns:rdf="http://www.w3.org/1999/02/22-rdf-syntax-ns#">
   <cc:Work>
    <dc:type rdf:resource="http://purl.org/dc/dcmitype/StillImage"/>
    <dc:date>2025-09-07T16:40:35.037768</dc:date>
    <dc:format>image/svg+xml</dc:format>
    <dc:creator>
     <cc:Agent>
      <dc:title>Matplotlib v3.10.0, https://matplotlib.org/</dc:title>
     </cc:Agent>
    </dc:creator>
   </cc:Work>
  </rdf:RDF>
 </metadata>
 <defs>
  <style type="text/css">*{stroke-linejoin: round; stroke-linecap: butt}</style>
 </defs>
 <g id="figure_1">
  <g id="patch_1">
   <path d="M 0 266.545677 
L 553.95625 266.545677 
L 553.95625 0 
L 0 0 
z
" style="fill: #ffffff"/>
  </g>
  <g id="axes_1">
   <g id="patch_2">
    <path d="M 53.39625 222.356614 
L 546.75625 222.356614 
L 546.75625 8.641538 
L 53.39625 8.641538 
z
" style="fill: #ffffff"/>
   </g>
   <g id="patch_3">
    <path d="M 75.821705 222.356614 
L 97.939961 222.356614 
L 97.939961 72.262997 
L 75.821705 72.262997 
z
" clip-path="url(#p794e8ae096)" style="fill: #ff7f0e; opacity: 0.9"/>
   </g>
   <g id="patch_4">
    <path d="M 124.973386 222.356614 
L 147.091642 222.356614 
L 147.091642 89.75054 
L 124.973386 89.75054 
z
" clip-path="url(#p794e8ae096)" style="fill: #17becf; opacity: 0.9"/>
   </g>
   <g id="patch_5">
    <path d="M 190.099363 222.356614 
L 212.21762 222.356614 
L 212.21762 51.10828 
L 190.099363 51.10828 
z
" clip-path="url(#p794e8ae096)" style="fill: #ff7f0e; opacity: 0.9"/>
   </g>
   <g id="patch_6">
    <path d="M 312.978566 222.356614 
L 335.096823 222.356614 
L 335.096823 40.534261 
L 312.978566 40.534261 
z
" clip-path="url(#p794e8ae096)" style="fill: #ff7f0e; opacity: 0.9"/>
   </g>
   <g id="patch_7">
    <path d="M 435.857769 222.356614 
L 457.976026 222.356614 
L 457.976026 18.818447 
L 435.857769 18.818447 
z
" clip-path="url(#p794e8ae096)" style="fill: #ff7f0e; opacity: 0.9"/>
   </g>
   <g id="patch_8">
    <path d="M 212.21762 222.356614 
L 234.335876 222.356614 
L 234.335876 94.646784 
L 212.21762 94.646784 
z
" clip-path="url(#p794e8ae096)" style="fill: url(#hc7191b6332); opacity: 0.9"/>
   </g>
   <g id="patch_9">
    <path d="M 335.096823 222.356614 
L 357.215079 222.356614 
L 357.215079 105.821979 
L 335.096823 105.821979 
z
" clip-path="url(#p794e8ae096)" style="fill: url(#hc7191b6332); opacity: 0.9"/>
   </g>
   <g id="patch_10">
    <path d="M 457.976026 222.356614 
L 480.094282 222.356614 
L 480.094282 114.051411 
L 457.976026 114.051411 
z
" clip-path="url(#p794e8ae096)" style="fill: url(#hc7191b6332); opacity: 0.9"/>
   </g>
   <g id="patch_11">
    <path d="M 234.335876 222.356614 
L 256.454133 222.356614 
L 256.454133 87.826776 
L 234.335876 87.826776 
z
" clip-path="url(#p794e8ae096)" style="fill: #17becf; opacity: 0.9"/>
   </g>
   <g id="patch_12">
    <path d="M 357.215079 222.356614 
L 379.333336 222.356614 
L 379.333336 87.005169 
L 357.215079 87.005169 
z
" clip-path="url(#p794e8ae096)" style="fill: #17becf; opacity: 0.9"/>
   </g>
   <g id="patch_13">
    <path d="M 480.094282 222.356614 
L 502.212539 222.356614 
L 502.212539 85.508909 
L 480.094282 85.508909 
z
" clip-path="url(#p794e8ae096)" style="fill: #17becf; opacity: 0.9"/>
   </g>
   <g id="patch_14">
    <path d="M 256.454133 222.356614 
L 278.572389 222.356614 
L 278.572389 90.632264 
L 256.454133 90.632264 
z
" clip-path="url(#p794e8ae096)" style="fill: url(#h2af2f53627); opacity: 0.9"/>
   </g>
   <g id="patch_15">
    <path d="M 379.333336 222.356614 
L 401.451592 222.356614 
L 401.451592 91.353676 
L 379.333336 91.353676 
z
" clip-path="url(#p794e8ae096)" style="fill: url(#h2af2f53627); opacity: 0.9"/>
   </g>
   <g id="patch_16">
    <path d="M 502.212539 222.356614 
L 524.330795 222.356614 
L 524.330795 91.600826 
L 502.212539 91.600826 
z
" clip-path="url(#p794e8ae096)" style="fill: url(#h2af2f53627); opacity: 0.9"/>
   </g>
   <g id="matplotlib.axis_1">
    <g id="xtick_1">
     <g id="line2d_1">
      <defs>
       <path id="m38e19719ea" d="M 0 0 
L 0 3.5 
" style="stroke: #000000; stroke-width: 0.8"/>
      </defs>
      <g>
       <use xlink:href="#m38e19719ea" x="111.456673" y="222.356614" style="stroke: #000000; stroke-width: 0.8"/>
      </g>
     </g>
     <g id="text_1">
      <!-- 1.0 -->
      <g transform="translate(102.592923 238.878802) scale(0.14 -0.14)">
       <defs>
        <path id="Calibri-31" d="M 2897 213 
Q 2897 153 2887 112 
Q 2878 72 2862 47 
Q 2847 22 2826 11 
Q 2806 0 2784 0 
L 672 0 
Q 650 0 631 11 
Q 613 22 595 47 
Q 578 72 568 112 
Q 559 153 559 213 
Q 559 269 568 309 
Q 578 350 592 376 
Q 606 403 626 417 
Q 647 431 672 431 
L 1516 431 
L 1516 3506 
L 734 3041 
Q 675 3009 639 3003 
Q 603 2997 581 3017 
Q 559 3038 551 3084 
Q 544 3131 544 3203 
Q 544 3256 548 3293 
Q 553 3331 562 3356 
Q 572 3381 589 3400 
Q 606 3419 634 3438 
L 1566 4034 
Q 1578 4044 1597 4050 
Q 1616 4056 1644 4062 
Q 1672 4069 1709 4070 
Q 1747 4072 1803 4072 
Q 1878 4072 1928 4065 
Q 1978 4059 2006 4048 
Q 2034 4038 2043 4020 
Q 2053 4003 2053 3984 
L 2053 431 
L 2784 431 
Q 2809 431 2831 417 
Q 2853 403 2867 376 
Q 2881 350 2889 309 
Q 2897 269 2897 213 
z
" transform="scale(0.015625)"/>
        <path id="Calibri-2e" d="M 1144 341 
Q 1144 119 1070 45 
Q 997 -28 803 -28 
Q 616 -28 544 44 
Q 472 116 472 331 
Q 472 553 545 626 
Q 619 700 813 700 
Q 1000 700 1072 628 
Q 1144 556 1144 341 
z
" transform="scale(0.015625)"/>
        <path id="Calibri-30" d="M 3022 2031 
Q 3022 1566 2948 1181 
Q 2875 797 2704 520 
Q 2534 244 2259 92 
Q 1984 -59 1581 -59 
Q 1200 -59 939 77 
Q 678 213 518 477 
Q 359 741 292 1127 
Q 225 1513 225 2013 
Q 225 2475 300 2861 
Q 375 3247 544 3523 
Q 713 3800 988 3951 
Q 1263 4103 1663 4103 
Q 2047 4103 2308 3967 
Q 2569 3831 2728 3567 
Q 2888 3303 2955 2917 
Q 3022 2531 3022 2031 
z
M 2472 1994 
Q 2472 2297 2450 2537 
Q 2428 2778 2386 2962 
Q 2344 3147 2276 3280 
Q 2209 3413 2115 3498 
Q 2022 3584 1901 3623 
Q 1781 3663 1631 3663 
Q 1366 3663 1200 3538 
Q 1034 3413 939 3194 
Q 844 2975 809 2681 
Q 775 2388 775 2050 
Q 775 1597 822 1280 
Q 869 963 970 763 
Q 1072 563 1230 472 
Q 1388 381 1613 381 
Q 1788 381 1920 437 
Q 2053 494 2148 598 
Q 2244 703 2306 850 
Q 2369 997 2406 1175 
Q 2444 1353 2458 1561 
Q 2472 1769 2472 1994 
z
" transform="scale(0.015625)"/>
       </defs>
       <use xlink:href="#Calibri-31"/>
       <use xlink:href="#Calibri-2e" transform="translate(50.683594 0)"/>
       <use xlink:href="#Calibri-30" transform="translate(75.927734 0)"/>
      </g>
     </g>
    </g>
    <g id="xtick_2">
     <g id="line2d_2">
      <g>
       <use xlink:href="#m38e19719ea" x="234.335876" y="222.356614" style="stroke: #000000; stroke-width: 0.8"/>
      </g>
     </g>
     <g id="text_2">
      <!-- 0.75 -->
      <g transform="translate(221.924001 238.878802) scale(0.14 -0.14)">
       <defs>
        <path id="Calibri-37" d="M 2947 3813 
Q 2947 3756 2942 3711 
Q 2938 3666 2930 3623 
Q 2922 3581 2908 3542 
Q 2894 3503 2875 3459 
L 1419 103 
Q 1403 66 1379 42 
Q 1356 19 1320 5 
Q 1284 -9 1228 -14 
Q 1172 -19 1091 -19 
Q 984 -19 925 -9 
Q 866 0 839 20 
Q 813 41 816 70 
Q 819 100 838 141 
L 2369 3572 
L 428 3572 
Q 369 3572 339 3634 
Q 309 3697 309 3809 
Q 309 3869 317 3912 
Q 325 3956 340 3986 
Q 356 4016 378 4030 
Q 400 4044 428 4044 
L 2784 4044 
Q 2828 4044 2861 4034 
Q 2894 4025 2911 3997 
Q 2928 3969 2937 3925 
Q 2947 3881 2947 3813 
z
" transform="scale(0.015625)"/>
        <path id="Calibri-35" d="M 2869 1300 
Q 2869 975 2759 722 
Q 2650 469 2450 295 
Q 2250 122 1973 31 
Q 1697 -59 1359 -59 
Q 1172 -59 1003 -32 
Q 834 -6 703 33 
Q 572 72 487 109 
Q 403 147 379 169 
Q 356 191 347 209 
Q 338 228 330 254 
Q 322 281 319 322 
Q 316 363 316 419 
Q 316 472 320 514 
Q 325 556 337 582 
Q 350 609 367 621 
Q 384 634 406 634 
Q 438 634 503 595 
Q 569 556 680 511 
Q 791 466 955 425 
Q 1119 384 1344 384 
Q 1553 384 1728 434 
Q 1903 484 2029 590 
Q 2156 697 2228 858 
Q 2300 1019 2300 1250 
Q 2300 1444 2239 1592 
Q 2178 1741 2051 1839 
Q 1925 1938 1731 1986 
Q 1538 2034 1269 2034 
Q 1078 2034 940 2015 
Q 803 1997 684 1997 
Q 597 1997 559 2037 
Q 522 2078 522 2194 
L 522 3841 
Q 522 3944 570 3994 
Q 619 4044 709 4044 
L 2500 4044 
Q 2525 4044 2548 4030 
Q 2572 4016 2587 3987 
Q 2603 3959 2611 3915 
Q 2619 3872 2619 3813 
Q 2619 3700 2587 3637 
Q 2556 3575 2500 3575 
L 991 3575 
L 991 2441 
Q 1100 2456 1214 2459 
Q 1328 2463 1478 2463 
Q 1825 2463 2084 2380 
Q 2344 2297 2517 2145 
Q 2691 1994 2780 1778 
Q 2869 1563 2869 1300 
z
" transform="scale(0.015625)"/>
       </defs>
       <use xlink:href="#Calibri-30"/>
       <use xlink:href="#Calibri-2e" transform="translate(50.683594 0)"/>
       <use xlink:href="#Calibri-37" transform="translate(75.927734 0)"/>
       <use xlink:href="#Calibri-35" transform="translate(126.611328 0)"/>
      </g>
     </g>
    </g>
    <g id="xtick_3">
     <g id="line2d_3">
      <g>
       <use xlink:href="#m38e19719ea" x="357.215079" y="222.356614" style="stroke: #000000; stroke-width: 0.8"/>
      </g>
     </g>
     <g id="text_3">
      <!-- 0.5 -->
      <g transform="translate(348.351329 238.878802) scale(0.14 -0.14)">
       <use xlink:href="#Calibri-30"/>
       <use xlink:href="#Calibri-2e" transform="translate(50.683594 0)"/>
       <use xlink:href="#Calibri-35" transform="translate(75.927734 0)"/>
      </g>
     </g>
    </g>
    <g id="xtick_4">
     <g id="line2d_4">
      <g>
       <use xlink:href="#m38e19719ea" x="480.094282" y="222.356614" style="stroke: #000000; stroke-width: 0.8"/>
      </g>
     </g>
     <g id="text_4">
      <!-- 0.25 -->
      <g transform="translate(467.682407 238.878802) scale(0.14 -0.14)">
       <defs>
        <path id="Calibri-32" d="M 2888 231 
Q 2888 175 2880 131 
Q 2872 88 2858 58 
Q 2844 28 2820 14 
Q 2797 0 2769 0 
L 534 0 
Q 491 0 458 11 
Q 425 22 401 47 
Q 378 72 367 119 
Q 356 166 356 234 
Q 356 297 361 344 
Q 366 391 381 427 
Q 397 463 420 498 
Q 444 534 481 575 
L 1266 1406 
Q 1538 1694 1702 1922 
Q 1866 2150 1955 2337 
Q 2044 2525 2072 2678 
Q 2100 2831 2100 2966 
Q 2100 3100 2056 3220 
Q 2013 3341 1930 3431 
Q 1847 3522 1722 3575 
Q 1597 3628 1434 3628 
Q 1244 3628 1092 3575 
Q 941 3522 827 3459 
Q 713 3397 636 3344 
Q 559 3291 522 3291 
Q 500 3291 483 3303 
Q 466 3316 455 3344 
Q 444 3372 437 3419 
Q 431 3466 431 3531 
Q 431 3578 434 3612 
Q 438 3647 445 3672 
Q 453 3697 465 3719 
Q 478 3741 515 3773 
Q 553 3806 645 3862 
Q 738 3919 877 3973 
Q 1016 4028 1183 4065 
Q 1350 4103 1534 4103 
Q 1828 4103 2048 4020 
Q 2269 3938 2414 3794 
Q 2559 3650 2631 3459 
Q 2703 3269 2703 3053 
Q 2703 2859 2668 2667 
Q 2634 2475 2523 2251 
Q 2413 2028 2203 1754 
Q 1994 1481 1647 1125 
L 1006 456 
L 2766 456 
Q 2791 456 2814 442 
Q 2838 428 2855 400 
Q 2872 372 2880 330 
Q 2888 288 2888 231 
z
" transform="scale(0.015625)"/>
       </defs>
       <use xlink:href="#Calibri-30"/>
       <use xlink:href="#Calibri-2e" transform="translate(50.683594 0)"/>
       <use xlink:href="#Calibri-32" transform="translate(75.927734 0)"/>
       <use xlink:href="#Calibri-35" transform="translate(126.611328 0)"/>
      </g>
     </g>
    </g>
    <g id="text_5">
     <!-- Weight on expected value (δ) -->
     <g transform="translate(202.41625 256.493177) scale(0.16 -0.16)">
      <defs>
       <path id="Calibri-Bold-57" d="M 4697 209 
Q 4678 134 4645 89 
Q 4613 44 4547 20 
Q 4481 -3 4378 -11 
Q 4275 -19 4116 -19 
Q 3938 -19 3830 -11 
Q 3722 -3 3659 20 
Q 3597 44 3569 89 
Q 3541 134 3525 209 
L 2878 2772 
L 2872 2772 
L 2259 209 
Q 2244 138 2216 92 
Q 2188 47 2127 22 
Q 2066 -3 1961 -11 
Q 1856 -19 1684 -19 
Q 1503 -19 1395 -11 
Q 1288 -3 1225 20 
Q 1163 44 1134 89 
Q 1106 134 1088 209 
L 169 3738 
Q 141 3850 137 3914 
Q 134 3978 173 4012 
Q 213 4047 302 4055 
Q 391 4063 550 4063 
Q 697 4063 783 4058 
Q 869 4053 912 4036 
Q 956 4019 972 3986 
Q 988 3953 997 3894 
L 1706 797 
L 1709 797 
L 2447 3872 
Q 2459 3931 2479 3968 
Q 2500 4006 2548 4026 
Q 2597 4047 2681 4055 
Q 2766 4063 2906 4063 
Q 3056 4063 3145 4056 
Q 3234 4050 3282 4029 
Q 3331 4009 3353 3971 
Q 3375 3934 3388 3872 
L 4150 797 
L 4156 797 
L 4866 3884 
Q 4875 3934 4890 3970 
Q 4906 4006 4950 4026 
Q 4994 4047 5075 4055 
Q 5156 4063 5303 4063 
Q 5441 4063 5517 4055 
Q 5594 4047 5628 4012 
Q 5663 3978 5658 3911 
Q 5653 3844 5625 3728 
L 4697 209 
z
" transform="scale(0.015625)"/>
       <path id="Calibri-Bold-65" d="M 2969 1581 
Q 2969 1438 2905 1369 
Q 2841 1300 2728 1300 
L 1031 1300 
Q 1031 1122 1073 976 
Q 1116 831 1208 729 
Q 1300 628 1445 575 
Q 1591 522 1794 522 
Q 2000 522 2156 551 
Q 2313 581 2427 617 
Q 2541 653 2616 683 
Q 2691 713 2738 713 
Q 2766 713 2784 702 
Q 2803 691 2815 662 
Q 2828 634 2833 582 
Q 2838 531 2838 453 
Q 2838 384 2834 336 
Q 2831 288 2825 253 
Q 2819 219 2806 195 
Q 2794 172 2773 150 
Q 2753 128 2662 90 
Q 2572 53 2431 17 
Q 2291 -19 2109 -45 
Q 1928 -72 1722 -72 
Q 1350 -72 1070 22 
Q 791 116 603 306 
Q 416 497 323 787 
Q 231 1078 231 1469 
Q 231 1841 328 2139 
Q 425 2438 609 2645 
Q 794 2853 1058 2962 
Q 1322 3072 1653 3072 
Q 2003 3072 2251 2969 
Q 2500 2866 2659 2683 
Q 2819 2500 2894 2250 
Q 2969 2000 2969 1706 
L 2969 1581 
z
M 2206 1806 
Q 2216 2138 2073 2327 
Q 1931 2516 1634 2516 
Q 1484 2516 1373 2459 
Q 1263 2403 1189 2308 
Q 1116 2213 1077 2083 
Q 1038 1953 1031 1806 
L 2206 1806 
z
" transform="scale(0.015625)"/>
       <path id="Calibri-Bold-69" d="M 1181 106 
Q 1181 75 1162 51 
Q 1144 28 1098 12 
Q 1053 -3 978 -11 
Q 903 -19 788 -19 
Q 672 -19 597 -11 
Q 522 -3 476 12 
Q 431 28 412 51 
Q 394 75 394 106 
L 394 2888 
Q 394 2919 412 2942 
Q 431 2966 476 2983 
Q 522 3000 597 3009 
Q 672 3019 788 3019 
Q 903 3019 978 3009 
Q 1053 3000 1098 2983 
Q 1144 2966 1162 2942 
Q 1181 2919 1181 2888 
L 1181 106 
z
M 1241 3838 
Q 1241 3600 1144 3509 
Q 1047 3419 784 3419 
Q 519 3419 426 3506 
Q 334 3594 334 3822 
Q 334 4059 429 4151 
Q 525 4244 791 4244 
Q 1053 4244 1147 4155 
Q 1241 4066 1241 3838 
z
" transform="scale(0.015625)"/>
       <path id="Calibri-Bold-67" d="M 2906 2700 
Q 2906 2550 2872 2478 
Q 2838 2406 2788 2406 
L 2459 2406 
Q 2528 2331 2558 2236 
Q 2588 2141 2588 2038 
Q 2588 1794 2506 1605 
Q 2425 1416 2273 1286 
Q 2122 1156 1908 1089 
Q 1694 1022 1431 1022 
Q 1297 1022 1175 1055 
Q 1053 1088 988 1131 
Q 950 1091 920 1034 
Q 891 978 891 909 
Q 891 819 970 761 
Q 1050 703 1194 697 
L 1872 672 
Q 2109 663 2295 605 
Q 2481 547 2607 442 
Q 2734 338 2801 191 
Q 2869 44 2869 -144 
Q 2869 -350 2778 -533 
Q 2688 -716 2506 -850 
Q 2325 -984 2051 -1062 
Q 1778 -1141 1413 -1141 
Q 1056 -1141 804 -1084 
Q 553 -1028 392 -928 
Q 231 -828 157 -689 
Q 84 -550 84 -384 
Q 84 -281 111 -187 
Q 138 -94 189 -8 
Q 241 78 316 156 
Q 391 234 488 306 
Q 353 378 279 501 
Q 206 625 206 772 
Q 206 956 290 1107 
Q 375 1259 509 1381 
Q 400 1491 334 1644 
Q 269 1797 269 2025 
Q 269 2269 355 2461 
Q 441 2653 594 2786 
Q 747 2919 959 2989 
Q 1172 3059 1428 3059 
Q 1559 3059 1679 3043 
Q 1800 3028 1903 3000 
L 2788 3000 
Q 2841 3000 2873 2931 
Q 2906 2863 2906 2700 
z
M 1897 2041 
Q 1897 2266 1772 2391 
Q 1647 2516 1419 2516 
Q 1303 2516 1215 2477 
Q 1128 2438 1070 2370 
Q 1013 2303 984 2214 
Q 956 2125 956 2028 
Q 956 1816 1081 1692 
Q 1206 1569 1428 1569 
Q 1547 1569 1634 1606 
Q 1722 1644 1780 1709 
Q 1838 1775 1867 1861 
Q 1897 1947 1897 2041 
z
M 2081 -184 
Q 2081 -44 1968 31 
Q 1856 106 1659 113 
L 1100 128 
Q 1019 69 970 14 
Q 922 -41 892 -91 
Q 863 -141 853 -187 
Q 844 -234 844 -284 
Q 844 -441 1001 -522 
Q 1159 -603 1447 -603 
Q 1625 -603 1747 -567 
Q 1869 -531 1944 -472 
Q 2019 -413 2050 -339 
Q 2081 -266 2081 -184 
z
" transform="scale(0.015625)"/>
       <path id="Calibri-Bold-68" d="M 3056 106 
Q 3056 75 3037 51 
Q 3019 28 2975 12 
Q 2931 -3 2854 -11 
Q 2778 -19 2666 -19 
Q 2550 -19 2473 -11 
Q 2397 -3 2353 12 
Q 2309 28 2290 51 
Q 2272 75 2272 106 
L 2272 1697 
Q 2272 1900 2242 2015 
Q 2213 2131 2156 2214 
Q 2100 2297 2011 2342 
Q 1922 2388 1803 2388 
Q 1653 2388 1500 2278 
Q 1347 2169 1181 1959 
L 1181 106 
Q 1181 75 1162 51 
Q 1144 28 1098 12 
Q 1053 -3 978 -11 
Q 903 -19 788 -19 
Q 672 -19 597 -11 
Q 522 -3 476 12 
Q 431 28 412 51 
Q 394 75 394 106 
L 394 4216 
Q 394 4247 412 4272 
Q 431 4297 476 4314 
Q 522 4331 597 4340 
Q 672 4350 788 4350 
Q 903 4350 978 4340 
Q 1053 4331 1098 4314 
Q 1144 4297 1162 4272 
Q 1181 4247 1181 4216 
L 1181 2675 
Q 1384 2875 1595 2973 
Q 1806 3072 2034 3072 
Q 2319 3072 2514 2978 
Q 2709 2884 2829 2721 
Q 2950 2559 3003 2342 
Q 3056 2125 3056 1816 
L 3056 106 
z
" transform="scale(0.015625)"/>
       <path id="Calibri-Bold-74" d="M 2044 381 
Q 2044 244 2026 170 
Q 2009 97 1981 67 
Q 1953 38 1898 14 
Q 1844 -9 1770 -26 
Q 1697 -44 1611 -53 
Q 1525 -63 1438 -63 
Q 1203 -63 1031 -3 
Q 859 56 746 179 
Q 634 303 581 490 
Q 528 678 528 934 
L 528 2363 
L 194 2363 
Q 134 2363 103 2436 
Q 72 2509 72 2681 
Q 72 2772 80 2834 
Q 88 2897 103 2933 
Q 119 2969 142 2984 
Q 166 3000 197 3000 
L 528 3000 
L 528 3622 
Q 528 3653 545 3678 
Q 563 3703 608 3720 
Q 653 3738 729 3745 
Q 806 3753 919 3753 
Q 1034 3753 1111 3745 
Q 1188 3738 1231 3720 
Q 1275 3703 1294 3678 
Q 1313 3653 1313 3622 
L 1313 3000 
L 1919 3000 
Q 1950 3000 1973 2984 
Q 1997 2969 2012 2933 
Q 2028 2897 2036 2834 
Q 2044 2772 2044 2681 
Q 2044 2509 2012 2436 
Q 1981 2363 1922 2363 
L 1313 2363 
L 1313 1053 
Q 1313 825 1384 711 
Q 1456 597 1641 597 
Q 1703 597 1753 608 
Q 1803 619 1842 633 
Q 1881 647 1907 658 
Q 1934 669 1956 669 
Q 1975 669 1992 658 
Q 2009 647 2018 614 
Q 2028 581 2036 525 
Q 2044 469 2044 381 
z
" transform="scale(0.015625)"/>
       <path id="Calibri-Bold-20" transform="scale(0.015625)"/>
       <path id="Calibri-Bold-6f" d="M 3213 1528 
Q 3213 1172 3119 878 
Q 3025 584 2834 371 
Q 2644 159 2356 43 
Q 2069 -72 1684 -72 
Q 1313 -72 1038 31 
Q 763 134 581 331 
Q 400 528 312 815 
Q 225 1103 225 1472 
Q 225 1828 320 2123 
Q 416 2419 606 2630 
Q 797 2841 1083 2956 
Q 1369 3072 1753 3072 
Q 2128 3072 2403 2970 
Q 2678 2869 2858 2672 
Q 3038 2475 3125 2187 
Q 3213 1900 3213 1528 
z
M 2403 1497 
Q 2403 1703 2370 1876 
Q 2338 2050 2259 2178 
Q 2181 2306 2051 2378 
Q 1922 2450 1725 2450 
Q 1550 2450 1419 2386 
Q 1288 2322 1203 2198 
Q 1119 2075 1076 1901 
Q 1034 1728 1034 1506 
Q 1034 1300 1068 1126 
Q 1103 953 1179 825 
Q 1256 697 1387 626 
Q 1519 556 1713 556 
Q 1891 556 2022 620 
Q 2153 684 2237 806 
Q 2322 928 2362 1101 
Q 2403 1275 2403 1497 
z
" transform="scale(0.015625)"/>
       <path id="Calibri-Bold-6e" d="M 3056 106 
Q 3056 75 3037 51 
Q 3019 28 2975 12 
Q 2931 -3 2854 -11 
Q 2778 -19 2666 -19 
Q 2550 -19 2473 -11 
Q 2397 -3 2353 12 
Q 2309 28 2290 51 
Q 2272 75 2272 106 
L 2272 1697 
Q 2272 1900 2242 2015 
Q 2213 2131 2156 2214 
Q 2100 2297 2011 2342 
Q 1922 2388 1803 2388 
Q 1653 2388 1500 2278 
Q 1347 2169 1181 1959 
L 1181 106 
Q 1181 75 1162 51 
Q 1144 28 1098 12 
Q 1053 -3 978 -11 
Q 903 -19 788 -19 
Q 672 -19 597 -11 
Q 522 -3 476 12 
Q 431 28 412 51 
Q 394 75 394 106 
L 394 2894 
Q 394 2925 409 2948 
Q 425 2972 465 2987 
Q 506 3003 570 3011 
Q 634 3019 731 3019 
Q 831 3019 897 3011 
Q 963 3003 998 2987 
Q 1034 2972 1050 2948 
Q 1066 2925 1066 2894 
L 1066 2572 
Q 1297 2822 1536 2947 
Q 1775 3072 2034 3072 
Q 2319 3072 2514 2978 
Q 2709 2884 2829 2723 
Q 2950 2563 3003 2347 
Q 3056 2131 3056 1828 
L 3056 106 
z
" transform="scale(0.015625)"/>
       <path id="Calibri-Bold-78" d="M 2816 163 
Q 2841 109 2839 75 
Q 2838 41 2794 19 
Q 2750 -3 2659 -11 
Q 2569 -19 2419 -19 
Q 2278 -19 2192 -14 
Q 2106 -9 2057 5 
Q 2009 19 1986 39 
Q 1963 59 1950 91 
L 1434 1081 
L 919 91 
Q 906 59 884 39 
Q 863 19 817 5 
Q 772 -9 690 -14 
Q 609 -19 478 -19 
Q 341 -19 259 -11 
Q 178 -3 140 19 
Q 103 41 101 75 
Q 100 109 128 163 
L 900 1534 
L 188 2822 
Q 159 2878 157 2917 
Q 156 2956 197 2978 
Q 238 3000 327 3009 
Q 416 3019 569 3019 
Q 706 3019 789 3014 
Q 872 3009 919 3000 
Q 966 2991 987 2970 
Q 1009 2950 1025 2919 
L 1522 1988 
L 2016 2919 
Q 2025 2944 2044 2962 
Q 2063 2981 2103 2993 
Q 2144 3006 2214 3012 
Q 2284 3019 2406 3019 
Q 2544 3019 2626 3012 
Q 2709 3006 2745 2984 
Q 2781 2963 2779 2923 
Q 2778 2884 2744 2822 
L 2050 1556 
L 2816 163 
z
" transform="scale(0.015625)"/>
       <path id="Calibri-Bold-70" d="M 3200 1541 
Q 3200 1169 3120 870 
Q 3041 572 2887 362 
Q 2734 153 2506 40 
Q 2278 -72 1984 -72 
Q 1863 -72 1761 -48 
Q 1659 -25 1564 23 
Q 1469 72 1375 144 
Q 1281 216 1181 313 
L 1181 -1000 
Q 1181 -1031 1162 -1056 
Q 1144 -1081 1098 -1098 
Q 1053 -1116 978 -1125 
Q 903 -1134 788 -1134 
Q 672 -1134 597 -1125 
Q 522 -1116 476 -1098 
Q 431 -1081 412 -1056 
Q 394 -1031 394 -1000 
L 394 2894 
Q 394 2925 409 2948 
Q 425 2972 464 2987 
Q 503 3003 567 3011 
Q 631 3019 728 3019 
Q 822 3019 886 3011 
Q 950 3003 989 2987 
Q 1028 2972 1043 2948 
Q 1059 2925 1059 2894 
L 1059 2566 
Q 1181 2691 1298 2786 
Q 1416 2881 1537 2945 
Q 1659 3009 1789 3040 
Q 1919 3072 2066 3072 
Q 2372 3072 2587 2951 
Q 2803 2831 2939 2622 
Q 3075 2413 3137 2134 
Q 3200 1856 3200 1541 
z
M 2381 1484 
Q 2381 1663 2354 1827 
Q 2328 1991 2264 2119 
Q 2200 2247 2095 2323 
Q 1991 2400 1834 2400 
Q 1756 2400 1679 2376 
Q 1603 2353 1523 2300 
Q 1444 2247 1359 2162 
Q 1275 2078 1181 1953 
L 1181 1034 
Q 1347 825 1497 711 
Q 1647 597 1809 597 
Q 1963 597 2070 675 
Q 2178 753 2247 879 
Q 2316 1006 2348 1165 
Q 2381 1325 2381 1484 
z
" transform="scale(0.015625)"/>
       <path id="Calibri-Bold-63" d="M 2503 550 
Q 2503 469 2498 414 
Q 2494 359 2486 321 
Q 2478 284 2467 261 
Q 2456 238 2418 202 
Q 2381 166 2290 114 
Q 2200 63 2084 22 
Q 1969 -19 1833 -44 
Q 1697 -69 1553 -69 
Q 1231 -69 982 31 
Q 734 131 565 326 
Q 397 522 311 803 
Q 225 1084 225 1447 
Q 225 1866 329 2170 
Q 434 2475 621 2675 
Q 809 2875 1065 2972 
Q 1322 3069 1628 3069 
Q 1753 3069 1873 3047 
Q 1994 3025 2098 2987 
Q 2203 2950 2286 2903 
Q 2369 2856 2403 2822 
Q 2438 2788 2452 2764 
Q 2466 2741 2473 2703 
Q 2481 2666 2486 2611 
Q 2491 2556 2491 2478 
Q 2491 2297 2459 2223 
Q 2428 2150 2378 2150 
Q 2325 2150 2265 2194 
Q 2206 2238 2125 2291 
Q 2044 2344 1931 2387 
Q 1819 2431 1663 2431 
Q 1356 2431 1193 2195 
Q 1031 1959 1031 1503 
Q 1031 1278 1072 1106 
Q 1113 934 1192 818 
Q 1272 703 1392 645 
Q 1513 588 1672 588 
Q 1834 588 1951 636 
Q 2069 684 2156 743 
Q 2244 803 2303 851 
Q 2363 900 2403 900 
Q 2431 900 2450 884 
Q 2469 869 2480 826 
Q 2491 784 2497 718 
Q 2503 653 2503 550 
z
" transform="scale(0.015625)"/>
       <path id="Calibri-Bold-64" d="M 3038 106 
Q 3038 72 3022 48 
Q 3006 25 2968 9 
Q 2931 -6 2867 -12 
Q 2803 -19 2709 -19 
Q 2609 -19 2546 -12 
Q 2484 -6 2445 9 
Q 2406 25 2389 48 
Q 2372 72 2372 106 
L 2372 416 
Q 2156 184 1920 56 
Q 1684 -72 1397 -72 
Q 1078 -72 858 51 
Q 638 175 498 384 
Q 359 594 296 873 
Q 234 1153 234 1463 
Q 234 1834 314 2131 
Q 394 2428 547 2637 
Q 700 2847 928 2959 
Q 1156 3072 1453 3072 
Q 1688 3072 1878 2976 
Q 2069 2881 2256 2697 
L 2256 4206 
Q 2256 4238 2273 4263 
Q 2291 4288 2336 4305 
Q 2381 4322 2456 4331 
Q 2531 4341 2647 4341 
Q 2763 4341 2838 4331 
Q 2913 4322 2956 4305 
Q 3000 4288 3019 4263 
Q 3038 4238 3038 4206 
L 3038 106 
z
M 2256 1969 
Q 2088 2181 1933 2293 
Q 1778 2406 1609 2406 
Q 1456 2406 1345 2329 
Q 1234 2253 1167 2125 
Q 1100 1997 1067 1839 
Q 1034 1681 1034 1516 
Q 1034 1341 1062 1175 
Q 1091 1009 1155 879 
Q 1219 750 1325 672 
Q 1431 594 1594 594 
Q 1675 594 1751 617 
Q 1828 641 1908 694 
Q 1988 747 2072 833 
Q 2156 919 2256 1044 
L 2256 1969 
z
" transform="scale(0.015625)"/>
       <path id="Calibri-Bold-76" d="M 2959 2897 
Q 2959 2881 2957 2859 
Q 2956 2838 2951 2811 
Q 2947 2784 2939 2750 
Q 2931 2716 2919 2672 
L 2081 150 
Q 2066 97 2039 64 
Q 2013 31 1952 12 
Q 1891 -6 1786 -12 
Q 1681 -19 1513 -19 
Q 1347 -19 1242 -11 
Q 1138 -3 1078 15 
Q 1019 34 992 67 
Q 966 100 950 150 
L 113 2672 
Q 94 2734 83 2784 
Q 72 2834 70 2856 
Q 69 2878 69 2897 
Q 69 2928 86 2951 
Q 103 2975 147 2990 
Q 191 3006 267 3012 
Q 344 3019 459 3019 
Q 588 3019 666 3011 
Q 744 3003 789 2989 
Q 834 2975 853 2948 
Q 872 2922 884 2884 
L 1519 838 
L 1538 759 
L 1556 838 
L 2181 2884 
Q 2191 2922 2211 2948 
Q 2231 2975 2275 2989 
Q 2319 3003 2392 3011 
Q 2466 3019 2584 3019 
Q 2700 3019 2773 3012 
Q 2847 3006 2887 2990 
Q 2928 2975 2943 2951 
Q 2959 2928 2959 2897 
z
" transform="scale(0.015625)"/>
       <path id="Calibri-Bold-61" d="M 2769 97 
Q 2769 53 2737 28 
Q 2706 3 2639 -8 
Q 2572 -19 2441 -19 
Q 2300 -19 2236 -8 
Q 2172 3 2145 28 
Q 2119 53 2119 97 
L 2119 319 
Q 1947 134 1726 31 
Q 1506 -72 1238 -72 
Q 1016 -72 830 -14 
Q 644 44 508 158 
Q 372 272 297 440 
Q 222 609 222 834 
Q 222 1078 317 1258 
Q 413 1438 602 1555 
Q 791 1672 1072 1728 
Q 1353 1784 1725 1784 
L 1997 1784 
L 1997 1953 
Q 1997 2084 1970 2182 
Q 1944 2281 1883 2347 
Q 1822 2413 1720 2444 
Q 1619 2475 1469 2475 
Q 1272 2475 1117 2431 
Q 963 2388 844 2334 
Q 725 2281 645 2237 
Q 566 2194 516 2194 
Q 481 2194 454 2216 
Q 428 2238 411 2278 
Q 394 2319 384 2378 
Q 375 2438 375 2509 
Q 375 2606 390 2662 
Q 406 2719 450 2764 
Q 494 2809 603 2864 
Q 713 2919 859 2966 
Q 1006 3013 1179 3042 
Q 1353 3072 1538 3072 
Q 1866 3072 2098 3008 
Q 2331 2944 2481 2811 
Q 2631 2678 2700 2468 
Q 2769 2259 2769 1972 
L 2769 97 
z
M 1997 1291 
L 1697 1291 
Q 1506 1291 1372 1262 
Q 1238 1234 1153 1178 
Q 1069 1122 1030 1042 
Q 991 963 991 859 
Q 991 684 1102 584 
Q 1213 484 1409 484 
Q 1575 484 1714 568 
Q 1853 653 1997 816 
L 1997 1291 
z
" transform="scale(0.015625)"/>
       <path id="Calibri-Bold-6c" d="M 1181 106 
Q 1181 75 1162 51 
Q 1144 28 1098 12 
Q 1053 -3 978 -11 
Q 903 -19 788 -19 
Q 672 -19 597 -11 
Q 522 -3 476 12 
Q 431 28 412 51 
Q 394 75 394 106 
L 394 4216 
Q 394 4247 412 4272 
Q 431 4297 476 4314 
Q 522 4331 597 4340 
Q 672 4350 788 4350 
Q 903 4350 978 4340 
Q 1053 4331 1098 4314 
Q 1144 4297 1162 4272 
Q 1181 4247 1181 4216 
L 1181 106 
z
" transform="scale(0.015625)"/>
       <path id="Calibri-Bold-75" d="M 3038 106 
Q 3038 75 3022 51 
Q 3006 28 2967 12 
Q 2928 -3 2864 -11 
Q 2800 -19 2703 -19 
Q 2600 -19 2536 -11 
Q 2472 -3 2434 12 
Q 2397 28 2381 51 
Q 2366 75 2366 106 
L 2366 428 
Q 2134 178 1895 53 
Q 1656 -72 1400 -72 
Q 1113 -72 917 22 
Q 722 116 601 278 
Q 481 441 429 655 
Q 378 869 378 1188 
L 378 2894 
Q 378 2925 395 2948 
Q 413 2972 458 2987 
Q 503 3003 579 3011 
Q 656 3019 769 3019 
Q 884 3019 959 3011 
Q 1034 3003 1079 2987 
Q 1125 2972 1144 2948 
Q 1163 2925 1163 2894 
L 1163 1319 
Q 1163 1100 1191 984 
Q 1219 869 1276 786 
Q 1334 703 1423 658 
Q 1513 613 1631 613 
Q 1781 613 1932 722 
Q 2084 831 2256 1041 
L 2256 2894 
Q 2256 2925 2273 2948 
Q 2291 2972 2336 2987 
Q 2381 3003 2456 3011 
Q 2531 3019 2647 3019 
Q 2763 3019 2838 3011 
Q 2913 3003 2956 2987 
Q 3000 2972 3019 2948 
Q 3038 2925 3038 2894 
L 3038 106 
z
" transform="scale(0.015625)"/>
       <path id="Calibri-Bold-28" d="M 1672 4275 
Q 1409 3666 1275 3017 
Q 1141 2369 1141 1688 
Q 1141 1003 1277 357 
Q 1413 -288 1669 -906 
Q 1688 -956 1688 -992 
Q 1688 -1028 1653 -1053 
Q 1619 -1078 1548 -1090 
Q 1478 -1103 1353 -1103 
Q 1266 -1103 1203 -1097 
Q 1141 -1091 1098 -1080 
Q 1056 -1069 1032 -1051 
Q 1009 -1034 1000 -1013 
Q 831 -688 706 -358 
Q 581 -28 498 308 
Q 416 644 375 986 
Q 334 1328 334 1681 
Q 334 2031 376 2373 
Q 419 2716 503 3052 
Q 588 3388 711 3719 
Q 834 4050 1000 4378 
Q 1006 4394 1025 4406 
Q 1044 4419 1081 4430 
Q 1119 4441 1183 4445 
Q 1247 4450 1347 4450 
Q 1459 4450 1531 4439 
Q 1603 4428 1640 4406 
Q 1678 4384 1683 4350 
Q 1688 4316 1672 4275 
z
" transform="scale(0.015625)"/>
       <path id="Calibri-Bold-3b4" d="M 3169 1438 
Q 3169 1116 3070 839 
Q 2972 563 2781 361 
Q 2591 159 2312 43 
Q 2034 -72 1672 -72 
Q 1297 -72 1025 29 
Q 753 131 576 315 
Q 400 500 315 758 
Q 231 1016 231 1331 
Q 231 1819 473 2217 
Q 716 2616 1159 2850 
Q 1047 2925 970 3006 
Q 894 3088 848 3173 
Q 803 3259 783 3351 
Q 763 3444 763 3544 
Q 763 3728 834 3881 
Q 906 4034 1047 4143 
Q 1188 4253 1398 4314 
Q 1609 4375 1884 4375 
Q 2059 4375 2223 4350 
Q 2388 4325 2519 4290 
Q 2650 4256 2729 4222 
Q 2809 4188 2837 4167 
Q 2866 4147 2880 4123 
Q 2894 4100 2901 4065 
Q 2909 4031 2912 3978 
Q 2916 3925 2916 3847 
Q 2916 3772 2909 3720 
Q 2903 3669 2890 3641 
Q 2878 3613 2861 3600 
Q 2844 3588 2825 3588 
Q 2797 3588 2717 3622 
Q 2638 3656 2522 3697 
Q 2406 3738 2262 3772 
Q 2119 3806 1959 3806 
Q 1863 3806 1789 3787 
Q 1716 3769 1669 3736 
Q 1622 3703 1598 3658 
Q 1575 3613 1575 3559 
Q 1575 3513 1587 3470 
Q 1600 3428 1628 3386 
Q 1656 3344 1703 3297 
Q 1750 3250 1823 3192 
Q 1897 3134 2001 3064 
Q 2106 2994 2292 2872 
Q 2478 2750 2642 2600 
Q 2806 2450 2925 2270 
Q 3044 2091 3106 1883 
Q 3169 1675 3169 1438 
z
M 2359 1338 
Q 2359 1494 2328 1626 
Q 2297 1759 2219 1882 
Q 2141 2006 2005 2126 
Q 1869 2247 1659 2384 
Q 1534 2316 1418 2219 
Q 1303 2122 1218 1997 
Q 1134 1872 1087 1717 
Q 1041 1563 1041 1375 
Q 1041 1206 1077 1056 
Q 1113 906 1189 793 
Q 1266 681 1394 617 
Q 1522 553 1706 553 
Q 1850 553 1969 608 
Q 2088 663 2175 763 
Q 2263 863 2311 1008 
Q 2359 1153 2359 1338 
z
M 0 3000 
L 0 3000 
z
" transform="scale(0.015625)"/>
       <path id="Calibri-Bold-29" d="M 1656 1681 
Q 1656 1328 1615 986 
Q 1575 644 1492 308 
Q 1409 -28 1286 -358 
Q 1163 -688 994 -1013 
Q 984 -1034 961 -1051 
Q 938 -1069 895 -1080 
Q 853 -1091 790 -1097 
Q 728 -1103 641 -1103 
Q 513 -1103 442 -1090 
Q 372 -1078 337 -1053 
Q 303 -1028 303 -992 
Q 303 -956 322 -906 
Q 581 -294 717 354 
Q 853 1003 853 1688 
Q 853 2369 718 3017 
Q 584 3666 319 4275 
Q 303 4316 308 4350 
Q 313 4384 352 4406 
Q 391 4428 461 4439 
Q 531 4450 647 4450 
Q 744 4450 806 4445 
Q 869 4441 909 4430 
Q 950 4419 967 4406 
Q 984 4394 994 4378 
Q 1319 3722 1487 3051 
Q 1656 2381 1656 1681 
z
" transform="scale(0.015625)"/>
      </defs>
      <use xlink:href="#Calibri-Bold-57"/>
      <use xlink:href="#Calibri-Bold-65" transform="translate(90.625 0)"/>
      <use xlink:href="#Calibri-Bold-69" transform="translate(140.966797 0)"/>
      <use xlink:href="#Calibri-Bold-67" transform="translate(165.527344 0)"/>
      <use xlink:href="#Calibri-Bold-68" transform="translate(212.939453 0)"/>
      <use xlink:href="#Calibri-Bold-74" transform="translate(266.601562 0)"/>
      <use xlink:href="#Calibri-Bold-20" transform="translate(301.269531 0)"/>
      <use xlink:href="#Calibri-Bold-6f" transform="translate(323.876953 0)"/>
      <use xlink:href="#Calibri-Bold-6e" transform="translate(377.636719 0)"/>
      <use xlink:href="#Calibri-Bold-20" transform="translate(431.298828 0)"/>
      <use xlink:href="#Calibri-Bold-65" transform="translate(453.90625 0)"/>
      <use xlink:href="#Calibri-Bold-78" transform="translate(504.248047 0)"/>
      <use xlink:href="#Calibri-Bold-70" transform="translate(550.195312 0)"/>
      <use xlink:href="#Calibri-Bold-65" transform="translate(603.857422 0)"/>
      <use xlink:href="#Calibri-Bold-63" transform="translate(654.199219 0)"/>
      <use xlink:href="#Calibri-Bold-74" transform="translate(696.044922 0)"/>
      <use xlink:href="#Calibri-Bold-65" transform="translate(730.712891 0)"/>
      <use xlink:href="#Calibri-Bold-64" transform="translate(781.054688 0)"/>
      <use xlink:href="#Calibri-Bold-20" transform="translate(834.716797 0)"/>
      <use xlink:href="#Calibri-Bold-76" transform="translate(857.324219 0)"/>
      <use xlink:href="#Calibri-Bold-61" transform="translate(904.638672 0)"/>
      <use xlink:href="#Calibri-Bold-6c" transform="translate(954.003906 0)"/>
      <use xlink:href="#Calibri-Bold-75" transform="translate(978.564453 0)"/>
      <use xlink:href="#Calibri-Bold-65" transform="translate(1032.226562 0)"/>
      <use xlink:href="#Calibri-Bold-20" transform="translate(1082.568359 0)"/>
      <use xlink:href="#Calibri-Bold-28" transform="translate(1105.175781 0)"/>
      <use xlink:href="#Calibri-Bold-3b4" transform="translate(1136.328125 0)"/>
      <use xlink:href="#Calibri-Bold-29" transform="translate(1189.599609 0)"/>
     </g>
    </g>
   </g>
   <g id="matplotlib.axis_2">
    <g id="ytick_1">
     <g id="line2d_5">
      <path d="M 53.39625 222.356614 
L 546.75625 222.356614 
" clip-path="url(#p794e8ae096)" style="fill: none; stroke-dasharray: 2.96,1.28; stroke-dashoffset: 0; stroke: #b0b0b0; stroke-opacity: 0.4; stroke-width: 0.8"/>
     </g>
     <g id="line2d_6">
      <defs>
       <path id="mbde3c6aef0" d="M 0 0 
L -3.5 0 
" style="stroke: #000000; stroke-width: 0.8"/>
      </defs>
      <g>
       <use xlink:href="#mbde3c6aef0" x="53.39625" y="222.356614" style="stroke: #000000; stroke-width: 0.8"/>
      </g>
     </g>
     <g id="text_6">
      <!-- 0 -->
      <g transform="translate(39.3 227.117708) scale(0.14 -0.14)">
       <use xlink:href="#Calibri-30"/>
      </g>
     </g>
    </g>
    <g id="ytick_2">
     <g id="line2d_7">
      <path d="M 53.39625 188.957945 
L 546.75625 188.957945 
" clip-path="url(#p794e8ae096)" style="fill: none; stroke-dasharray: 2.96,1.28; stroke-dashoffset: 0; stroke: #b0b0b0; stroke-opacity: 0.4; stroke-width: 0.8"/>
     </g>
     <g id="line2d_8">
      <g>
       <use xlink:href="#mbde3c6aef0" x="53.39625" y="188.957945" style="stroke: #000000; stroke-width: 0.8"/>
      </g>
     </g>
     <g id="text_7">
      <!-- 50 -->
      <g transform="translate(32.20375 193.719039) scale(0.14 -0.14)">
       <use xlink:href="#Calibri-35"/>
       <use xlink:href="#Calibri-30" transform="translate(50.683594 0)"/>
      </g>
     </g>
    </g>
    <g id="ytick_3">
     <g id="line2d_9">
      <path d="M 53.39625 155.559277 
L 546.75625 155.559277 
" clip-path="url(#p794e8ae096)" style="fill: none; stroke-dasharray: 2.96,1.28; stroke-dashoffset: 0; stroke: #b0b0b0; stroke-opacity: 0.4; stroke-width: 0.8"/>
     </g>
     <g id="line2d_10">
      <g>
       <use xlink:href="#mbde3c6aef0" x="53.39625" y="155.559277" style="stroke: #000000; stroke-width: 0.8"/>
      </g>
     </g>
     <g id="text_8">
      <!-- 100 -->
      <g transform="translate(25.1075 160.32037) scale(0.14 -0.14)">
       <use xlink:href="#Calibri-31"/>
       <use xlink:href="#Calibri-30" transform="translate(50.683594 0)"/>
       <use xlink:href="#Calibri-30" transform="translate(101.367188 0)"/>
      </g>
     </g>
    </g>
    <g id="ytick_4">
     <g id="line2d_11">
      <path d="M 53.39625 122.160608 
L 546.75625 122.160608 
" clip-path="url(#p794e8ae096)" style="fill: none; stroke-dasharray: 2.96,1.28; stroke-dashoffset: 0; stroke: #b0b0b0; stroke-opacity: 0.4; stroke-width: 0.8"/>
     </g>
     <g id="line2d_12">
      <g>
       <use xlink:href="#mbde3c6aef0" x="53.39625" y="122.160608" style="stroke: #000000; stroke-width: 0.8"/>
      </g>
     </g>
     <g id="text_9">
      <!-- 150 -->
      <g transform="translate(25.1075 126.921701) scale(0.14 -0.14)">
       <use xlink:href="#Calibri-31"/>
       <use xlink:href="#Calibri-35" transform="translate(50.683594 0)"/>
       <use xlink:href="#Calibri-30" transform="translate(101.367188 0)"/>
      </g>
     </g>
    </g>
    <g id="ytick_5">
     <g id="line2d_13">
      <path d="M 53.39625 88.761939 
L 546.75625 88.761939 
" clip-path="url(#p794e8ae096)" style="fill: none; stroke-dasharray: 2.96,1.28; stroke-dashoffset: 0; stroke: #b0b0b0; stroke-opacity: 0.4; stroke-width: 0.8"/>
     </g>
     <g id="line2d_14">
      <g>
       <use xlink:href="#mbde3c6aef0" x="53.39625" y="88.761939" style="stroke: #000000; stroke-width: 0.8"/>
      </g>
     </g>
     <g id="text_10">
      <!-- 200 -->
      <g transform="translate(25.1075 93.523033) scale(0.14 -0.14)">
       <use xlink:href="#Calibri-32"/>
       <use xlink:href="#Calibri-30" transform="translate(50.683594 0)"/>
       <use xlink:href="#Calibri-30" transform="translate(101.367188 0)"/>
      </g>
     </g>
    </g>
    <g id="ytick_6">
     <g id="line2d_15">
      <path d="M 53.39625 55.36327 
L 546.75625 55.36327 
" clip-path="url(#p794e8ae096)" style="fill: none; stroke-dasharray: 2.96,1.28; stroke-dashoffset: 0; stroke: #b0b0b0; stroke-opacity: 0.4; stroke-width: 0.8"/>
     </g>
     <g id="line2d_16">
      <g>
       <use xlink:href="#mbde3c6aef0" x="53.39625" y="55.36327" style="stroke: #000000; stroke-width: 0.8"/>
      </g>
     </g>
     <g id="text_11">
      <!-- 250 -->
      <g transform="translate(25.1075 60.124364) scale(0.14 -0.14)">
       <use xlink:href="#Calibri-32"/>
       <use xlink:href="#Calibri-35" transform="translate(50.683594 0)"/>
       <use xlink:href="#Calibri-30" transform="translate(101.367188 0)"/>
      </g>
     </g>
    </g>
    <g id="ytick_7">
     <g id="line2d_17">
      <path d="M 53.39625 21.964601 
L 546.75625 21.964601 
" clip-path="url(#p794e8ae096)" style="fill: none; stroke-dasharray: 2.96,1.28; stroke-dashoffset: 0; stroke: #b0b0b0; stroke-opacity: 0.4; stroke-width: 0.8"/>
     </g>
     <g id="line2d_18">
      <g>
       <use xlink:href="#mbde3c6aef0" x="53.39625" y="21.964601" style="stroke: #000000; stroke-width: 0.8"/>
      </g>
     </g>
     <g id="text_12">
      <!-- 300 -->
      <g transform="translate(25.1075 26.725695) scale(0.14 -0.14)">
       <defs>
        <path id="Calibri-33" d="M 2856 1156 
Q 2856 878 2759 654 
Q 2663 431 2481 272 
Q 2300 113 2034 27 
Q 1769 -59 1434 -59 
Q 1231 -59 1054 -26 
Q 878 6 740 51 
Q 603 97 512 145 
Q 422 194 398 216 
Q 375 238 362 259 
Q 350 281 340 312 
Q 331 344 326 389 
Q 322 434 322 500 
Q 322 613 344 656 
Q 366 700 406 700 
Q 434 700 517 650 
Q 600 600 729 542 
Q 859 484 1032 434 
Q 1206 384 1419 384 
Q 1625 384 1781 437 
Q 1938 491 2044 587 
Q 2150 684 2203 817 
Q 2256 950 2256 1106 
Q 2256 1278 2189 1415 
Q 2122 1553 1992 1653 
Q 1863 1753 1673 1806 
Q 1484 1859 1244 1859 
L 859 1859 
Q 834 1859 811 1870 
Q 788 1881 770 1906 
Q 753 1931 742 1972 
Q 731 2013 731 2078 
Q 731 2138 740 2177 
Q 750 2216 767 2239 
Q 784 2263 806 2273 
Q 828 2284 856 2284 
L 1209 2284 
Q 1416 2284 1580 2337 
Q 1744 2391 1858 2491 
Q 1972 2591 2033 2730 
Q 2094 2869 2094 3041 
Q 2094 3166 2053 3280 
Q 2013 3394 1931 3478 
Q 1850 3563 1723 3611 
Q 1597 3659 1431 3659 
Q 1250 3659 1098 3604 
Q 947 3550 828 3487 
Q 709 3425 631 3370 
Q 553 3316 522 3316 
Q 500 3316 483 3323 
Q 466 3331 455 3354 
Q 444 3378 439 3420 
Q 434 3463 434 3531 
Q 434 3578 437 3614 
Q 441 3650 450 3676 
Q 459 3703 471 3725 
Q 484 3747 514 3776 
Q 544 3806 634 3862 
Q 725 3919 858 3973 
Q 991 4028 1164 4065 
Q 1338 4103 1538 4103 
Q 1819 4103 2031 4031 
Q 2244 3959 2386 3828 
Q 2528 3697 2598 3514 
Q 2669 3331 2669 3109 
Q 2669 2919 2619 2755 
Q 2569 2591 2472 2464 
Q 2375 2338 2234 2248 
Q 2094 2159 1909 2125 
L 1909 2119 
Q 2119 2097 2292 2014 
Q 2466 1931 2591 1806 
Q 2716 1681 2786 1514 
Q 2856 1347 2856 1156 
z
" transform="scale(0.015625)"/>
       </defs>
       <use xlink:href="#Calibri-33"/>
       <use xlink:href="#Calibri-30" transform="translate(50.683594 0)"/>
       <use xlink:href="#Calibri-30" transform="translate(101.367188 0)"/>
      </g>
     </g>
    </g>
    <g id="text_13">
     <!-- Energy [MWh] -->
     <g transform="translate(18.255 163.685326) rotate(-90) scale(0.16 -0.16)">
      <defs>
       <path id="Calibri-Bold-45" d="M 2838 322 
Q 2838 231 2830 170 
Q 2822 109 2806 71 
Q 2791 34 2767 17 
Q 2744 0 2716 0 
L 684 0 
Q 581 0 511 61 
Q 441 122 441 259 
L 441 3784 
Q 441 3922 511 3983 
Q 581 4044 684 4044 
L 2703 4044 
Q 2731 4044 2753 4028 
Q 2775 4013 2790 3973 
Q 2806 3934 2814 3873 
Q 2822 3813 2822 3719 
Q 2822 3631 2814 3570 
Q 2806 3509 2790 3471 
Q 2775 3434 2753 3417 
Q 2731 3400 2703 3400 
L 1259 3400 
L 1259 2413 
L 2481 2413 
Q 2509 2413 2532 2395 
Q 2556 2378 2572 2342 
Q 2588 2306 2595 2245 
Q 2603 2184 2603 2097 
Q 2603 2006 2595 1947 
Q 2588 1888 2572 1852 
Q 2556 1816 2532 1800 
Q 2509 1784 2481 1784 
L 1259 1784 
L 1259 644 
L 2716 644 
Q 2744 644 2767 626 
Q 2791 609 2806 571 
Q 2822 534 2830 473 
Q 2838 413 2838 322 
z
" transform="scale(0.015625)"/>
       <path id="Calibri-Bold-72" d="M 2184 2634 
Q 2184 2522 2178 2450 
Q 2172 2378 2159 2337 
Q 2147 2297 2126 2281 
Q 2106 2266 2075 2266 
Q 2050 2266 2019 2277 
Q 1988 2288 1948 2300 
Q 1909 2313 1862 2323 
Q 1816 2334 1759 2334 
Q 1694 2334 1628 2307 
Q 1563 2281 1492 2225 
Q 1422 2169 1345 2075 
Q 1269 1981 1181 1844 
L 1181 106 
Q 1181 75 1162 51 
Q 1144 28 1098 12 
Q 1053 -3 978 -11 
Q 903 -19 788 -19 
Q 672 -19 597 -11 
Q 522 -3 476 12 
Q 431 28 412 51 
Q 394 75 394 106 
L 394 2894 
Q 394 2925 409 2948 
Q 425 2972 465 2987 
Q 506 3003 570 3011 
Q 634 3019 731 3019 
Q 831 3019 897 3011 
Q 963 3003 998 2987 
Q 1034 2972 1050 2948 
Q 1066 2925 1066 2894 
L 1066 2547 
Q 1175 2703 1272 2804 
Q 1369 2906 1456 2965 
Q 1544 3025 1631 3048 
Q 1719 3072 1806 3072 
Q 1847 3072 1894 3067 
Q 1941 3063 1991 3052 
Q 2041 3041 2078 3027 
Q 2116 3013 2133 2997 
Q 2150 2981 2158 2962 
Q 2166 2944 2172 2911 
Q 2178 2878 2181 2812 
Q 2184 2747 2184 2634 
z
" transform="scale(0.015625)"/>
       <path id="Calibri-Bold-79" d="M 2009 0 
L 1672 -988 
Q 1644 -1066 1519 -1100 
Q 1394 -1134 1153 -1134 
Q 1028 -1134 953 -1123 
Q 878 -1113 840 -1088 
Q 803 -1063 800 -1025 
Q 797 -988 819 -934 
L 1191 0 
Q 1150 19 1117 58 
Q 1084 97 1069 141 
L 109 2703 
Q 69 2813 69 2870 
Q 69 2928 106 2961 
Q 144 2994 233 3006 
Q 322 3019 469 3019 
Q 603 3019 681 3014 
Q 759 3009 803 2990 
Q 847 2972 869 2933 
Q 891 2894 913 2822 
L 1569 956 
L 1578 956 
L 2178 2859 
Q 2197 2941 2226 2967 
Q 2256 2994 2325 3006 
Q 2394 3019 2566 3019 
Q 2700 3019 2789 3006 
Q 2878 2994 2920 2959 
Q 2963 2925 2963 2867 
Q 2963 2809 2938 2731 
L 2009 0 
z
" transform="scale(0.015625)"/>
       <path id="Calibri-Bold-5b" d="M 1806 -775 
Q 1806 -931 1778 -993 
Q 1750 -1056 1697 -1056 
L 731 -1056 
Q 678 -1056 634 -1040 
Q 591 -1025 559 -994 
Q 528 -963 509 -913 
Q 491 -863 491 -794 
L 491 4163 
Q 491 4228 509 4278 
Q 528 4328 559 4361 
Q 591 4394 634 4408 
Q 678 4422 731 4422 
L 1697 4422 
Q 1722 4422 1744 4408 
Q 1766 4394 1780 4361 
Q 1794 4328 1800 4275 
Q 1806 4222 1806 4141 
Q 1806 3981 1778 3920 
Q 1750 3859 1697 3859 
L 1225 3859 
L 1225 -494 
L 1697 -494 
Q 1722 -494 1744 -506 
Q 1766 -519 1780 -553 
Q 1794 -588 1800 -641 
Q 1806 -694 1806 -775 
z
" transform="scale(0.015625)"/>
       <path id="Calibri-Bold-4d" d="M 5153 113 
Q 5153 81 5136 56 
Q 5119 31 5073 15 
Q 5028 0 4953 -9 
Q 4878 -19 4763 -19 
Q 4650 -19 4575 -9 
Q 4500 0 4456 15 
Q 4413 31 4394 56 
Q 4375 81 4375 113 
L 4375 3403 
L 4369 3403 
L 3197 116 
Q 3184 75 3156 48 
Q 3128 22 3079 6 
Q 3031 -9 2956 -14 
Q 2881 -19 2775 -19 
Q 2669 -19 2594 -11 
Q 2519 -3 2470 14 
Q 2422 31 2394 56 
Q 2366 81 2356 116 
L 1225 3403 
L 1219 3403 
L 1219 113 
Q 1219 81 1201 56 
Q 1184 31 1137 15 
Q 1091 0 1017 -9 
Q 944 -19 828 -19 
Q 716 -19 641 -9 
Q 566 0 520 15 
Q 475 31 458 56 
Q 441 81 441 113 
L 441 3716 
Q 441 3875 525 3959 
Q 609 4044 750 4044 
L 1288 4044 
Q 1431 4044 1534 4020 
Q 1638 3997 1713 3942 
Q 1788 3888 1838 3798 
Q 1888 3709 1925 3578 
L 2800 1169 
L 2813 1169 
L 3719 3572 
Q 3759 3703 3807 3793 
Q 3856 3884 3920 3940 
Q 3984 3997 4071 4020 
Q 4159 4044 4275 4044 
L 4828 4044 
Q 4913 4044 4973 4022 
Q 5034 4000 5073 3958 
Q 5113 3916 5133 3855 
Q 5153 3794 5153 3716 
L 5153 113 
z
" transform="scale(0.015625)"/>
       <path id="Calibri-Bold-5d" d="M 1594 -794 
Q 1594 -863 1573 -913 
Q 1553 -963 1522 -994 
Q 1491 -1025 1447 -1040 
Q 1403 -1056 1350 -1056 
L 381 -1056 
Q 328 -1056 300 -993 
Q 272 -931 272 -775 
Q 272 -694 280 -641 
Q 288 -588 302 -553 
Q 316 -519 336 -506 
Q 356 -494 381 -494 
L 856 -494 
L 856 3859 
L 381 3859 
Q 328 3859 300 3920 
Q 272 3981 272 4141 
Q 272 4222 280 4275 
Q 288 4328 302 4361 
Q 316 4394 336 4408 
Q 356 4422 381 4422 
L 1350 4422 
Q 1403 4422 1447 4408 
Q 1491 4394 1522 4361 
Q 1553 4328 1573 4278 
Q 1594 4228 1594 4163 
L 1594 -794 
z
" transform="scale(0.015625)"/>
      </defs>
      <use xlink:href="#Calibri-Bold-45"/>
      <use xlink:href="#Calibri-Bold-6e" transform="translate(48.779297 0)"/>
      <use xlink:href="#Calibri-Bold-65" transform="translate(102.441406 0)"/>
      <use xlink:href="#Calibri-Bold-72" transform="translate(152.783203 0)"/>
      <use xlink:href="#Calibri-Bold-67" transform="translate(188.330078 0)"/>
      <use xlink:href="#Calibri-Bold-79" transform="translate(235.742188 0)"/>
      <use xlink:href="#Calibri-Bold-20" transform="translate(283.105469 0)"/>
      <use xlink:href="#Calibri-Bold-5b" transform="translate(305.712891 0)"/>
      <use xlink:href="#Calibri-Bold-4d" transform="translate(338.183594 0)"/>
      <use xlink:href="#Calibri-Bold-57" transform="translate(425.585938 0)"/>
      <use xlink:href="#Calibri-Bold-68" transform="translate(516.210938 0)"/>
      <use xlink:href="#Calibri-Bold-5d" transform="translate(569.873047 0)"/>
     </g>
    </g>
   </g>
   <g id="patch_17">
    <path d="M 53.39625 222.356614 
L 53.39625 8.641538 
" style="fill: none; stroke: #000000; stroke-width: 0.8; stroke-linejoin: miter; stroke-linecap: square"/>
   </g>
   <g id="patch_18">
    <path d="M 546.75625 222.356614 
L 546.75625 8.641538 
" style="fill: none; stroke: #000000; stroke-width: 0.8; stroke-linejoin: miter; stroke-linecap: square"/>
   </g>
   <g id="patch_19">
    <path d="M 53.39625 222.356614 
L 546.75625 222.356614 
" style="fill: none; stroke: #000000; stroke-width: 0.8; stroke-linejoin: miter; stroke-linecap: square"/>
   </g>
   <g id="patch_20">
    <path d="M 53.39625 8.641538 
L 546.75625 8.641538 
" style="fill: none; stroke: #000000; stroke-width: 0.8; stroke-linejoin: miter; stroke-linecap: square"/>
   </g>
   <g id="text_14">
    <!-- 58.0 h -->
    <g transform="translate(71.578958 68.8008) scale(0.12 -0.12)">
     <defs>
      <path id="Calibri-Bold-35" d="M 2950 1313 
Q 2950 984 2836 726 
Q 2722 469 2514 292 
Q 2306 116 2014 22 
Q 1722 -72 1366 -72 
Q 1178 -72 1009 -48 
Q 841 -25 706 11 
Q 572 47 486 83 
Q 400 119 373 142 
Q 347 166 334 194 
Q 322 222 314 261 
Q 306 300 303 359 
Q 300 419 300 500 
Q 300 588 306 648 
Q 313 709 327 746 
Q 341 784 359 800 
Q 378 816 403 816 
Q 434 816 498 780 
Q 563 744 667 700 
Q 772 656 922 620 
Q 1072 584 1281 584 
Q 1463 584 1611 621 
Q 1759 659 1862 742 
Q 1966 825 2022 950 
Q 2078 1075 2078 1250 
Q 2078 1400 2031 1517 
Q 1984 1634 1884 1715 
Q 1784 1797 1625 1837 
Q 1466 1878 1238 1878 
Q 1056 1878 907 1859 
Q 759 1841 628 1841 
Q 538 1841 498 1886 
Q 459 1931 459 2053 
L 459 3809 
Q 459 3934 507 3989 
Q 556 4044 663 4044 
L 2578 4044 
Q 2606 4044 2631 4025 
Q 2656 4006 2673 3965 
Q 2691 3925 2698 3858 
Q 2706 3791 2706 3697 
Q 2706 3509 2673 3425 
Q 2641 3341 2578 3341 
L 1141 3341 
L 1141 2475 
Q 1250 2488 1358 2491 
Q 1466 2494 1584 2494 
Q 1913 2494 2167 2417 
Q 2422 2341 2595 2192 
Q 2769 2044 2859 1823 
Q 2950 1603 2950 1313 
z
" transform="scale(0.015625)"/>
      <path id="Calibri-Bold-38" d="M 3050 1084 
Q 3050 809 2954 593 
Q 2859 378 2673 229 
Q 2488 81 2213 4 
Q 1938 -72 1578 -72 
Q 1234 -72 975 -3 
Q 716 66 541 198 
Q 366 331 278 526 
Q 191 722 191 975 
Q 191 1147 242 1298 
Q 294 1450 395 1579 
Q 497 1709 648 1823 
Q 800 1938 997 2041 
Q 838 2128 709 2229 
Q 581 2331 490 2451 
Q 400 2572 353 2715 
Q 306 2859 306 3028 
Q 306 3272 392 3470 
Q 478 3669 648 3814 
Q 819 3959 1075 4037 
Q 1331 4116 1669 4116 
Q 2003 4116 2242 4044 
Q 2481 3972 2634 3840 
Q 2788 3709 2861 3526 
Q 2934 3344 2934 3122 
Q 2934 2975 2886 2836 
Q 2838 2697 2750 2572 
Q 2663 2447 2534 2336 
Q 2406 2225 2244 2134 
Q 2434 2034 2584 1921 
Q 2734 1809 2837 1679 
Q 2941 1550 2995 1403 
Q 3050 1256 3050 1084 
z
M 2144 3047 
Q 2144 3156 2112 3243 
Q 2081 3331 2014 3392 
Q 1947 3453 1848 3484 
Q 1750 3516 1616 3516 
Q 1353 3516 1225 3395 
Q 1097 3275 1097 3063 
Q 1097 2963 1130 2878 
Q 1163 2794 1231 2719 
Q 1300 2644 1409 2572 
Q 1519 2500 1669 2419 
Q 1897 2553 2020 2706 
Q 2144 2859 2144 3047 
z
M 2238 1028 
Q 2238 1144 2198 1239 
Q 2159 1334 2076 1418 
Q 1994 1503 1869 1581 
Q 1744 1659 1578 1741 
Q 1434 1663 1325 1584 
Q 1216 1506 1144 1420 
Q 1072 1334 1036 1239 
Q 1000 1144 1000 1034 
Q 1000 791 1158 662 
Q 1316 534 1628 534 
Q 1934 534 2086 665 
Q 2238 797 2238 1028 
z
" transform="scale(0.015625)"/>
      <path id="Calibri-Bold-2e" d="M 1319 450 
Q 1319 159 1217 59 
Q 1116 -41 853 -41 
Q 591 -41 491 57 
Q 391 156 391 431 
Q 391 725 492 825 
Q 594 925 859 925 
Q 1119 925 1219 826 
Q 1319 728 1319 450 
z
" transform="scale(0.015625)"/>
      <path id="Calibri-Bold-30" d="M 3069 2038 
Q 3069 1553 2991 1162 
Q 2913 772 2736 497 
Q 2559 222 2276 75 
Q 1994 -72 1584 -72 
Q 1169 -72 897 70 
Q 625 213 465 480 
Q 306 747 242 1133 
Q 178 1519 178 2006 
Q 178 2488 258 2880 
Q 338 3272 514 3547 
Q 691 3822 973 3969 
Q 1256 4116 1663 4116 
Q 2078 4116 2351 3973 
Q 2625 3831 2784 3564 
Q 2944 3297 3006 2911 
Q 3069 2525 3069 2038 
z
M 2241 1997 
Q 2241 2284 2225 2504 
Q 2209 2725 2176 2887 
Q 2144 3050 2095 3162 
Q 2047 3275 1978 3342 
Q 1909 3409 1821 3437 
Q 1734 3466 1628 3466 
Q 1444 3466 1323 3377 
Q 1203 3288 1133 3109 
Q 1063 2931 1034 2665 
Q 1006 2400 1006 2047 
Q 1006 1616 1040 1333 
Q 1075 1050 1148 883 
Q 1222 716 1337 648 
Q 1453 581 1616 581 
Q 1738 581 1831 620 
Q 1925 659 1995 737 
Q 2066 816 2112 934 
Q 2159 1053 2189 1209 
Q 2219 1366 2230 1562 
Q 2241 1759 2241 1997 
z
" transform="scale(0.015625)"/>
     </defs>
     <use xlink:href="#Calibri-Bold-35"/>
     <use xlink:href="#Calibri-Bold-38" transform="translate(50.683594 0)"/>
     <use xlink:href="#Calibri-Bold-2e" transform="translate(101.367188 0)"/>
     <use xlink:href="#Calibri-Bold-30" transform="translate(128.076172 0)"/>
     <use xlink:href="#Calibri-Bold-20" transform="translate(178.759766 0)"/>
     <use xlink:href="#Calibri-Bold-68" transform="translate(201.367188 0)"/>
    </g>
   </g>
   <g id="text_15">
    <!-- 9.1 h -->
    <g transform="translate(123.771889 86.288343) scale(0.12 -0.12)">
     <defs>
      <path id="Calibri-Bold-39" d="M 2997 2206 
Q 2997 1959 2972 1695 
Q 2947 1431 2876 1178 
Q 2806 925 2682 697 
Q 2559 469 2364 298 
Q 2169 128 1889 28 
Q 1609 -72 1228 -72 
Q 1094 -72 961 -53 
Q 828 -34 718 -6 
Q 609 22 532 53 
Q 456 84 422 117 
Q 388 150 372 212 
Q 356 275 356 388 
Q 356 491 361 553 
Q 366 616 380 650 
Q 394 684 414 695 
Q 434 706 463 706 
Q 500 706 569 684 
Q 638 663 736 634 
Q 834 606 959 584 
Q 1084 563 1238 563 
Q 1500 563 1681 656 
Q 1863 750 1975 909 
Q 2088 1069 2141 1278 
Q 2194 1488 2200 1719 
Q 2056 1628 1853 1561 
Q 1650 1494 1388 1494 
Q 1066 1494 841 1578 
Q 616 1663 475 1822 
Q 334 1981 270 2209 
Q 206 2438 206 2725 
Q 206 3028 297 3283 
Q 388 3538 566 3723 
Q 744 3909 1009 4012 
Q 1275 4116 1625 4116 
Q 1906 4116 2117 4050 
Q 2328 3984 2479 3862 
Q 2631 3741 2732 3567 
Q 2834 3394 2892 3181 
Q 2950 2969 2973 2722 
Q 2997 2475 2997 2206 
z
M 2181 2319 
Q 2181 2653 2143 2878 
Q 2106 3103 2031 3237 
Q 1956 3372 1843 3428 
Q 1731 3484 1581 3484 
Q 1434 3484 1328 3432 
Q 1222 3381 1151 3287 
Q 1081 3194 1047 3066 
Q 1013 2938 1013 2784 
Q 1013 2619 1042 2492 
Q 1072 2366 1136 2283 
Q 1200 2200 1303 2159 
Q 1406 2119 1553 2119 
Q 1734 2119 1895 2173 
Q 2056 2228 2181 2319 
z
" transform="scale(0.015625)"/>
      <path id="Calibri-Bold-31" d="M 2950 313 
Q 2950 225 2940 164 
Q 2931 103 2914 67 
Q 2897 31 2875 15 
Q 2853 0 2825 0 
L 594 0 
Q 569 0 547 15 
Q 525 31 508 67 
Q 491 103 481 164 
Q 472 225 472 313 
Q 472 403 480 464 
Q 488 525 505 562 
Q 522 600 544 617 
Q 566 634 594 634 
L 1347 634 
L 1347 3266 
L 697 2906 
Q 625 2872 579 2864 
Q 534 2856 507 2882 
Q 481 2909 472 2975 
Q 463 3041 463 3159 
Q 463 3234 466 3282 
Q 469 3331 481 3365 
Q 494 3400 516 3422 
Q 538 3444 575 3469 
L 1444 4031 
Q 1459 4044 1482 4051 
Q 1506 4059 1543 4064 
Q 1581 4069 1642 4070 
Q 1703 4072 1800 4072 
Q 1919 4072 1992 4067 
Q 2066 4063 2103 4052 
Q 2141 4041 2153 4022 
Q 2166 4003 2166 3975 
L 2166 634 
L 2825 634 
Q 2853 634 2876 617 
Q 2900 600 2917 562 
Q 2934 525 2942 464 
Q 2950 403 2950 313 
z
" transform="scale(0.015625)"/>
     </defs>
     <use xlink:href="#Calibri-Bold-39"/>
     <use xlink:href="#Calibri-Bold-2e" transform="translate(50.683594 0)"/>
     <use xlink:href="#Calibri-Bold-31" transform="translate(77.392578 0)"/>
     <use xlink:href="#Calibri-Bold-20" transform="translate(128.076172 0)"/>
     <use xlink:href="#Calibri-Bold-68" transform="translate(150.683594 0)"/>
    </g>
   </g>
   <g id="text_16">
    <!-- 57.8 h -->
    <g transform="translate(185.856617 47.646083) scale(0.12 -0.12)">
     <defs>
      <path id="Calibri-Bold-37" d="M 2984 3697 
Q 2984 3606 2978 3539 
Q 2972 3472 2961 3414 
Q 2950 3356 2931 3304 
Q 2913 3253 2888 3194 
L 1556 109 
Q 1538 69 1508 44 
Q 1478 19 1425 5 
Q 1372 -9 1289 -14 
Q 1206 -19 1084 -19 
Q 919 -19 822 -8 
Q 725 3 679 26 
Q 634 50 631 86 
Q 628 122 653 175 
L 2084 3331 
L 384 3331 
Q 319 3331 286 3417 
Q 253 3503 253 3691 
Q 253 3784 262 3851 
Q 272 3919 289 3962 
Q 306 4006 329 4025 
Q 353 4044 384 4044 
L 2788 4044 
Q 2844 4044 2881 4033 
Q 2919 4022 2941 3984 
Q 2963 3947 2973 3878 
Q 2984 3809 2984 3697 
z
" transform="scale(0.015625)"/>
     </defs>
     <use xlink:href="#Calibri-Bold-35"/>
     <use xlink:href="#Calibri-Bold-37" transform="translate(50.683594 0)"/>
     <use xlink:href="#Calibri-Bold-2e" transform="translate(101.367188 0)"/>
     <use xlink:href="#Calibri-Bold-38" transform="translate(128.076172 0)"/>
     <use xlink:href="#Calibri-Bold-20" transform="translate(178.759766 0)"/>
     <use xlink:href="#Calibri-Bold-68" transform="translate(201.367188 0)"/>
    </g>
   </g>
   <g id="text_17">
    <!-- 56.3 h -->
    <g transform="translate(308.73582 37.072064) scale(0.12 -0.12)">
     <defs>
      <path id="Calibri-Bold-36" d="M 3050 1350 
Q 3050 1044 2956 783 
Q 2863 522 2681 333 
Q 2500 144 2234 36 
Q 1969 -72 1622 -72 
Q 1341 -72 1131 -8 
Q 922 56 769 176 
Q 616 297 519 469 
Q 422 641 364 856 
Q 306 1072 284 1325 
Q 263 1578 263 1863 
Q 263 2100 286 2359 
Q 309 2619 376 2869 
Q 444 3119 566 3345 
Q 688 3572 880 3742 
Q 1072 3913 1345 4013 
Q 1619 4113 1994 4113 
Q 2113 4113 2233 4098 
Q 2353 4084 2456 4062 
Q 2559 4041 2631 4012 
Q 2703 3984 2726 3964 
Q 2750 3944 2762 3919 
Q 2775 3894 2783 3864 
Q 2791 3834 2794 3790 
Q 2797 3747 2797 3684 
Q 2797 3588 2792 3523 
Q 2788 3459 2775 3423 
Q 2763 3388 2741 3372 
Q 2719 3356 2688 3356 
Q 2650 3356 2590 3376 
Q 2531 3397 2447 3422 
Q 2363 3447 2248 3465 
Q 2134 3484 1984 3484 
Q 1731 3484 1556 3390 
Q 1381 3297 1272 3136 
Q 1163 2975 1113 2762 
Q 1063 2550 1059 2313 
Q 1128 2356 1217 2400 
Q 1306 2444 1411 2475 
Q 1516 2506 1637 2526 
Q 1759 2547 1897 2547 
Q 2203 2547 2422 2462 
Q 2641 2378 2780 2222 
Q 2919 2066 2984 1844 
Q 3050 1622 3050 1350 
z
M 2244 1272 
Q 2244 1431 2216 1551 
Q 2188 1672 2125 1755 
Q 2063 1838 1959 1880 
Q 1856 1922 1709 1922 
Q 1622 1922 1537 1906 
Q 1453 1891 1372 1862 
Q 1291 1834 1216 1795 
Q 1141 1756 1075 1713 
Q 1075 1378 1112 1154 
Q 1150 931 1223 800 
Q 1297 669 1408 614 
Q 1519 559 1666 559 
Q 1809 559 1917 612 
Q 2025 666 2097 762 
Q 2169 859 2206 989 
Q 2244 1119 2244 1272 
z
" transform="scale(0.015625)"/>
      <path id="Calibri-Bold-33" d="M 2969 1184 
Q 2969 881 2853 647 
Q 2738 413 2531 253 
Q 2325 94 2037 11 
Q 1750 -72 1409 -72 
Q 1203 -72 1022 -42 
Q 841 -13 702 31 
Q 563 75 472 122 
Q 381 169 353 194 
Q 325 219 311 250 
Q 297 281 286 323 
Q 275 366 270 430 
Q 266 494 266 584 
Q 266 734 291 792 
Q 316 850 366 850 
Q 397 850 473 808 
Q 550 766 669 717 
Q 788 669 947 626 
Q 1106 584 1309 584 
Q 1481 584 1612 625 
Q 1744 666 1836 739 
Q 1928 813 1973 917 
Q 2019 1022 2019 1150 
Q 2019 1291 1964 1403 
Q 1909 1516 1801 1595 
Q 1694 1675 1530 1719 
Q 1366 1763 1144 1763 
L 794 1763 
Q 753 1763 725 1773 
Q 697 1784 678 1818 
Q 659 1853 651 1914 
Q 644 1975 644 2072 
Q 644 2163 651 2220 
Q 659 2278 676 2309 
Q 694 2341 720 2353 
Q 747 2366 784 2366 
L 1138 2366 
Q 1319 2366 1459 2408 
Q 1600 2450 1695 2528 
Q 1791 2606 1841 2717 
Q 1891 2828 1891 2963 
Q 1891 3066 1856 3158 
Q 1822 3250 1755 3317 
Q 1688 3384 1581 3423 
Q 1475 3463 1331 3463 
Q 1169 3463 1025 3414 
Q 881 3366 767 3308 
Q 653 3250 573 3200 
Q 494 3150 456 3150 
Q 431 3150 412 3161 
Q 394 3172 381 3203 
Q 369 3234 362 3293 
Q 356 3353 356 3447 
Q 356 3525 359 3576 
Q 363 3628 372 3662 
Q 381 3697 395 3722 
Q 409 3747 440 3776 
Q 472 3806 569 3865 
Q 666 3925 812 3981 
Q 959 4038 1151 4077 
Q 1344 4116 1569 4116 
Q 1863 4116 2089 4047 
Q 2316 3978 2470 3848 
Q 2625 3719 2704 3530 
Q 2784 3341 2784 3103 
Q 2784 2919 2737 2759 
Q 2691 2600 2600 2475 
Q 2509 2350 2373 2262 
Q 2238 2175 2059 2131 
L 2059 2122 
Q 2272 2097 2440 2014 
Q 2609 1931 2726 1806 
Q 2844 1681 2906 1523 
Q 2969 1366 2969 1184 
z
" transform="scale(0.015625)"/>
     </defs>
     <use xlink:href="#Calibri-Bold-35"/>
     <use xlink:href="#Calibri-Bold-36" transform="translate(50.683594 0)"/>
     <use xlink:href="#Calibri-Bold-2e" transform="translate(101.367188 0)"/>
     <use xlink:href="#Calibri-Bold-33" transform="translate(128.076172 0)"/>
     <use xlink:href="#Calibri-Bold-20" transform="translate(178.759766 0)"/>
     <use xlink:href="#Calibri-Bold-68" transform="translate(201.367188 0)"/>
    </g>
   </g>
   <g id="text_18">
    <!-- 55.9 h -->
    <g transform="translate(431.615023 15.35625) scale(0.12 -0.12)">
     <use xlink:href="#Calibri-Bold-35"/>
     <use xlink:href="#Calibri-Bold-35" transform="translate(50.683594 0)"/>
     <use xlink:href="#Calibri-Bold-2e" transform="translate(101.367188 0)"/>
     <use xlink:href="#Calibri-Bold-39" transform="translate(128.076172 0)"/>
     <use xlink:href="#Calibri-Bold-20" transform="translate(178.759766 0)"/>
     <use xlink:href="#Calibri-Bold-68" transform="translate(201.367188 0)"/>
    </g>
   </g>
   <g id="text_19">
    <!-- 58.4 h -->
    <g transform="translate(207.974873 91.184588) scale(0.12 -0.12)">
     <defs>
      <path id="Calibri-Bold-34" d="M 3113 1163 
Q 3113 1003 3080 920 
Q 3047 838 2991 838 
L 2631 838 
L 2631 106 
Q 2631 75 2612 51 
Q 2594 28 2547 12 
Q 2500 -3 2425 -11 
Q 2350 -19 2231 -19 
Q 2119 -19 2042 -11 
Q 1966 -3 1920 12 
Q 1875 28 1858 51 
Q 1841 75 1841 106 
L 1841 838 
L 294 838 
Q 250 838 215 848 
Q 181 859 157 898 
Q 134 938 123 1011 
Q 113 1084 113 1206 
Q 113 1306 117 1379 
Q 122 1453 133 1512 
Q 144 1572 164 1625 
Q 184 1678 216 1738 
L 1472 3953 
Q 1488 3981 1525 4001 
Q 1563 4022 1630 4036 
Q 1697 4050 1800 4056 
Q 1903 4063 2050 4063 
Q 2209 4063 2321 4055 
Q 2434 4047 2501 4030 
Q 2569 4013 2600 3988 
Q 2631 3963 2631 3928 
L 2631 1494 
L 2991 1494 
Q 3041 1494 3077 1417 
Q 3113 1341 3113 1163 
z
M 1841 3353 
L 1834 3353 
L 769 1494 
L 1841 1494 
L 1841 3353 
z
" transform="scale(0.015625)"/>
     </defs>
     <use xlink:href="#Calibri-Bold-35"/>
     <use xlink:href="#Calibri-Bold-38" transform="translate(50.683594 0)"/>
     <use xlink:href="#Calibri-Bold-2e" transform="translate(101.367188 0)"/>
     <use xlink:href="#Calibri-Bold-34" transform="translate(128.076172 0)"/>
     <use xlink:href="#Calibri-Bold-20" transform="translate(178.759766 0)"/>
     <use xlink:href="#Calibri-Bold-68" transform="translate(201.367188 0)"/>
    </g>
   </g>
   <g id="text_20">
    <!-- 59.2 h -->
    <g transform="translate(330.854076 102.359782) scale(0.12 -0.12)">
     <defs>
      <path id="Calibri-Bold-32" d="M 2988 334 
Q 2988 244 2980 180 
Q 2972 116 2956 75 
Q 2941 34 2916 17 
Q 2891 0 2859 0 
L 534 0 
Q 466 0 416 12 
Q 366 25 334 61 
Q 303 97 289 165 
Q 275 234 275 344 
Q 275 447 284 520 
Q 294 594 319 651 
Q 344 709 383 764 
Q 422 819 484 884 
L 1184 1634 
Q 1394 1853 1522 2033 
Q 1650 2213 1722 2361 
Q 1794 2509 1820 2634 
Q 1847 2759 1847 2872 
Q 1847 2975 1814 3067 
Q 1781 3159 1717 3228 
Q 1653 3297 1556 3336 
Q 1459 3375 1328 3375 
Q 1144 3375 1001 3328 
Q 859 3281 751 3223 
Q 644 3166 572 3117 
Q 500 3069 459 3069 
Q 431 3069 411 3087 
Q 391 3106 378 3150 
Q 366 3194 358 3267 
Q 350 3341 350 3447 
Q 350 3519 354 3567 
Q 359 3616 368 3652 
Q 378 3688 393 3714 
Q 409 3741 448 3778 
Q 488 3816 592 3873 
Q 697 3931 850 3986 
Q 1003 4041 1187 4078 
Q 1372 4116 1572 4116 
Q 1888 4116 2123 4036 
Q 2359 3956 2515 3814 
Q 2672 3672 2748 3476 
Q 2825 3281 2825 3056 
Q 2825 2859 2787 2668 
Q 2750 2478 2631 2258 
Q 2513 2038 2297 1770 
Q 2081 1503 1725 1150 
L 1253 666 
L 2847 666 
Q 2878 666 2904 647 
Q 2931 628 2950 589 
Q 2969 550 2978 486 
Q 2988 422 2988 334 
z
" transform="scale(0.015625)"/>
     </defs>
     <use xlink:href="#Calibri-Bold-35"/>
     <use xlink:href="#Calibri-Bold-39" transform="translate(50.683594 0)"/>
     <use xlink:href="#Calibri-Bold-2e" transform="translate(101.367188 0)"/>
     <use xlink:href="#Calibri-Bold-32" transform="translate(128.076172 0)"/>
     <use xlink:href="#Calibri-Bold-20" transform="translate(178.759766 0)"/>
     <use xlink:href="#Calibri-Bold-68" transform="translate(201.367188 0)"/>
    </g>
   </g>
   <g id="text_21">
    <!-- 59.9 h -->
    <g transform="translate(453.733279 110.589214) scale(0.12 -0.12)">
     <use xlink:href="#Calibri-Bold-35"/>
     <use xlink:href="#Calibri-Bold-39" transform="translate(50.683594 0)"/>
     <use xlink:href="#Calibri-Bold-2e" transform="translate(101.367188 0)"/>
     <use xlink:href="#Calibri-Bold-39" transform="translate(128.076172 0)"/>
     <use xlink:href="#Calibri-Bold-20" transform="translate(178.759766 0)"/>
     <use xlink:href="#Calibri-Bold-68" transform="translate(201.367188 0)"/>
    </g>
   </g>
   <g id="text_22">
    <!-- 9.2 h -->
    <g transform="translate(233.13438 84.364579) scale(0.12 -0.12)">
     <use xlink:href="#Calibri-Bold-39"/>
     <use xlink:href="#Calibri-Bold-2e" transform="translate(50.683594 0)"/>
     <use xlink:href="#Calibri-Bold-32" transform="translate(77.392578 0)"/>
     <use xlink:href="#Calibri-Bold-20" transform="translate(128.076172 0)"/>
     <use xlink:href="#Calibri-Bold-68" transform="translate(150.683594 0)"/>
    </g>
   </g>
   <g id="text_23">
    <!-- 9.2 h -->
    <g transform="translate(356.013583 83.542972) scale(0.12 -0.12)">
     <use xlink:href="#Calibri-Bold-39"/>
     <use xlink:href="#Calibri-Bold-2e" transform="translate(50.683594 0)"/>
     <use xlink:href="#Calibri-Bold-32" transform="translate(77.392578 0)"/>
     <use xlink:href="#Calibri-Bold-20" transform="translate(128.076172 0)"/>
     <use xlink:href="#Calibri-Bold-68" transform="translate(150.683594 0)"/>
    </g>
   </g>
   <g id="text_24">
    <!-- 9.2 h -->
    <g transform="translate(478.892786 82.046712) scale(0.12 -0.12)">
     <use xlink:href="#Calibri-Bold-39"/>
     <use xlink:href="#Calibri-Bold-2e" transform="translate(50.683594 0)"/>
     <use xlink:href="#Calibri-Bold-32" transform="translate(77.392578 0)"/>
     <use xlink:href="#Calibri-Bold-20" transform="translate(128.076172 0)"/>
     <use xlink:href="#Calibri-Bold-68" transform="translate(150.683594 0)"/>
    </g>
   </g>
   <g id="text_25">
    <!-- 9.1 h -->
    <g transform="translate(255.252636 87.170068) scale(0.12 -0.12)">
     <use xlink:href="#Calibri-Bold-39"/>
     <use xlink:href="#Calibri-Bold-2e" transform="translate(50.683594 0)"/>
     <use xlink:href="#Calibri-Bold-31" transform="translate(77.392578 0)"/>
     <use xlink:href="#Calibri-Bold-20" transform="translate(128.076172 0)"/>
     <use xlink:href="#Calibri-Bold-68" transform="translate(150.683594 0)"/>
    </g>
   </g>
   <g id="text_26">
    <!-- 9.0 h -->
    <g transform="translate(378.131839 87.891479) scale(0.12 -0.12)">
     <use xlink:href="#Calibri-Bold-39"/>
     <use xlink:href="#Calibri-Bold-2e" transform="translate(50.683594 0)"/>
     <use xlink:href="#Calibri-Bold-30" transform="translate(77.392578 0)"/>
     <use xlink:href="#Calibri-Bold-20" transform="translate(128.076172 0)"/>
     <use xlink:href="#Calibri-Bold-68" transform="translate(150.683594 0)"/>
    </g>
   </g>
   <g id="text_27">
    <!-- 9.0 h -->
    <g transform="translate(501.011042 88.138629) scale(0.12 -0.12)">
     <use xlink:href="#Calibri-Bold-39"/>
     <use xlink:href="#Calibri-Bold-2e" transform="translate(50.683594 0)"/>
     <use xlink:href="#Calibri-Bold-30" transform="translate(77.392578 0)"/>
     <use xlink:href="#Calibri-Bold-20" transform="translate(128.076172 0)"/>
     <use xlink:href="#Calibri-Bold-68" transform="translate(150.683594 0)"/>
    </g>
   </g>
   <g id="legend_1">
    <g id="patch_21">
     <path d="M 65.99625 31.041538 
L 93.99625 31.041538 
L 93.99625 21.241538 
L 65.99625 21.241538 
z
" style="fill: #ff7f0e; opacity: 0.9"/>
    </g>
    <g id="text_28">
     <!-- LDES – Baseline -->
     <g transform="translate(105.19625 31.041538) scale(0.14 -0.14)">
      <defs>
       <path id="Calibri-4c" d="M 2634 234 
Q 2634 172 2628 130 
Q 2622 88 2608 58 
Q 2594 28 2573 14 
Q 2553 0 2525 0 
L 738 0 
Q 666 0 602 48 
Q 538 97 538 219 
L 538 3963 
Q 538 3988 550 4006 
Q 563 4025 594 4036 
Q 625 4047 678 4055 
Q 731 4063 806 4063 
Q 884 4063 936 4055 
Q 988 4047 1019 4036 
Q 1050 4025 1062 4006 
Q 1075 3988 1075 3963 
L 1075 466 
L 2525 466 
Q 2553 466 2573 452 
Q 2594 438 2608 411 
Q 2622 384 2628 340 
Q 2634 297 2634 234 
z
" transform="scale(0.015625)"/>
       <path id="Calibri-44" d="M 3647 2081 
Q 3647 1556 3512 1164 
Q 3378 772 3120 514 
Q 2863 256 2488 128 
Q 2113 0 1594 0 
L 738 0 
Q 666 0 602 48 
Q 538 97 538 219 
L 538 3825 
Q 538 3947 602 3995 
Q 666 4044 738 4044 
L 1653 4044 
Q 2178 4044 2540 3908 
Q 2903 3772 3148 3517 
Q 3394 3263 3520 2900 
Q 3647 2538 3647 2081 
z
M 3081 2059 
Q 3081 2388 3000 2670 
Q 2919 2953 2745 3159 
Q 2572 3366 2306 3481 
Q 2041 3597 1622 3597 
L 1075 3597 
L 1075 450 
L 1628 450 
Q 2016 450 2281 547 
Q 2547 644 2725 844 
Q 2903 1044 2992 1345 
Q 3081 1647 3081 2059 
z
" transform="scale(0.015625)"/>
       <path id="Calibri-45" d="M 2788 222 
Q 2788 166 2781 123 
Q 2775 81 2759 53 
Q 2744 25 2723 12 
Q 2703 0 2678 0 
L 738 0 
Q 666 0 602 48 
Q 538 97 538 219 
L 538 3825 
Q 538 3947 602 3995 
Q 666 4044 738 4044 
L 2656 4044 
Q 2681 4044 2701 4031 
Q 2722 4019 2734 3991 
Q 2747 3963 2755 3920 
Q 2763 3878 2763 3816 
Q 2763 3759 2755 3717 
Q 2747 3675 2734 3648 
Q 2722 3622 2701 3609 
Q 2681 3597 2656 3597 
L 1075 3597 
L 1075 2328 
L 2431 2328 
Q 2456 2328 2476 2314 
Q 2497 2300 2511 2275 
Q 2525 2250 2531 2206 
Q 2538 2163 2538 2103 
Q 2538 2047 2531 2006 
Q 2525 1966 2511 1941 
Q 2497 1916 2476 1905 
Q 2456 1894 2431 1894 
L 1075 1894 
L 1075 447 
L 2678 447 
Q 2703 447 2723 434 
Q 2744 422 2759 395 
Q 2775 369 2781 326 
Q 2788 284 2788 222 
z
" transform="scale(0.015625)"/>
       <path id="Calibri-53" d="M 2709 1134 
Q 2709 850 2604 628 
Q 2500 406 2314 251 
Q 2128 97 1876 19 
Q 1625 -59 1334 -59 
Q 1131 -59 957 -25 
Q 784 9 648 59 
Q 513 109 420 162 
Q 328 216 292 253 
Q 256 291 239 348 
Q 222 406 222 503 
Q 222 572 228 617 
Q 234 663 246 691 
Q 259 719 278 730 
Q 297 741 322 741 
Q 366 741 445 687 
Q 525 634 650 571 
Q 775 509 951 454 
Q 1128 400 1359 400 
Q 1534 400 1679 447 
Q 1825 494 1929 580 
Q 2034 666 2090 791 
Q 2147 916 2147 1075 
Q 2147 1247 2069 1369 
Q 1991 1491 1862 1583 
Q 1734 1675 1570 1751 
Q 1406 1828 1234 1908 
Q 1063 1988 900 2084 
Q 738 2181 609 2312 
Q 481 2444 401 2620 
Q 322 2797 322 3044 
Q 322 3297 414 3495 
Q 506 3694 670 3828 
Q 834 3963 1061 4033 
Q 1288 4103 1550 4103 
Q 1684 4103 1820 4079 
Q 1956 4056 2076 4017 
Q 2197 3978 2290 3929 
Q 2384 3881 2414 3851 
Q 2444 3822 2453 3805 
Q 2463 3788 2469 3761 
Q 2475 3734 2478 3696 
Q 2481 3659 2481 3600 
Q 2481 3544 2476 3500 
Q 2472 3456 2462 3426 
Q 2453 3397 2436 3383 
Q 2419 3369 2397 3369 
Q 2363 3369 2289 3412 
Q 2216 3456 2109 3511 
Q 2003 3566 1858 3611 
Q 1713 3656 1531 3656 
Q 1363 3656 1238 3611 
Q 1113 3566 1031 3491 
Q 950 3416 909 3312 
Q 869 3209 869 3094 
Q 869 2925 947 2803 
Q 1025 2681 1154 2587 
Q 1284 2494 1450 2416 
Q 1616 2338 1787 2258 
Q 1959 2178 2125 2083 
Q 2291 1988 2420 1858 
Q 2550 1728 2629 1551 
Q 2709 1375 2709 1134 
z
" transform="scale(0.015625)"/>
       <path id="Calibri-20" transform="scale(0.015625)"/>
       <path id="Calibri-2013" d="M 3206 1769 
Q 3206 1650 3176 1595 
Q 3147 1541 3088 1541 
L 84 1541 
Q 25 1541 -3 1595 
Q -31 1650 -31 1769 
Q -31 1884 -3 1939 
Q 25 1994 84 1994 
L 3088 1994 
Q 3116 1994 3139 1980 
Q 3163 1966 3177 1939 
Q 3191 1913 3198 1870 
Q 3206 1828 3206 1769 
z
" transform="scale(0.015625)"/>
       <path id="Calibri-42" d="M 3203 1159 
Q 3203 969 3154 808 
Q 3106 647 3018 519 
Q 2931 391 2807 294 
Q 2684 197 2529 131 
Q 2375 66 2198 33 
Q 2022 0 1794 0 
L 738 0 
Q 666 0 602 48 
Q 538 97 538 219 
L 538 3825 
Q 538 3947 602 3995 
Q 666 4044 738 4044 
L 1656 4044 
Q 2019 4044 2250 3975 
Q 2481 3906 2636 3775 
Q 2791 3644 2869 3453 
Q 2947 3263 2947 3022 
Q 2947 2878 2912 2747 
Q 2878 2616 2811 2505 
Q 2744 2394 2642 2306 
Q 2541 2219 2409 2163 
Q 2575 2131 2719 2048 
Q 2863 1966 2970 1837 
Q 3078 1709 3140 1537 
Q 3203 1366 3203 1159 
z
M 2394 2969 
Q 2394 3116 2353 3234 
Q 2313 3353 2225 3436 
Q 2138 3519 1997 3562 
Q 1856 3606 1625 3606 
L 1069 3606 
L 1069 2297 
L 1681 2297 
Q 1891 2297 2019 2351 
Q 2147 2406 2231 2498 
Q 2316 2591 2355 2714 
Q 2394 2838 2394 2969 
z
M 2638 1128 
Q 2638 1309 2580 1446 
Q 2522 1584 2411 1678 
Q 2300 1772 2133 1820 
Q 1966 1869 1713 1869 
L 1069 1869 
L 1069 444 
L 1850 444 
Q 2034 444 2171 487 
Q 2309 531 2414 617 
Q 2519 703 2578 831 
Q 2638 959 2638 1128 
z
" transform="scale(0.015625)"/>
       <path id="Calibri-61" d="M 2597 75 
Q 2597 38 2572 19 
Q 2547 0 2503 -9 
Q 2459 -19 2375 -19 
Q 2294 -19 2245 -9 
Q 2197 0 2175 19 
Q 2153 38 2153 75 
L 2153 356 
Q 1969 159 1742 50 
Q 1516 -59 1263 -59 
Q 1041 -59 861 -1 
Q 681 56 554 165 
Q 428 275 358 434 
Q 288 594 288 797 
Q 288 1034 384 1209 
Q 481 1384 662 1500 
Q 844 1616 1106 1673 
Q 1369 1731 1697 1731 
L 2084 1731 
L 2084 1950 
Q 2084 2113 2050 2238 
Q 2016 2363 1939 2445 
Q 1863 2528 1741 2570 
Q 1619 2613 1441 2613 
Q 1250 2613 1098 2567 
Q 947 2522 833 2467 
Q 719 2413 642 2367 
Q 566 2322 528 2322 
Q 503 2322 484 2334 
Q 466 2347 452 2372 
Q 438 2397 431 2436 
Q 425 2475 425 2522 
Q 425 2600 436 2645 
Q 447 2691 489 2731 
Q 531 2772 634 2826 
Q 738 2881 872 2926 
Q 1006 2972 1165 3001 
Q 1325 3031 1488 3031 
Q 1791 3031 2003 2962 
Q 2216 2894 2347 2761 
Q 2478 2628 2537 2431 
Q 2597 2234 2597 1972 
L 2597 75 
z
M 2084 1359 
L 1644 1359 
Q 1431 1359 1275 1323 
Q 1119 1288 1016 1217 
Q 913 1147 864 1048 
Q 816 950 816 822 
Q 816 603 955 473 
Q 1094 344 1344 344 
Q 1547 344 1720 447 
Q 1894 550 2084 763 
L 2084 1359 
z
" transform="scale(0.015625)"/>
       <path id="Calibri-73" d="M 2244 844 
Q 2244 628 2164 459 
Q 2084 291 1937 175 
Q 1791 59 1587 0 
Q 1384 -59 1141 -59 
Q 991 -59 855 -36 
Q 719 -13 611 23 
Q 503 59 428 98 
Q 353 138 318 169 
Q 284 200 268 256 
Q 253 313 253 409 
Q 253 469 259 509 
Q 266 550 275 575 
Q 284 600 301 611 
Q 319 622 341 622 
Q 375 622 442 580 
Q 509 538 607 488 
Q 706 438 840 395 
Q 975 353 1150 353 
Q 1281 353 1387 381 
Q 1494 409 1572 464 
Q 1650 519 1692 603 
Q 1734 688 1734 803 
Q 1734 922 1673 1003 
Q 1613 1084 1513 1146 
Q 1413 1209 1288 1257 
Q 1163 1306 1030 1359 
Q 897 1413 770 1480 
Q 644 1547 544 1644 
Q 444 1741 383 1875 
Q 322 2009 322 2197 
Q 322 2363 386 2514 
Q 450 2666 578 2780 
Q 706 2894 898 2962 
Q 1091 3031 1347 3031 
Q 1459 3031 1571 3012 
Q 1684 2994 1775 2966 
Q 1866 2938 1930 2905 
Q 1994 2872 2026 2847 
Q 2059 2822 2070 2803 
Q 2081 2784 2086 2761 
Q 2091 2738 2095 2703 
Q 2100 2669 2100 2619 
Q 2100 2566 2095 2527 
Q 2091 2488 2080 2463 
Q 2069 2438 2053 2427 
Q 2038 2416 2019 2416 
Q 1991 2416 1937 2450 
Q 1884 2484 1800 2523 
Q 1716 2563 1602 2597 
Q 1488 2631 1341 2631 
Q 1209 2631 1109 2601 
Q 1009 2572 945 2517 
Q 881 2463 848 2388 
Q 816 2313 816 2225 
Q 816 2103 878 2020 
Q 941 1938 1041 1875 
Q 1141 1813 1269 1763 
Q 1397 1713 1530 1659 
Q 1663 1606 1792 1540 
Q 1922 1475 2022 1381 
Q 2122 1288 2183 1156 
Q 2244 1025 2244 844 
z
" transform="scale(0.015625)"/>
       <path id="Calibri-65" d="M 2878 1606 
Q 2878 1484 2817 1432 
Q 2756 1381 2678 1381 
L 834 1381 
Q 834 1147 881 959 
Q 928 772 1037 637 
Q 1147 503 1322 431 
Q 1497 359 1750 359 
Q 1950 359 2106 392 
Q 2263 425 2377 465 
Q 2491 506 2564 539 
Q 2638 572 2675 572 
Q 2697 572 2714 561 
Q 2731 550 2740 528 
Q 2750 506 2754 467 
Q 2759 428 2759 372 
Q 2759 331 2756 301 
Q 2753 272 2748 248 
Q 2744 225 2733 206 
Q 2722 188 2705 170 
Q 2688 153 2603 114 
Q 2519 75 2384 37 
Q 2250 0 2073 -29 
Q 1897 -59 1697 -59 
Q 1350 -59 1089 37 
Q 828 134 650 325 
Q 472 516 381 803 
Q 291 1091 291 1472 
Q 291 1834 384 2123 
Q 478 2413 654 2614 
Q 831 2816 1081 2923 
Q 1331 3031 1641 3031 
Q 1972 3031 2205 2925 
Q 2438 2819 2588 2639 
Q 2738 2459 2808 2217 
Q 2878 1975 2878 1700 
L 2878 1606 
z
M 2359 1759 
Q 2369 2166 2180 2397 
Q 1991 2628 1619 2628 
Q 1428 2628 1284 2556 
Q 1141 2484 1044 2365 
Q 947 2247 894 2089 
Q 841 1931 834 1759 
L 2359 1759 
z
" transform="scale(0.015625)"/>
       <path id="Calibri-6c" d="M 994 78 
Q 994 53 981 36 
Q 969 19 941 6 
Q 913 -6 863 -12 
Q 813 -19 734 -19 
Q 659 -19 609 -12 
Q 559 -6 529 6 
Q 500 19 489 36 
Q 478 53 478 78 
L 478 4253 
Q 478 4278 489 4297 
Q 500 4316 529 4328 
Q 559 4341 609 4347 
Q 659 4353 734 4353 
Q 813 4353 863 4347 
Q 913 4341 941 4328 
Q 969 4316 981 4297 
Q 994 4278 994 4253 
L 994 78 
z
" transform="scale(0.015625)"/>
       <path id="Calibri-69" d="M 994 78 
Q 994 53 981 36 
Q 969 19 941 6 
Q 913 -6 863 -12 
Q 813 -19 734 -19 
Q 659 -19 609 -12 
Q 559 -6 529 6 
Q 500 19 489 36 
Q 478 53 478 78 
L 478 2891 
Q 478 2913 489 2931 
Q 500 2950 529 2962 
Q 559 2975 609 2981 
Q 659 2988 734 2988 
Q 813 2988 863 2981 
Q 913 2975 941 2962 
Q 969 2950 981 2931 
Q 994 2913 994 2891 
L 994 78 
z
M 1053 3841 
Q 1053 3659 984 3593 
Q 916 3528 731 3528 
Q 550 3528 483 3592 
Q 416 3656 416 3834 
Q 416 4016 484 4081 
Q 553 4147 738 4147 
Q 919 4147 986 4083 
Q 1053 4019 1053 3841 
z
" transform="scale(0.015625)"/>
       <path id="Calibri-6e" d="M 2900 78 
Q 2900 53 2887 36 
Q 2875 19 2847 6 
Q 2819 -6 2769 -12 
Q 2719 -19 2644 -19 
Q 2566 -19 2516 -12 
Q 2466 -6 2437 6 
Q 2409 19 2396 36 
Q 2384 53 2384 78 
L 2384 1725 
Q 2384 1966 2346 2112 
Q 2309 2259 2237 2365 
Q 2166 2472 2052 2528 
Q 1938 2584 1788 2584 
Q 1594 2584 1400 2446 
Q 1206 2309 994 2044 
L 994 78 
Q 994 53 981 36 
Q 969 19 941 6 
Q 913 -6 863 -12 
Q 813 -19 734 -19 
Q 659 -19 609 -12 
Q 559 -6 529 6 
Q 500 19 489 36 
Q 478 53 478 78 
L 478 2891 
Q 478 2916 487 2933 
Q 497 2950 525 2964 
Q 553 2978 597 2983 
Q 641 2988 713 2988 
Q 781 2988 826 2983 
Q 872 2978 897 2964 
Q 922 2950 933 2933 
Q 944 2916 944 2891 
L 944 2519 
Q 1181 2784 1417 2907 
Q 1653 3031 1894 3031 
Q 2175 3031 2367 2936 
Q 2559 2841 2678 2681 
Q 2797 2522 2848 2308 
Q 2900 2094 2900 1794 
L 2900 78 
z
" transform="scale(0.015625)"/>
      </defs>
      <use xlink:href="#Calibri-4c"/>
      <use xlink:href="#Calibri-44" transform="translate(42.041016 0)"/>
      <use xlink:href="#Calibri-45" transform="translate(103.564453 0)"/>
      <use xlink:href="#Calibri-53" transform="translate(151.392578 0)"/>
      <use xlink:href="#Calibri-20" transform="translate(197.339844 0)"/>
      <use xlink:href="#Calibri-2013" transform="translate(219.947266 0)"/>
      <use xlink:href="#Calibri-20" transform="translate(269.751953 0)"/>
      <use xlink:href="#Calibri-42" transform="translate(292.359375 0)"/>
      <use xlink:href="#Calibri-61" transform="translate(346.753906 0)"/>
      <use xlink:href="#Calibri-73" transform="translate(394.654297 0)"/>
      <use xlink:href="#Calibri-65" transform="translate(433.765625 0)"/>
      <use xlink:href="#Calibri-6c" transform="translate(483.521484 0)"/>
      <use xlink:href="#Calibri-69" transform="translate(506.470703 0)"/>
      <use xlink:href="#Calibri-6e" transform="translate(529.419922 0)"/>
      <use xlink:href="#Calibri-65" transform="translate(581.958984 0)"/>
     </g>
    </g>
    <g id="patch_22">
     <path d="M 65.99625 50.330913 
L 93.99625 50.330913 
L 93.99625 40.530913 
L 65.99625 40.530913 
z
" style="fill: #17becf; opacity: 0.9"/>
    </g>
    <g id="text_29">
     <!-- BESS – Baseline -->
     <g transform="translate(105.19625 50.330913) scale(0.14 -0.14)">
      <use xlink:href="#Calibri-42"/>
      <use xlink:href="#Calibri-45" transform="translate(54.394531 0)"/>
      <use xlink:href="#Calibri-53" transform="translate(102.222656 0)"/>
      <use xlink:href="#Calibri-53" transform="translate(148.169922 0)"/>
      <use xlink:href="#Calibri-20" transform="translate(194.117188 0)"/>
      <use xlink:href="#Calibri-2013" transform="translate(216.724609 0)"/>
      <use xlink:href="#Calibri-20" transform="translate(266.529297 0)"/>
      <use xlink:href="#Calibri-42" transform="translate(289.136719 0)"/>
      <use xlink:href="#Calibri-61" transform="translate(343.53125 0)"/>
      <use xlink:href="#Calibri-73" transform="translate(391.431641 0)"/>
      <use xlink:href="#Calibri-65" transform="translate(430.542969 0)"/>
      <use xlink:href="#Calibri-6c" transform="translate(480.298828 0)"/>
      <use xlink:href="#Calibri-69" transform="translate(503.248047 0)"/>
      <use xlink:href="#Calibri-6e" transform="translate(526.197266 0)"/>
      <use xlink:href="#Calibri-65" transform="translate(578.736328 0)"/>
     </g>
    </g>
    <g id="patch_23">
     <path d="M 65.99625 69.620288 
L 93.99625 69.620288 
L 93.99625 59.820288 
L 65.99625 59.820288 
z
" style="fill: #ff7f0e; opacity: 0.9"/>
    </g>
    <g id="text_30">
     <!-- LDES – Complete -->
     <g transform="translate(105.19625 69.620288) scale(0.14 -0.14)">
      <defs>
       <path id="Calibri-43" d="M 3238 572 
Q 3238 522 3234 484 
Q 3231 447 3223 419 
Q 3216 391 3203 369 
Q 3191 347 3159 315 
Q 3128 284 3028 220 
Q 2928 156 2779 95 
Q 2631 34 2439 -8 
Q 2247 -50 2019 -50 
Q 1625 -50 1308 81 
Q 991 213 767 469 
Q 544 725 423 1101 
Q 303 1478 303 1969 
Q 303 2472 433 2865 
Q 563 3259 797 3532 
Q 1031 3806 1357 3950 
Q 1684 4094 2081 4094 
Q 2256 4094 2422 4061 
Q 2588 4028 2728 3978 
Q 2869 3928 2978 3862 
Q 3088 3797 3130 3755 
Q 3172 3713 3184 3691 
Q 3197 3669 3205 3639 
Q 3213 3609 3217 3568 
Q 3222 3528 3222 3472 
Q 3222 3409 3215 3365 
Q 3209 3322 3196 3292 
Q 3184 3263 3167 3248 
Q 3150 3234 3125 3234 
Q 3081 3234 3003 3295 
Q 2925 3356 2801 3429 
Q 2678 3503 2501 3564 
Q 2325 3625 2078 3625 
Q 1809 3625 1589 3517 
Q 1369 3409 1212 3200 
Q 1056 2991 970 2689 
Q 884 2388 884 2000 
Q 884 1616 967 1320 
Q 1050 1025 1204 826 
Q 1359 628 1584 526 
Q 1809 425 2094 425 
Q 2334 425 2514 484 
Q 2694 544 2820 617 
Q 2947 691 3028 750 
Q 3109 809 3156 809 
Q 3178 809 3193 800 
Q 3209 791 3218 764 
Q 3228 738 3233 691 
Q 3238 644 3238 572 
z
" transform="scale(0.015625)"/>
       <path id="Calibri-6f" d="M 3094 1516 
Q 3094 1172 3003 883 
Q 2913 594 2733 384 
Q 2553 175 2283 58 
Q 2013 -59 1656 -59 
Q 1309 -59 1051 44 
Q 794 147 622 344 
Q 450 541 365 822 
Q 281 1103 281 1459 
Q 281 1803 370 2092 
Q 459 2381 639 2590 
Q 819 2800 1087 2915 
Q 1356 3031 1716 3031 
Q 2063 3031 2320 2928 
Q 2578 2825 2750 2628 
Q 2922 2431 3008 2150 
Q 3094 1869 3094 1516 
z
M 2550 1481 
Q 2550 1709 2508 1912 
Q 2466 2116 2369 2269 
Q 2272 2422 2106 2511 
Q 1941 2600 1694 2600 
Q 1466 2600 1302 2519 
Q 1138 2438 1031 2289 
Q 925 2141 873 1937 
Q 822 1734 822 1494 
Q 822 1263 864 1059 
Q 906 856 1004 704 
Q 1103 553 1268 464 
Q 1434 375 1681 375 
Q 1906 375 2072 456 
Q 2238 538 2344 684 
Q 2450 831 2500 1034 
Q 2550 1238 2550 1481 
z
" transform="scale(0.015625)"/>
       <path id="Calibri-6d" d="M 4650 78 
Q 4650 53 4637 36 
Q 4625 19 4597 6 
Q 4569 -6 4519 -12 
Q 4469 -19 4394 -19 
Q 4316 -19 4266 -12 
Q 4216 -6 4186 6 
Q 4156 19 4143 36 
Q 4131 53 4131 78 
L 4131 1788 
Q 4131 1966 4100 2112 
Q 4069 2259 4000 2365 
Q 3931 2472 3825 2528 
Q 3719 2584 3575 2584 
Q 3397 2584 3217 2446 
Q 3038 2309 2822 2044 
L 2822 78 
Q 2822 53 2809 36 
Q 2797 19 2767 6 
Q 2738 -6 2688 -12 
Q 2638 -19 2563 -19 
Q 2491 -19 2439 -12 
Q 2388 -6 2358 6 
Q 2328 19 2317 36 
Q 2306 53 2306 78 
L 2306 1788 
Q 2306 1966 2272 2112 
Q 2238 2259 2169 2365 
Q 2100 2472 1995 2528 
Q 1891 2584 1747 2584 
Q 1569 2584 1387 2446 
Q 1206 2309 994 2044 
L 994 78 
Q 994 53 981 36 
Q 969 19 941 6 
Q 913 -6 863 -12 
Q 813 -19 734 -19 
Q 659 -19 609 -12 
Q 559 -6 529 6 
Q 500 19 489 36 
Q 478 53 478 78 
L 478 2891 
Q 478 2916 487 2933 
Q 497 2950 525 2964 
Q 553 2978 597 2983 
Q 641 2988 713 2988 
Q 781 2988 826 2983 
Q 872 2978 897 2964 
Q 922 2950 933 2933 
Q 944 2916 944 2891 
L 944 2519 
Q 1181 2784 1404 2907 
Q 1628 3031 1856 3031 
Q 2031 3031 2170 2990 
Q 2309 2950 2415 2876 
Q 2522 2803 2597 2701 
Q 2672 2600 2722 2475 
Q 2863 2628 2989 2734 
Q 3116 2841 3233 2906 
Q 3350 2972 3461 3001 
Q 3572 3031 3684 3031 
Q 3956 3031 4140 2936 
Q 4325 2841 4439 2681 
Q 4553 2522 4601 2308 
Q 4650 2094 4650 1856 
L 4650 78 
z
" transform="scale(0.015625)"/>
       <path id="Calibri-70" d="M 3066 1528 
Q 3066 1159 2986 865 
Q 2906 572 2751 367 
Q 2597 163 2369 52 
Q 2141 -59 1847 -59 
Q 1722 -59 1615 -34 
Q 1509 -9 1407 44 
Q 1306 97 1206 178 
Q 1106 259 994 369 
L 994 -1038 
Q 994 -1063 981 -1081 
Q 969 -1100 941 -1112 
Q 913 -1125 863 -1131 
Q 813 -1138 734 -1138 
Q 659 -1138 609 -1131 
Q 559 -1125 529 -1112 
Q 500 -1100 489 -1081 
Q 478 -1063 478 -1038 
L 478 2891 
Q 478 2919 487 2936 
Q 497 2953 525 2965 
Q 553 2978 597 2983 
Q 641 2988 703 2988 
Q 769 2988 811 2983 
Q 853 2978 881 2965 
Q 909 2953 920 2936 
Q 931 2919 931 2891 
L 931 2513 
Q 1059 2644 1178 2741 
Q 1297 2838 1417 2902 
Q 1538 2966 1664 2998 
Q 1791 3031 1931 3031 
Q 2238 3031 2453 2912 
Q 2669 2794 2805 2587 
Q 2941 2381 3003 2107 
Q 3066 1834 3066 1528 
z
M 2522 1469 
Q 2522 1684 2489 1886 
Q 2456 2088 2376 2244 
Q 2297 2400 2162 2494 
Q 2028 2588 1828 2588 
Q 1728 2588 1631 2558 
Q 1534 2528 1434 2464 
Q 1334 2400 1225 2295 
Q 1116 2191 994 2038 
L 994 919 
Q 1206 659 1397 521 
Q 1588 384 1797 384 
Q 1991 384 2130 478 
Q 2269 572 2355 728 
Q 2441 884 2481 1078 
Q 2522 1272 2522 1469 
z
" transform="scale(0.015625)"/>
       <path id="Calibri-74" d="M 1941 284 
Q 1941 194 1928 141 
Q 1916 88 1891 63 
Q 1866 38 1816 16 
Q 1766 -6 1702 -20 
Q 1638 -34 1566 -43 
Q 1494 -53 1422 -53 
Q 1203 -53 1047 5 
Q 891 63 791 180 
Q 691 297 645 476 
Q 600 656 600 900 
L 600 2544 
L 206 2544 
Q 159 2544 131 2594 
Q 103 2644 103 2756 
Q 103 2816 111 2856 
Q 119 2897 131 2923 
Q 144 2950 164 2961 
Q 184 2972 209 2972 
L 600 2972 
L 600 3641 
Q 600 3663 611 3681 
Q 622 3700 651 3714 
Q 681 3728 731 3734 
Q 781 3741 856 3741 
Q 934 3741 984 3734 
Q 1034 3728 1062 3714 
Q 1091 3700 1103 3681 
Q 1116 3663 1116 3641 
L 1116 2972 
L 1838 2972 
Q 1863 2972 1881 2961 
Q 1900 2950 1914 2923 
Q 1928 2897 1934 2856 
Q 1941 2816 1941 2756 
Q 1941 2644 1912 2594 
Q 1884 2544 1838 2544 
L 1116 2544 
L 1116 975 
Q 1116 684 1202 536 
Q 1288 388 1509 388 
Q 1581 388 1637 402 
Q 1694 416 1737 431 
Q 1781 447 1812 461 
Q 1844 475 1869 475 
Q 1884 475 1898 467 
Q 1913 459 1920 437 
Q 1928 416 1934 378 
Q 1941 341 1941 284 
z
" transform="scale(0.015625)"/>
      </defs>
      <use xlink:href="#Calibri-4c"/>
      <use xlink:href="#Calibri-44" transform="translate(42.041016 0)"/>
      <use xlink:href="#Calibri-45" transform="translate(103.564453 0)"/>
      <use xlink:href="#Calibri-53" transform="translate(151.392578 0)"/>
      <use xlink:href="#Calibri-20" transform="translate(197.339844 0)"/>
      <use xlink:href="#Calibri-2013" transform="translate(219.947266 0)"/>
      <use xlink:href="#Calibri-20" transform="translate(269.751953 0)"/>
      <use xlink:href="#Calibri-43" transform="translate(292.359375 0)"/>
      <use xlink:href="#Calibri-6f" transform="translate(345.679688 0)"/>
      <use xlink:href="#Calibri-6d" transform="translate(398.414062 0)"/>
      <use xlink:href="#Calibri-70" transform="translate(478.296875 0)"/>
      <use xlink:href="#Calibri-6c" transform="translate(530.835938 0)"/>
      <use xlink:href="#Calibri-65" transform="translate(553.785156 0)"/>
      <use xlink:href="#Calibri-74" transform="translate(603.541016 0)"/>
      <use xlink:href="#Calibri-65" transform="translate(637.037109 0)"/>
     </g>
    </g>
    <g id="patch_24">
     <path d="M 229.354375 31.041538 
L 257.354375 31.041538 
L 257.354375 21.241538 
L 229.354375 21.241538 
z
" style="fill: url(#hc7191b6332); opacity: 0.9"/>
    </g>
    <g id="text_31">
     <!-- LDES – Incomplete -->
     <g transform="translate(268.554375 31.041538) scale(0.14 -0.14)">
      <defs>
       <path id="Calibri-49" d="M 1075 81 
Q 1075 56 1062 37 
Q 1050 19 1019 8 
Q 988 -3 936 -11 
Q 884 -19 806 -19 
Q 731 -19 678 -11 
Q 625 -3 594 8 
Q 563 19 550 37 
Q 538 56 538 81 
L 538 3963 
Q 538 3988 552 4006 
Q 566 4025 598 4036 
Q 631 4047 682 4055 
Q 734 4063 806 4063 
Q 884 4063 936 4055 
Q 988 4047 1019 4036 
Q 1050 4025 1062 4006 
Q 1075 3988 1075 3963 
L 1075 81 
z
" transform="scale(0.015625)"/>
       <path id="Calibri-63" d="M 2500 506 
Q 2500 453 2497 414 
Q 2494 375 2486 348 
Q 2478 322 2467 301 
Q 2456 281 2417 242 
Q 2378 203 2284 145 
Q 2191 88 2073 42 
Q 1956 -3 1818 -31 
Q 1681 -59 1534 -59 
Q 1231 -59 997 41 
Q 763 141 605 333 
Q 447 525 364 804 
Q 281 1084 281 1450 
Q 281 1866 382 2164 
Q 484 2463 661 2653 
Q 838 2844 1077 2936 
Q 1316 3028 1594 3028 
Q 1728 3028 1854 3003 
Q 1981 2978 2087 2937 
Q 2194 2897 2276 2844 
Q 2359 2791 2396 2753 
Q 2434 2716 2448 2694 
Q 2463 2672 2472 2642 
Q 2481 2613 2484 2575 
Q 2488 2538 2488 2481 
Q 2488 2359 2459 2311 
Q 2431 2263 2391 2263 
Q 2344 2263 2283 2314 
Q 2222 2366 2128 2428 
Q 2034 2491 1901 2542 
Q 1769 2594 1588 2594 
Q 1216 2594 1017 2308 
Q 819 2022 819 1478 
Q 819 1206 870 1001 
Q 922 797 1022 659 
Q 1122 522 1267 455 
Q 1413 388 1600 388 
Q 1778 388 1912 444 
Q 2047 500 2145 567 
Q 2244 634 2311 689 
Q 2378 744 2416 744 
Q 2438 744 2453 731 
Q 2469 719 2480 689 
Q 2491 659 2495 614 
Q 2500 569 2500 506 
z
" transform="scale(0.015625)"/>
      </defs>
      <use xlink:href="#Calibri-4c"/>
      <use xlink:href="#Calibri-44" transform="translate(42.041016 0)"/>
      <use xlink:href="#Calibri-45" transform="translate(103.564453 0)"/>
      <use xlink:href="#Calibri-53" transform="translate(151.392578 0)"/>
      <use xlink:href="#Calibri-20" transform="translate(197.339844 0)"/>
      <use xlink:href="#Calibri-2013" transform="translate(219.947266 0)"/>
      <use xlink:href="#Calibri-20" transform="translate(269.751953 0)"/>
      <use xlink:href="#Calibri-49" transform="translate(292.359375 0)"/>
      <use xlink:href="#Calibri-6e" transform="translate(317.554688 0)"/>
      <use xlink:href="#Calibri-63" transform="translate(370.09375 0)"/>
      <use xlink:href="#Calibri-6f" transform="translate(412.378906 0)"/>
      <use xlink:href="#Calibri-6d" transform="translate(465.113281 0)"/>
      <use xlink:href="#Calibri-70" transform="translate(544.996094 0)"/>
      <use xlink:href="#Calibri-6c" transform="translate(597.535156 0)"/>
      <use xlink:href="#Calibri-65" transform="translate(620.484375 0)"/>
      <use xlink:href="#Calibri-74" transform="translate(670.240234 0)"/>
      <use xlink:href="#Calibri-65" transform="translate(703.736328 0)"/>
     </g>
    </g>
    <g id="patch_25">
     <path d="M 229.354375 50.330913 
L 257.354375 50.330913 
L 257.354375 40.530913 
L 229.354375 40.530913 
z
" style="fill: #17becf; opacity: 0.9"/>
    </g>
    <g id="text_32">
     <!-- BESS – Complete -->
     <g transform="translate(268.554375 50.330913) scale(0.14 -0.14)">
      <use xlink:href="#Calibri-42"/>
      <use xlink:href="#Calibri-45" transform="translate(54.394531 0)"/>
      <use xlink:href="#Calibri-53" transform="translate(102.222656 0)"/>
      <use xlink:href="#Calibri-53" transform="translate(148.169922 0)"/>
      <use xlink:href="#Calibri-20" transform="translate(194.117188 0)"/>
      <use xlink:href="#Calibri-2013" transform="translate(216.724609 0)"/>
      <use xlink:href="#Calibri-20" transform="translate(266.529297 0)"/>
      <use xlink:href="#Calibri-43" transform="translate(289.136719 0)"/>
      <use xlink:href="#Calibri-6f" transform="translate(342.457031 0)"/>
      <use xlink:href="#Calibri-6d" transform="translate(395.191406 0)"/>
      <use xlink:href="#Calibri-70" transform="translate(475.074219 0)"/>
      <use xlink:href="#Calibri-6c" transform="translate(527.613281 0)"/>
      <use xlink:href="#Calibri-65" transform="translate(550.5625 0)"/>
      <use xlink:href="#Calibri-74" transform="translate(600.318359 0)"/>
      <use xlink:href="#Calibri-65" transform="translate(633.814453 0)"/>
     </g>
    </g>
    <g id="patch_26">
     <path d="M 229.354375 69.620288 
L 257.354375 69.620288 
L 257.354375 59.820288 
L 229.354375 59.820288 
z
" style="fill: url(#h2af2f53627); opacity: 0.9"/>
    </g>
    <g id="text_33">
     <!-- BESS – Incomplete -->
     <g transform="translate(268.554375 69.620288) scale(0.14 -0.14)">
      <use xlink:href="#Calibri-42"/>
      <use xlink:href="#Calibri-45" transform="translate(54.394531 0)"/>
      <use xlink:href="#Calibri-53" transform="translate(102.222656 0)"/>
      <use xlink:href="#Calibri-53" transform="translate(148.169922 0)"/>
      <use xlink:href="#Calibri-20" transform="translate(194.117188 0)"/>
      <use xlink:href="#Calibri-2013" transform="translate(216.724609 0)"/>
      <use xlink:href="#Calibri-20" transform="translate(266.529297 0)"/>
      <use xlink:href="#Calibri-49" transform="translate(289.136719 0)"/>
      <use xlink:href="#Calibri-6e" transform="translate(314.332031 0)"/>
      <use xlink:href="#Calibri-63" transform="translate(366.871094 0)"/>
      <use xlink:href="#Calibri-6f" transform="translate(409.15625 0)"/>
      <use xlink:href="#Calibri-6d" transform="translate(461.890625 0)"/>
      <use xlink:href="#Calibri-70" transform="translate(541.773438 0)"/>
      <use xlink:href="#Calibri-6c" transform="translate(594.3125 0)"/>
      <use xlink:href="#Calibri-65" transform="translate(617.261719 0)"/>
      <use xlink:href="#Calibri-74" transform="translate(667.017578 0)"/>
      <use xlink:href="#Calibri-65" transform="translate(700.513672 0)"/>
     </g>
    </g>
   </g>
  </g>
 </g>
 <defs>
  <clipPath id="p794e8ae096">
   <rect x="53.39625" y="8.641538" width="493.36" height="213.715076"/>
  </clipPath>
 </defs>
 <defs>
  <pattern id="hc7191b6332" patternUnits="userSpaceOnUse" x="0" y="0" width="72" height="72">
   <rect x="0" y="0" width="73" height="73" fill="#ff7f0e"/>
   <path d="M -36 36 
L 36 -36 
M -30 42 
L 42 -30 
M -24 48 
L 48 -24 
M -18 54 
L 54 -18 
M -12 60 
L 60 -12 
M -6 66 
L 66 -6 
M 0 72 
L 72 0 
M 6 78 
L 78 6 
M 12 84 
L 84 12 
M 18 90 
L 90 18 
M 24 96 
L 96 24 
M 30 102 
L 102 30 
M 36 108 
L 108 36 
" style="fill: #000000; stroke: #000000; stroke-width: 1.0; stroke-linecap: butt; stroke-linejoin: miter; stroke-opacity: 0.9"/>
  </pattern>
  <pattern id="h2af2f53627" patternUnits="userSpaceOnUse" x="0" y="0" width="72" height="72">
   <rect x="0" y="0" width="73" height="73" fill="#17becf"/>
   <path d="M -36 36 
L 36 -36 
M -30 42 
L 42 -30 
M -24 48 
L 48 -24 
M -18 54 
L 54 -18 
M -12 60 
L 60 -12 
M -6 66 
L 66 -6 
M 0 72 
L 72 0 
M 6 78 
L 78 6 
M 12 84 
L 84 12 
M 18 90 
L 90 18 
M 24 96 
L 96 24 
M 30 102 
L 102 30 
M 36 108 
L 108 36 
" style="fill: #000000; stroke: #000000; stroke-width: 1.0; stroke-linecap: butt; stroke-linejoin: miter; stroke-opacity: 0.9"/>
  </pattern>
 </defs>
</svg>
