<?xml version="1.0" encoding="utf-8" standalone="no"?>
<!DOCTYPE svg PUBLIC "-//W3C//DTD SVG 1.1//EN"
  "http://www.w3.org/Graphics/SVG/1.1/DTD/svg11.dtd">
<svg xmlns:xlink="http://www.w3.org/1999/xlink" width="561.0625pt" height="244.619063pt" viewBox="0 0 561.0625 244.619063" xmlns="http://www.w3.org/2000/svg" version="1.1">
 <metadata>
  <rdf:RDF xmlns:dc="http://purl.org/dc/elements/1.1/" xmlns:cc="http://creativecommons.org/ns#" xmlns:rdf="http://www.w3.org/1999/02/22-rdf-syntax-ns#">
   <cc:Work>
    <dc:type rdf:resource="http://purl.org/dc/dcmitype/StillImage"/>
    <dc:date>2025-09-07T17:12:10.554329</dc:date>
    <dc:format>image/svg+xml</dc:format>
    <dc:creator>
     <cc:Agent>
      <dc:title>Matplotlib v3.10.0, https://matplotlib.org/</dc:title>
     </cc:Agent>
    </dc:creator>
   </cc:Work>
  </rdf:RDF>
 </metadata>
 <defs>
  <style type="text/css">*{stroke-linejoin: round; stroke-linecap: butt}</style>
 </defs>
 <g id="figure_1">
  <g id="patch_1">
   <path d="M 0 244.619063 
L 561.0625 244.619063 
L 561.0625 0 
L 0 0 
z
" style="fill: #ffffff"/>
  </g>
  <g id="axes_1">
   <g id="patch_2">
    <path d="M 46.2825 200.68 
L 553.8625 200.68 
L 553.8625 7.2 
L 46.2825 7.2 
z
" style="fill: #ffffff"/>
   </g>
   <g id="matplotlib.axis_1">
    <g id="xtick_1">
     <g id="line2d_1">
      <path d="M 69.354318 200.68 
L 69.354318 7.2 
" clip-path="url(#p4d0e59dd0b)" style="fill: none; stroke-dasharray: 2.96,1.28; stroke-dashoffset: 0; stroke: #b0b0b0; stroke-opacity: 0.5; stroke-width: 0.8"/>
     </g>
     <g id="line2d_2">
      <defs>
       <path id="md9794bde3c" d="M 0 0 
L 0 3.5 
" style="stroke: #000000; stroke-width: 0.8"/>
      </defs>
      <g>
       <use xlink:href="#md9794bde3c" x="69.354318" y="200.68" style="stroke: #000000; stroke-width: 0.8"/>
      </g>
     </g>
     <g id="text_1">
      <!-- 1.00 -->
      <g transform="translate(56.942443 217.202188) scale(0.14 -0.14)">
       <defs>
        <path id="Calibri-31" d="M 2897 213 
Q 2897 153 2887 112 
Q 2878 72 2862 47 
Q 2847 22 2826 11 
Q 2806 0 2784 0 
L 672 0 
Q 650 0 631 11 
Q 613 22 595 47 
Q 578 72 568 112 
Q 559 153 559 213 
Q 559 269 568 309 
Q 578 350 592 376 
Q 606 403 626 417 
Q 647 431 672 431 
L 1516 431 
L 1516 3506 
L 734 3041 
Q 675 3009 639 3003 
Q 603 2997 581 3017 
Q 559 3038 551 3084 
Q 544 3131 544 3203 
Q 544 3256 548 3293 
Q 553 3331 562 3356 
Q 572 3381 589 3400 
Q 606 3419 634 3438 
L 1566 4034 
Q 1578 4044 1597 4050 
Q 1616 4056 1644 4062 
Q 1672 4069 1709 4070 
Q 1747 4072 1803 4072 
Q 1878 4072 1928 4065 
Q 1978 4059 2006 4048 
Q 2034 4038 2043 4020 
Q 2053 4003 2053 3984 
L 2053 431 
L 2784 431 
Q 2809 431 2831 417 
Q 2853 403 2867 376 
Q 2881 350 2889 309 
Q 2897 269 2897 213 
z
" transform="scale(0.015625)"/>
        <path id="Calibri-2e" d="M 1144 341 
Q 1144 119 1070 45 
Q 997 -28 803 -28 
Q 616 -28 544 44 
Q 472 116 472 331 
Q 472 553 545 626 
Q 619 700 813 700 
Q 1000 700 1072 628 
Q 1144 556 1144 341 
z
" transform="scale(0.015625)"/>
        <path id="Calibri-30" d="M 3022 2031 
Q 3022 1566 2948 1181 
Q 2875 797 2704 520 
Q 2534 244 2259 92 
Q 1984 -59 1581 -59 
Q 1200 -59 939 77 
Q 678 213 518 477 
Q 359 741 292 1127 
Q 225 1513 225 2013 
Q 225 2475 300 2861 
Q 375 3247 544 3523 
Q 713 3800 988 3951 
Q 1263 4103 1663 4103 
Q 2047 4103 2308 3967 
Q 2569 3831 2728 3567 
Q 2888 3303 2955 2917 
Q 3022 2531 3022 2031 
z
M 2472 1994 
Q 2472 2297 2450 2537 
Q 2428 2778 2386 2962 
Q 2344 3147 2276 3280 
Q 2209 3413 2115 3498 
Q 2022 3584 1901 3623 
Q 1781 3663 1631 3663 
Q 1366 3663 1200 3538 
Q 1034 3413 939 3194 
Q 844 2975 809 2681 
Q 775 2388 775 2050 
Q 775 1597 822 1280 
Q 869 963 970 763 
Q 1072 563 1230 472 
Q 1388 381 1613 381 
Q 1788 381 1920 437 
Q 2053 494 2148 598 
Q 2244 703 2306 850 
Q 2369 997 2406 1175 
Q 2444 1353 2458 1561 
Q 2472 1769 2472 1994 
z
" transform="scale(0.015625)"/>
       </defs>
       <use xlink:href="#Calibri-31"/>
       <use xlink:href="#Calibri-2e" transform="translate(50.683594 0)"/>
       <use xlink:href="#Calibri-30" transform="translate(75.927734 0)"/>
       <use xlink:href="#Calibri-30" transform="translate(126.611328 0)"/>
      </g>
     </g>
    </g>
    <g id="xtick_2">
     <g id="line2d_3">
      <path d="M 223.166439 200.68 
L 223.166439 7.2 
" clip-path="url(#p4d0e59dd0b)" style="fill: none; stroke-dasharray: 2.96,1.28; stroke-dashoffset: 0; stroke: #b0b0b0; stroke-opacity: 0.5; stroke-width: 0.8"/>
     </g>
     <g id="line2d_4">
      <g>
       <use xlink:href="#md9794bde3c" x="223.166439" y="200.68" style="stroke: #000000; stroke-width: 0.8"/>
      </g>
     </g>
     <g id="text_2">
      <!-- 0.75 -->
      <g transform="translate(210.754564 217.202188) scale(0.14 -0.14)">
       <defs>
        <path id="Calibri-37" d="M 2947 3813 
Q 2947 3756 2942 3711 
Q 2938 3666 2930 3623 
Q 2922 3581 2908 3542 
Q 2894 3503 2875 3459 
L 1419 103 
Q 1403 66 1379 42 
Q 1356 19 1320 5 
Q 1284 -9 1228 -14 
Q 1172 -19 1091 -19 
Q 984 -19 925 -9 
Q 866 0 839 20 
Q 813 41 816 70 
Q 819 100 838 141 
L 2369 3572 
L 428 3572 
Q 369 3572 339 3634 
Q 309 3697 309 3809 
Q 309 3869 317 3912 
Q 325 3956 340 3986 
Q 356 4016 378 4030 
Q 400 4044 428 4044 
L 2784 4044 
Q 2828 4044 2861 4034 
Q 2894 4025 2911 3997 
Q 2928 3969 2937 3925 
Q 2947 3881 2947 3813 
z
" transform="scale(0.015625)"/>
        <path id="Calibri-35" d="M 2869 1300 
Q 2869 975 2759 722 
Q 2650 469 2450 295 
Q 2250 122 1973 31 
Q 1697 -59 1359 -59 
Q 1172 -59 1003 -32 
Q 834 -6 703 33 
Q 572 72 487 109 
Q 403 147 379 169 
Q 356 191 347 209 
Q 338 228 330 254 
Q 322 281 319 322 
Q 316 363 316 419 
Q 316 472 320 514 
Q 325 556 337 582 
Q 350 609 367 621 
Q 384 634 406 634 
Q 438 634 503 595 
Q 569 556 680 511 
Q 791 466 955 425 
Q 1119 384 1344 384 
Q 1553 384 1728 434 
Q 1903 484 2029 590 
Q 2156 697 2228 858 
Q 2300 1019 2300 1250 
Q 2300 1444 2239 1592 
Q 2178 1741 2051 1839 
Q 1925 1938 1731 1986 
Q 1538 2034 1269 2034 
Q 1078 2034 940 2015 
Q 803 1997 684 1997 
Q 597 1997 559 2037 
Q 522 2078 522 2194 
L 522 3841 
Q 522 3944 570 3994 
Q 619 4044 709 4044 
L 2500 4044 
Q 2525 4044 2548 4030 
Q 2572 4016 2587 3987 
Q 2603 3959 2611 3915 
Q 2619 3872 2619 3813 
Q 2619 3700 2587 3637 
Q 2556 3575 2500 3575 
L 991 3575 
L 991 2441 
Q 1100 2456 1214 2459 
Q 1328 2463 1478 2463 
Q 1825 2463 2084 2380 
Q 2344 2297 2517 2145 
Q 2691 1994 2780 1778 
Q 2869 1563 2869 1300 
z
" transform="scale(0.015625)"/>
       </defs>
       <use xlink:href="#Calibri-30"/>
       <use xlink:href="#Calibri-2e" transform="translate(50.683594 0)"/>
       <use xlink:href="#Calibri-37" transform="translate(75.927734 0)"/>
       <use xlink:href="#Calibri-35" transform="translate(126.611328 0)"/>
      </g>
     </g>
    </g>
    <g id="xtick_3">
     <g id="line2d_5">
      <path d="M 376.978561 200.68 
L 376.978561 7.2 
" clip-path="url(#p4d0e59dd0b)" style="fill: none; stroke-dasharray: 2.96,1.28; stroke-dashoffset: 0; stroke: #b0b0b0; stroke-opacity: 0.5; stroke-width: 0.8"/>
     </g>
     <g id="line2d_6">
      <g>
       <use xlink:href="#md9794bde3c" x="376.978561" y="200.68" style="stroke: #000000; stroke-width: 0.8"/>
      </g>
     </g>
     <g id="text_3">
      <!-- 0.50 -->
      <g transform="translate(364.566686 217.202188) scale(0.14 -0.14)">
       <use xlink:href="#Calibri-30"/>
       <use xlink:href="#Calibri-2e" transform="translate(50.683594 0)"/>
       <use xlink:href="#Calibri-35" transform="translate(75.927734 0)"/>
       <use xlink:href="#Calibri-30" transform="translate(126.611328 0)"/>
      </g>
     </g>
    </g>
    <g id="xtick_4">
     <g id="line2d_7">
      <path d="M 530.790682 200.68 
L 530.790682 7.2 
" clip-path="url(#p4d0e59dd0b)" style="fill: none; stroke-dasharray: 2.96,1.28; stroke-dashoffset: 0; stroke: #b0b0b0; stroke-opacity: 0.5; stroke-width: 0.8"/>
     </g>
     <g id="line2d_8">
      <g>
       <use xlink:href="#md9794bde3c" x="530.790682" y="200.68" style="stroke: #000000; stroke-width: 0.8"/>
      </g>
     </g>
     <g id="text_4">
      <!-- 0.25 -->
      <g transform="translate(518.378807 217.202188) scale(0.14 -0.14)">
       <defs>
        <path id="Calibri-32" d="M 2888 231 
Q 2888 175 2880 131 
Q 2872 88 2858 58 
Q 2844 28 2820 14 
Q 2797 0 2769 0 
L 534 0 
Q 491 0 458 11 
Q 425 22 401 47 
Q 378 72 367 119 
Q 356 166 356 234 
Q 356 297 361 344 
Q 366 391 381 427 
Q 397 463 420 498 
Q 444 534 481 575 
L 1266 1406 
Q 1538 1694 1702 1922 
Q 1866 2150 1955 2337 
Q 2044 2525 2072 2678 
Q 2100 2831 2100 2966 
Q 2100 3100 2056 3220 
Q 2013 3341 1930 3431 
Q 1847 3522 1722 3575 
Q 1597 3628 1434 3628 
Q 1244 3628 1092 3575 
Q 941 3522 827 3459 
Q 713 3397 636 3344 
Q 559 3291 522 3291 
Q 500 3291 483 3303 
Q 466 3316 455 3344 
Q 444 3372 437 3419 
Q 431 3466 431 3531 
Q 431 3578 434 3612 
Q 438 3647 445 3672 
Q 453 3697 465 3719 
Q 478 3741 515 3773 
Q 553 3806 645 3862 
Q 738 3919 877 3973 
Q 1016 4028 1183 4065 
Q 1350 4103 1534 4103 
Q 1828 4103 2048 4020 
Q 2269 3938 2414 3794 
Q 2559 3650 2631 3459 
Q 2703 3269 2703 3053 
Q 2703 2859 2668 2667 
Q 2634 2475 2523 2251 
Q 2413 2028 2203 1754 
Q 1994 1481 1647 1125 
L 1006 456 
L 2766 456 
Q 2791 456 2814 442 
Q 2838 428 2855 400 
Q 2872 372 2880 330 
Q 2888 288 2888 231 
z
" transform="scale(0.015625)"/>
       </defs>
       <use xlink:href="#Calibri-30"/>
       <use xlink:href="#Calibri-2e" transform="translate(50.683594 0)"/>
       <use xlink:href="#Calibri-32" transform="translate(75.927734 0)"/>
       <use xlink:href="#Calibri-35" transform="translate(126.611328 0)"/>
      </g>
     </g>
    </g>
    <g id="text_5">
     <!-- Weight on expected value -->
     <g transform="translate(213.4675 234.566563) scale(0.16 -0.16)">
      <defs>
       <path id="Calibri-Bold-57" d="M 4697 209 
Q 4678 134 4645 89 
Q 4613 44 4547 20 
Q 4481 -3 4378 -11 
Q 4275 -19 4116 -19 
Q 3938 -19 3830 -11 
Q 3722 -3 3659 20 
Q 3597 44 3569 89 
Q 3541 134 3525 209 
L 2878 2772 
L 2872 2772 
L 2259 209 
Q 2244 138 2216 92 
Q 2188 47 2127 22 
Q 2066 -3 1961 -11 
Q 1856 -19 1684 -19 
Q 1503 -19 1395 -11 
Q 1288 -3 1225 20 
Q 1163 44 1134 89 
Q 1106 134 1088 209 
L 169 3738 
Q 141 3850 137 3914 
Q 134 3978 173 4012 
Q 213 4047 302 4055 
Q 391 4063 550 4063 
Q 697 4063 783 4058 
Q 869 4053 912 4036 
Q 956 4019 972 3986 
Q 988 3953 997 3894 
L 1706 797 
L 1709 797 
L 2447 3872 
Q 2459 3931 2479 3968 
Q 2500 4006 2548 4026 
Q 2597 4047 2681 4055 
Q 2766 4063 2906 4063 
Q 3056 4063 3145 4056 
Q 3234 4050 3282 4029 
Q 3331 4009 3353 3971 
Q 3375 3934 3388 3872 
L 4150 797 
L 4156 797 
L 4866 3884 
Q 4875 3934 4890 3970 
Q 4906 4006 4950 4026 
Q 4994 4047 5075 4055 
Q 5156 4063 5303 4063 
Q 5441 4063 5517 4055 
Q 5594 4047 5628 4012 
Q 5663 3978 5658 3911 
Q 5653 3844 5625 3728 
L 4697 209 
z
" transform="scale(0.015625)"/>
       <path id="Calibri-Bold-65" d="M 2969 1581 
Q 2969 1438 2905 1369 
Q 2841 1300 2728 1300 
L 1031 1300 
Q 1031 1122 1073 976 
Q 1116 831 1208 729 
Q 1300 628 1445 575 
Q 1591 522 1794 522 
Q 2000 522 2156 551 
Q 2313 581 2427 617 
Q 2541 653 2616 683 
Q 2691 713 2738 713 
Q 2766 713 2784 702 
Q 2803 691 2815 662 
Q 2828 634 2833 582 
Q 2838 531 2838 453 
Q 2838 384 2834 336 
Q 2831 288 2825 253 
Q 2819 219 2806 195 
Q 2794 172 2773 150 
Q 2753 128 2662 90 
Q 2572 53 2431 17 
Q 2291 -19 2109 -45 
Q 1928 -72 1722 -72 
Q 1350 -72 1070 22 
Q 791 116 603 306 
Q 416 497 323 787 
Q 231 1078 231 1469 
Q 231 1841 328 2139 
Q 425 2438 609 2645 
Q 794 2853 1058 2962 
Q 1322 3072 1653 3072 
Q 2003 3072 2251 2969 
Q 2500 2866 2659 2683 
Q 2819 2500 2894 2250 
Q 2969 2000 2969 1706 
L 2969 1581 
z
M 2206 1806 
Q 2216 2138 2073 2327 
Q 1931 2516 1634 2516 
Q 1484 2516 1373 2459 
Q 1263 2403 1189 2308 
Q 1116 2213 1077 2083 
Q 1038 1953 1031 1806 
L 2206 1806 
z
" transform="scale(0.015625)"/>
       <path id="Calibri-Bold-69" d="M 1181 106 
Q 1181 75 1162 51 
Q 1144 28 1098 12 
Q 1053 -3 978 -11 
Q 903 -19 788 -19 
Q 672 -19 597 -11 
Q 522 -3 476 12 
Q 431 28 412 51 
Q 394 75 394 106 
L 394 2888 
Q 394 2919 412 2942 
Q 431 2966 476 2983 
Q 522 3000 597 3009 
Q 672 3019 788 3019 
Q 903 3019 978 3009 
Q 1053 3000 1098 2983 
Q 1144 2966 1162 2942 
Q 1181 2919 1181 2888 
L 1181 106 
z
M 1241 3838 
Q 1241 3600 1144 3509 
Q 1047 3419 784 3419 
Q 519 3419 426 3506 
Q 334 3594 334 3822 
Q 334 4059 429 4151 
Q 525 4244 791 4244 
Q 1053 4244 1147 4155 
Q 1241 4066 1241 3838 
z
" transform="scale(0.015625)"/>
       <path id="Calibri-Bold-67" d="M 2906 2700 
Q 2906 2550 2872 2478 
Q 2838 2406 2788 2406 
L 2459 2406 
Q 2528 2331 2558 2236 
Q 2588 2141 2588 2038 
Q 2588 1794 2506 1605 
Q 2425 1416 2273 1286 
Q 2122 1156 1908 1089 
Q 1694 1022 1431 1022 
Q 1297 1022 1175 1055 
Q 1053 1088 988 1131 
Q 950 1091 920 1034 
Q 891 978 891 909 
Q 891 819 970 761 
Q 1050 703 1194 697 
L 1872 672 
Q 2109 663 2295 605 
Q 2481 547 2607 442 
Q 2734 338 2801 191 
Q 2869 44 2869 -144 
Q 2869 -350 2778 -533 
Q 2688 -716 2506 -850 
Q 2325 -984 2051 -1062 
Q 1778 -1141 1413 -1141 
Q 1056 -1141 804 -1084 
Q 553 -1028 392 -928 
Q 231 -828 157 -689 
Q 84 -550 84 -384 
Q 84 -281 111 -187 
Q 138 -94 189 -8 
Q 241 78 316 156 
Q 391 234 488 306 
Q 353 378 279 501 
Q 206 625 206 772 
Q 206 956 290 1107 
Q 375 1259 509 1381 
Q 400 1491 334 1644 
Q 269 1797 269 2025 
Q 269 2269 355 2461 
Q 441 2653 594 2786 
Q 747 2919 959 2989 
Q 1172 3059 1428 3059 
Q 1559 3059 1679 3043 
Q 1800 3028 1903 3000 
L 2788 3000 
Q 2841 3000 2873 2931 
Q 2906 2863 2906 2700 
z
M 1897 2041 
Q 1897 2266 1772 2391 
Q 1647 2516 1419 2516 
Q 1303 2516 1215 2477 
Q 1128 2438 1070 2370 
Q 1013 2303 984 2214 
Q 956 2125 956 2028 
Q 956 1816 1081 1692 
Q 1206 1569 1428 1569 
Q 1547 1569 1634 1606 
Q 1722 1644 1780 1709 
Q 1838 1775 1867 1861 
Q 1897 1947 1897 2041 
z
M 2081 -184 
Q 2081 -44 1968 31 
Q 1856 106 1659 113 
L 1100 128 
Q 1019 69 970 14 
Q 922 -41 892 -91 
Q 863 -141 853 -187 
Q 844 -234 844 -284 
Q 844 -441 1001 -522 
Q 1159 -603 1447 -603 
Q 1625 -603 1747 -567 
Q 1869 -531 1944 -472 
Q 2019 -413 2050 -339 
Q 2081 -266 2081 -184 
z
" transform="scale(0.015625)"/>
       <path id="Calibri-Bold-68" d="M 3056 106 
Q 3056 75 3037 51 
Q 3019 28 2975 12 
Q 2931 -3 2854 -11 
Q 2778 -19 2666 -19 
Q 2550 -19 2473 -11 
Q 2397 -3 2353 12 
Q 2309 28 2290 51 
Q 2272 75 2272 106 
L 2272 1697 
Q 2272 1900 2242 2015 
Q 2213 2131 2156 2214 
Q 2100 2297 2011 2342 
Q 1922 2388 1803 2388 
Q 1653 2388 1500 2278 
Q 1347 2169 1181 1959 
L 1181 106 
Q 1181 75 1162 51 
Q 1144 28 1098 12 
Q 1053 -3 978 -11 
Q 903 -19 788 -19 
Q 672 -19 597 -11 
Q 522 -3 476 12 
Q 431 28 412 51 
Q 394 75 394 106 
L 394 4216 
Q 394 4247 412 4272 
Q 431 4297 476 4314 
Q 522 4331 597 4340 
Q 672 4350 788 4350 
Q 903 4350 978 4340 
Q 1053 4331 1098 4314 
Q 1144 4297 1162 4272 
Q 1181 4247 1181 4216 
L 1181 2675 
Q 1384 2875 1595 2973 
Q 1806 3072 2034 3072 
Q 2319 3072 2514 2978 
Q 2709 2884 2829 2721 
Q 2950 2559 3003 2342 
Q 3056 2125 3056 1816 
L 3056 106 
z
" transform="scale(0.015625)"/>
       <path id="Calibri-Bold-74" d="M 2044 381 
Q 2044 244 2026 170 
Q 2009 97 1981 67 
Q 1953 38 1898 14 
Q 1844 -9 1770 -26 
Q 1697 -44 1611 -53 
Q 1525 -63 1438 -63 
Q 1203 -63 1031 -3 
Q 859 56 746 179 
Q 634 303 581 490 
Q 528 678 528 934 
L 528 2363 
L 194 2363 
Q 134 2363 103 2436 
Q 72 2509 72 2681 
Q 72 2772 80 2834 
Q 88 2897 103 2933 
Q 119 2969 142 2984 
Q 166 3000 197 3000 
L 528 3000 
L 528 3622 
Q 528 3653 545 3678 
Q 563 3703 608 3720 
Q 653 3738 729 3745 
Q 806 3753 919 3753 
Q 1034 3753 1111 3745 
Q 1188 3738 1231 3720 
Q 1275 3703 1294 3678 
Q 1313 3653 1313 3622 
L 1313 3000 
L 1919 3000 
Q 1950 3000 1973 2984 
Q 1997 2969 2012 2933 
Q 2028 2897 2036 2834 
Q 2044 2772 2044 2681 
Q 2044 2509 2012 2436 
Q 1981 2363 1922 2363 
L 1313 2363 
L 1313 1053 
Q 1313 825 1384 711 
Q 1456 597 1641 597 
Q 1703 597 1753 608 
Q 1803 619 1842 633 
Q 1881 647 1907 658 
Q 1934 669 1956 669 
Q 1975 669 1992 658 
Q 2009 647 2018 614 
Q 2028 581 2036 525 
Q 2044 469 2044 381 
z
" transform="scale(0.015625)"/>
       <path id="Calibri-Bold-20" transform="scale(0.015625)"/>
       <path id="Calibri-Bold-6f" d="M 3213 1528 
Q 3213 1172 3119 878 
Q 3025 584 2834 371 
Q 2644 159 2356 43 
Q 2069 -72 1684 -72 
Q 1313 -72 1038 31 
Q 763 134 581 331 
Q 400 528 312 815 
Q 225 1103 225 1472 
Q 225 1828 320 2123 
Q 416 2419 606 2630 
Q 797 2841 1083 2956 
Q 1369 3072 1753 3072 
Q 2128 3072 2403 2970 
Q 2678 2869 2858 2672 
Q 3038 2475 3125 2187 
Q 3213 1900 3213 1528 
z
M 2403 1497 
Q 2403 1703 2370 1876 
Q 2338 2050 2259 2178 
Q 2181 2306 2051 2378 
Q 1922 2450 1725 2450 
Q 1550 2450 1419 2386 
Q 1288 2322 1203 2198 
Q 1119 2075 1076 1901 
Q 1034 1728 1034 1506 
Q 1034 1300 1068 1126 
Q 1103 953 1179 825 
Q 1256 697 1387 626 
Q 1519 556 1713 556 
Q 1891 556 2022 620 
Q 2153 684 2237 806 
Q 2322 928 2362 1101 
Q 2403 1275 2403 1497 
z
" transform="scale(0.015625)"/>
       <path id="Calibri-Bold-6e" d="M 3056 106 
Q 3056 75 3037 51 
Q 3019 28 2975 12 
Q 2931 -3 2854 -11 
Q 2778 -19 2666 -19 
Q 2550 -19 2473 -11 
Q 2397 -3 2353 12 
Q 2309 28 2290 51 
Q 2272 75 2272 106 
L 2272 1697 
Q 2272 1900 2242 2015 
Q 2213 2131 2156 2214 
Q 2100 2297 2011 2342 
Q 1922 2388 1803 2388 
Q 1653 2388 1500 2278 
Q 1347 2169 1181 1959 
L 1181 106 
Q 1181 75 1162 51 
Q 1144 28 1098 12 
Q 1053 -3 978 -11 
Q 903 -19 788 -19 
Q 672 -19 597 -11 
Q 522 -3 476 12 
Q 431 28 412 51 
Q 394 75 394 106 
L 394 2894 
Q 394 2925 409 2948 
Q 425 2972 465 2987 
Q 506 3003 570 3011 
Q 634 3019 731 3019 
Q 831 3019 897 3011 
Q 963 3003 998 2987 
Q 1034 2972 1050 2948 
Q 1066 2925 1066 2894 
L 1066 2572 
Q 1297 2822 1536 2947 
Q 1775 3072 2034 3072 
Q 2319 3072 2514 2978 
Q 2709 2884 2829 2723 
Q 2950 2563 3003 2347 
Q 3056 2131 3056 1828 
L 3056 106 
z
" transform="scale(0.015625)"/>
       <path id="Calibri-Bold-78" d="M 2816 163 
Q 2841 109 2839 75 
Q 2838 41 2794 19 
Q 2750 -3 2659 -11 
Q 2569 -19 2419 -19 
Q 2278 -19 2192 -14 
Q 2106 -9 2057 5 
Q 2009 19 1986 39 
Q 1963 59 1950 91 
L 1434 1081 
L 919 91 
Q 906 59 884 39 
Q 863 19 817 5 
Q 772 -9 690 -14 
Q 609 -19 478 -19 
Q 341 -19 259 -11 
Q 178 -3 140 19 
Q 103 41 101 75 
Q 100 109 128 163 
L 900 1534 
L 188 2822 
Q 159 2878 157 2917 
Q 156 2956 197 2978 
Q 238 3000 327 3009 
Q 416 3019 569 3019 
Q 706 3019 789 3014 
Q 872 3009 919 3000 
Q 966 2991 987 2970 
Q 1009 2950 1025 2919 
L 1522 1988 
L 2016 2919 
Q 2025 2944 2044 2962 
Q 2063 2981 2103 2993 
Q 2144 3006 2214 3012 
Q 2284 3019 2406 3019 
Q 2544 3019 2626 3012 
Q 2709 3006 2745 2984 
Q 2781 2963 2779 2923 
Q 2778 2884 2744 2822 
L 2050 1556 
L 2816 163 
z
" transform="scale(0.015625)"/>
       <path id="Calibri-Bold-70" d="M 3200 1541 
Q 3200 1169 3120 870 
Q 3041 572 2887 362 
Q 2734 153 2506 40 
Q 2278 -72 1984 -72 
Q 1863 -72 1761 -48 
Q 1659 -25 1564 23 
Q 1469 72 1375 144 
Q 1281 216 1181 313 
L 1181 -1000 
Q 1181 -1031 1162 -1056 
Q 1144 -1081 1098 -1098 
Q 1053 -1116 978 -1125 
Q 903 -1134 788 -1134 
Q 672 -1134 597 -1125 
Q 522 -1116 476 -1098 
Q 431 -1081 412 -1056 
Q 394 -1031 394 -1000 
L 394 2894 
Q 394 2925 409 2948 
Q 425 2972 464 2987 
Q 503 3003 567 3011 
Q 631 3019 728 3019 
Q 822 3019 886 3011 
Q 950 3003 989 2987 
Q 1028 2972 1043 2948 
Q 1059 2925 1059 2894 
L 1059 2566 
Q 1181 2691 1298 2786 
Q 1416 2881 1537 2945 
Q 1659 3009 1789 3040 
Q 1919 3072 2066 3072 
Q 2372 3072 2587 2951 
Q 2803 2831 2939 2622 
Q 3075 2413 3137 2134 
Q 3200 1856 3200 1541 
z
M 2381 1484 
Q 2381 1663 2354 1827 
Q 2328 1991 2264 2119 
Q 2200 2247 2095 2323 
Q 1991 2400 1834 2400 
Q 1756 2400 1679 2376 
Q 1603 2353 1523 2300 
Q 1444 2247 1359 2162 
Q 1275 2078 1181 1953 
L 1181 1034 
Q 1347 825 1497 711 
Q 1647 597 1809 597 
Q 1963 597 2070 675 
Q 2178 753 2247 879 
Q 2316 1006 2348 1165 
Q 2381 1325 2381 1484 
z
" transform="scale(0.015625)"/>
       <path id="Calibri-Bold-63" d="M 2503 550 
Q 2503 469 2498 414 
Q 2494 359 2486 321 
Q 2478 284 2467 261 
Q 2456 238 2418 202 
Q 2381 166 2290 114 
Q 2200 63 2084 22 
Q 1969 -19 1833 -44 
Q 1697 -69 1553 -69 
Q 1231 -69 982 31 
Q 734 131 565 326 
Q 397 522 311 803 
Q 225 1084 225 1447 
Q 225 1866 329 2170 
Q 434 2475 621 2675 
Q 809 2875 1065 2972 
Q 1322 3069 1628 3069 
Q 1753 3069 1873 3047 
Q 1994 3025 2098 2987 
Q 2203 2950 2286 2903 
Q 2369 2856 2403 2822 
Q 2438 2788 2452 2764 
Q 2466 2741 2473 2703 
Q 2481 2666 2486 2611 
Q 2491 2556 2491 2478 
Q 2491 2297 2459 2223 
Q 2428 2150 2378 2150 
Q 2325 2150 2265 2194 
Q 2206 2238 2125 2291 
Q 2044 2344 1931 2387 
Q 1819 2431 1663 2431 
Q 1356 2431 1193 2195 
Q 1031 1959 1031 1503 
Q 1031 1278 1072 1106 
Q 1113 934 1192 818 
Q 1272 703 1392 645 
Q 1513 588 1672 588 
Q 1834 588 1951 636 
Q 2069 684 2156 743 
Q 2244 803 2303 851 
Q 2363 900 2403 900 
Q 2431 900 2450 884 
Q 2469 869 2480 826 
Q 2491 784 2497 718 
Q 2503 653 2503 550 
z
" transform="scale(0.015625)"/>
       <path id="Calibri-Bold-64" d="M 3038 106 
Q 3038 72 3022 48 
Q 3006 25 2968 9 
Q 2931 -6 2867 -12 
Q 2803 -19 2709 -19 
Q 2609 -19 2546 -12 
Q 2484 -6 2445 9 
Q 2406 25 2389 48 
Q 2372 72 2372 106 
L 2372 416 
Q 2156 184 1920 56 
Q 1684 -72 1397 -72 
Q 1078 -72 858 51 
Q 638 175 498 384 
Q 359 594 296 873 
Q 234 1153 234 1463 
Q 234 1834 314 2131 
Q 394 2428 547 2637 
Q 700 2847 928 2959 
Q 1156 3072 1453 3072 
Q 1688 3072 1878 2976 
Q 2069 2881 2256 2697 
L 2256 4206 
Q 2256 4238 2273 4263 
Q 2291 4288 2336 4305 
Q 2381 4322 2456 4331 
Q 2531 4341 2647 4341 
Q 2763 4341 2838 4331 
Q 2913 4322 2956 4305 
Q 3000 4288 3019 4263 
Q 3038 4238 3038 4206 
L 3038 106 
z
M 2256 1969 
Q 2088 2181 1933 2293 
Q 1778 2406 1609 2406 
Q 1456 2406 1345 2329 
Q 1234 2253 1167 2125 
Q 1100 1997 1067 1839 
Q 1034 1681 1034 1516 
Q 1034 1341 1062 1175 
Q 1091 1009 1155 879 
Q 1219 750 1325 672 
Q 1431 594 1594 594 
Q 1675 594 1751 617 
Q 1828 641 1908 694 
Q 1988 747 2072 833 
Q 2156 919 2256 1044 
L 2256 1969 
z
" transform="scale(0.015625)"/>
       <path id="Calibri-Bold-76" d="M 2959 2897 
Q 2959 2881 2957 2859 
Q 2956 2838 2951 2811 
Q 2947 2784 2939 2750 
Q 2931 2716 2919 2672 
L 2081 150 
Q 2066 97 2039 64 
Q 2013 31 1952 12 
Q 1891 -6 1786 -12 
Q 1681 -19 1513 -19 
Q 1347 -19 1242 -11 
Q 1138 -3 1078 15 
Q 1019 34 992 67 
Q 966 100 950 150 
L 113 2672 
Q 94 2734 83 2784 
Q 72 2834 70 2856 
Q 69 2878 69 2897 
Q 69 2928 86 2951 
Q 103 2975 147 2990 
Q 191 3006 267 3012 
Q 344 3019 459 3019 
Q 588 3019 666 3011 
Q 744 3003 789 2989 
Q 834 2975 853 2948 
Q 872 2922 884 2884 
L 1519 838 
L 1538 759 
L 1556 838 
L 2181 2884 
Q 2191 2922 2211 2948 
Q 2231 2975 2275 2989 
Q 2319 3003 2392 3011 
Q 2466 3019 2584 3019 
Q 2700 3019 2773 3012 
Q 2847 3006 2887 2990 
Q 2928 2975 2943 2951 
Q 2959 2928 2959 2897 
z
" transform="scale(0.015625)"/>
       <path id="Calibri-Bold-61" d="M 2769 97 
Q 2769 53 2737 28 
Q 2706 3 2639 -8 
Q 2572 -19 2441 -19 
Q 2300 -19 2236 -8 
Q 2172 3 2145 28 
Q 2119 53 2119 97 
L 2119 319 
Q 1947 134 1726 31 
Q 1506 -72 1238 -72 
Q 1016 -72 830 -14 
Q 644 44 508 158 
Q 372 272 297 440 
Q 222 609 222 834 
Q 222 1078 317 1258 
Q 413 1438 602 1555 
Q 791 1672 1072 1728 
Q 1353 1784 1725 1784 
L 1997 1784 
L 1997 1953 
Q 1997 2084 1970 2182 
Q 1944 2281 1883 2347 
Q 1822 2413 1720 2444 
Q 1619 2475 1469 2475 
Q 1272 2475 1117 2431 
Q 963 2388 844 2334 
Q 725 2281 645 2237 
Q 566 2194 516 2194 
Q 481 2194 454 2216 
Q 428 2238 411 2278 
Q 394 2319 384 2378 
Q 375 2438 375 2509 
Q 375 2606 390 2662 
Q 406 2719 450 2764 
Q 494 2809 603 2864 
Q 713 2919 859 2966 
Q 1006 3013 1179 3042 
Q 1353 3072 1538 3072 
Q 1866 3072 2098 3008 
Q 2331 2944 2481 2811 
Q 2631 2678 2700 2468 
Q 2769 2259 2769 1972 
L 2769 97 
z
M 1997 1291 
L 1697 1291 
Q 1506 1291 1372 1262 
Q 1238 1234 1153 1178 
Q 1069 1122 1030 1042 
Q 991 963 991 859 
Q 991 684 1102 584 
Q 1213 484 1409 484 
Q 1575 484 1714 568 
Q 1853 653 1997 816 
L 1997 1291 
z
" transform="scale(0.015625)"/>
       <path id="Calibri-Bold-6c" d="M 1181 106 
Q 1181 75 1162 51 
Q 1144 28 1098 12 
Q 1053 -3 978 -11 
Q 903 -19 788 -19 
Q 672 -19 597 -11 
Q 522 -3 476 12 
Q 431 28 412 51 
Q 394 75 394 106 
L 394 4216 
Q 394 4247 412 4272 
Q 431 4297 476 4314 
Q 522 4331 597 4340 
Q 672 4350 788 4350 
Q 903 4350 978 4340 
Q 1053 4331 1098 4314 
Q 1144 4297 1162 4272 
Q 1181 4247 1181 4216 
L 1181 106 
z
" transform="scale(0.015625)"/>
       <path id="Calibri-Bold-75" d="M 3038 106 
Q 3038 75 3022 51 
Q 3006 28 2967 12 
Q 2928 -3 2864 -11 
Q 2800 -19 2703 -19 
Q 2600 -19 2536 -11 
Q 2472 -3 2434 12 
Q 2397 28 2381 51 
Q 2366 75 2366 106 
L 2366 428 
Q 2134 178 1895 53 
Q 1656 -72 1400 -72 
Q 1113 -72 917 22 
Q 722 116 601 278 
Q 481 441 429 655 
Q 378 869 378 1188 
L 378 2894 
Q 378 2925 395 2948 
Q 413 2972 458 2987 
Q 503 3003 579 3011 
Q 656 3019 769 3019 
Q 884 3019 959 3011 
Q 1034 3003 1079 2987 
Q 1125 2972 1144 2948 
Q 1163 2925 1163 2894 
L 1163 1319 
Q 1163 1100 1191 984 
Q 1219 869 1276 786 
Q 1334 703 1423 658 
Q 1513 613 1631 613 
Q 1781 613 1932 722 
Q 2084 831 2256 1041 
L 2256 2894 
Q 2256 2925 2273 2948 
Q 2291 2972 2336 2987 
Q 2381 3003 2456 3011 
Q 2531 3019 2647 3019 
Q 2763 3019 2838 3011 
Q 2913 3003 2956 2987 
Q 3000 2972 3019 2948 
Q 3038 2925 3038 2894 
L 3038 106 
z
" transform="scale(0.015625)"/>
      </defs>
      <use xlink:href="#Calibri-Bold-57"/>
      <use xlink:href="#Calibri-Bold-65" transform="translate(90.625 0)"/>
      <use xlink:href="#Calibri-Bold-69" transform="translate(140.966797 0)"/>
      <use xlink:href="#Calibri-Bold-67" transform="translate(165.527344 0)"/>
      <use xlink:href="#Calibri-Bold-68" transform="translate(212.939453 0)"/>
      <use xlink:href="#Calibri-Bold-74" transform="translate(266.601562 0)"/>
      <use xlink:href="#Calibri-Bold-20" transform="translate(301.269531 0)"/>
      <use xlink:href="#Calibri-Bold-6f" transform="translate(323.876953 0)"/>
      <use xlink:href="#Calibri-Bold-6e" transform="translate(377.636719 0)"/>
      <use xlink:href="#Calibri-Bold-20" transform="translate(431.298828 0)"/>
      <use xlink:href="#Calibri-Bold-65" transform="translate(453.90625 0)"/>
      <use xlink:href="#Calibri-Bold-78" transform="translate(504.248047 0)"/>
      <use xlink:href="#Calibri-Bold-70" transform="translate(550.195312 0)"/>
      <use xlink:href="#Calibri-Bold-65" transform="translate(603.857422 0)"/>
      <use xlink:href="#Calibri-Bold-63" transform="translate(654.199219 0)"/>
      <use xlink:href="#Calibri-Bold-74" transform="translate(696.044922 0)"/>
      <use xlink:href="#Calibri-Bold-65" transform="translate(730.712891 0)"/>
      <use xlink:href="#Calibri-Bold-64" transform="translate(781.054688 0)"/>
      <use xlink:href="#Calibri-Bold-20" transform="translate(834.716797 0)"/>
      <use xlink:href="#Calibri-Bold-76" transform="translate(857.324219 0)"/>
      <use xlink:href="#Calibri-Bold-61" transform="translate(904.638672 0)"/>
      <use xlink:href="#Calibri-Bold-6c" transform="translate(954.003906 0)"/>
      <use xlink:href="#Calibri-Bold-75" transform="translate(978.564453 0)"/>
      <use xlink:href="#Calibri-Bold-65" transform="translate(1032.226562 0)"/>
     </g>
    </g>
   </g>
   <g id="matplotlib.axis_2">
    <g id="ytick_1">
     <g id="line2d_9">
      <path d="M 46.2825 176.495 
L 553.8625 176.495 
" clip-path="url(#p4d0e59dd0b)" style="fill: none; stroke-dasharray: 2.96,1.28; stroke-dashoffset: 0; stroke: #b0b0b0; stroke-opacity: 0.5; stroke-width: 0.8"/>
     </g>
     <g id="line2d_10">
      <defs>
       <path id="me2ab01b98b" d="M 0 0 
L -3.5 0 
" style="stroke: #000000; stroke-width: 0.8"/>
      </defs>
      <g>
       <use xlink:href="#me2ab01b98b" x="46.2825" y="176.495" style="stroke: #000000; stroke-width: 0.8"/>
      </g>
     </g>
     <g id="text_6">
      <!-- 6 -->
      <g transform="translate(32.18625 181.256094) scale(0.14 -0.14)">
       <defs>
        <path id="Calibri-36" d="M 2991 1309 
Q 2991 1044 2909 795 
Q 2828 547 2659 358 
Q 2491 169 2231 55 
Q 1972 -59 1619 -59 
Q 1366 -59 1172 3 
Q 978 66 834 181 
Q 691 297 595 465 
Q 500 634 442 850 
Q 384 1066 359 1322 
Q 334 1578 334 1872 
Q 334 2131 362 2397 
Q 391 2663 462 2909 
Q 534 3156 657 3373 
Q 781 3591 967 3752 
Q 1153 3913 1412 4006 
Q 1672 4100 2016 4100 
Q 2131 4100 2250 4086 
Q 2369 4072 2469 4048 
Q 2569 4025 2637 3997 
Q 2706 3969 2728 3951 
Q 2750 3934 2761 3914 
Q 2772 3894 2778 3870 
Q 2784 3847 2787 3817 
Q 2791 3788 2791 3744 
Q 2791 3688 2789 3647 
Q 2788 3606 2777 3581 
Q 2766 3556 2748 3543 
Q 2731 3531 2703 3531 
Q 2669 3531 2609 3553 
Q 2550 3575 2465 3601 
Q 2381 3628 2261 3650 
Q 2141 3672 1981 3672 
Q 1691 3672 1481 3553 
Q 1272 3434 1139 3234 
Q 1006 3034 942 2770 
Q 878 2506 869 2219 
Q 950 2266 1051 2312 
Q 1153 2359 1273 2396 
Q 1394 2434 1528 2457 
Q 1663 2481 1816 2481 
Q 2144 2481 2369 2392 
Q 2594 2303 2733 2145 
Q 2872 1988 2931 1773 
Q 2991 1559 2991 1309 
z
M 2447 1259 
Q 2447 1441 2411 1589 
Q 2375 1738 2290 1841 
Q 2206 1944 2065 2000 
Q 1925 2056 1719 2056 
Q 1603 2056 1487 2036 
Q 1372 2016 1264 1980 
Q 1156 1944 1057 1895 
Q 959 1847 878 1791 
Q 878 1388 929 1116 
Q 981 844 1079 680 
Q 1178 516 1325 445 
Q 1472 375 1669 375 
Q 1869 375 2016 450 
Q 2163 525 2259 651 
Q 2356 778 2401 936 
Q 2447 1094 2447 1259 
z
" transform="scale(0.015625)"/>
       </defs>
       <use xlink:href="#Calibri-36"/>
      </g>
     </g>
    </g>
    <g id="ytick_2">
     <g id="line2d_11">
      <path d="M 46.2825 128.125 
L 553.8625 128.125 
" clip-path="url(#p4d0e59dd0b)" style="fill: none; stroke-dasharray: 2.96,1.28; stroke-dashoffset: 0; stroke: #b0b0b0; stroke-opacity: 0.5; stroke-width: 0.8"/>
     </g>
     <g id="line2d_12">
      <g>
       <use xlink:href="#me2ab01b98b" x="46.2825" y="128.125" style="stroke: #000000; stroke-width: 0.8"/>
      </g>
     </g>
     <g id="text_7">
      <!-- 8 -->
      <g transform="translate(32.18625 132.886094) scale(0.14 -0.14)">
       <defs>
        <path id="Calibri-38" d="M 2981 1038 
Q 2981 775 2887 570 
Q 2794 366 2617 225 
Q 2441 84 2181 12 
Q 1922 -59 1588 -59 
Q 1275 -59 1028 6 
Q 781 72 609 200 
Q 438 328 347 515 
Q 256 703 256 944 
Q 256 1134 318 1293 
Q 381 1453 498 1587 
Q 616 1722 787 1839 
Q 959 1956 1175 2063 
Q 988 2159 844 2267 
Q 700 2375 600 2501 
Q 500 2628 448 2772 
Q 397 2916 397 3084 
Q 397 3297 473 3483 
Q 550 3669 704 3806 
Q 859 3944 1098 4023 
Q 1338 4103 1656 4103 
Q 1963 4103 2186 4029 
Q 2409 3956 2554 3829 
Q 2700 3703 2769 3531 
Q 2838 3359 2838 3163 
Q 2838 3003 2786 2856 
Q 2734 2709 2634 2578 
Q 2534 2447 2389 2333 
Q 2244 2219 2056 2119 
Q 2278 2009 2451 1893 
Q 2625 1778 2742 1645 
Q 2859 1513 2920 1364 
Q 2981 1216 2981 1038 
z
M 2306 3113 
Q 2306 3244 2261 3350 
Q 2216 3456 2128 3531 
Q 2041 3606 1911 3645 
Q 1781 3684 1616 3684 
Q 1278 3684 1104 3531 
Q 931 3378 931 3113 
Q 931 2991 973 2886 
Q 1016 2781 1105 2687 
Q 1194 2594 1330 2505 
Q 1466 2416 1653 2319 
Q 1969 2481 2137 2678 
Q 2306 2875 2306 3113 
z
M 2438 981 
Q 2438 1125 2384 1242 
Q 2331 1359 2223 1461 
Q 2116 1563 1955 1658 
Q 1794 1753 1581 1856 
Q 1384 1759 1236 1662 
Q 1088 1566 992 1462 
Q 897 1359 848 1245 
Q 800 1131 800 994 
Q 800 691 1008 525 
Q 1216 359 1628 359 
Q 2028 359 2233 526 
Q 2438 694 2438 981 
z
" transform="scale(0.015625)"/>
       </defs>
       <use xlink:href="#Calibri-38"/>
      </g>
     </g>
    </g>
    <g id="ytick_3">
     <g id="line2d_13">
      <path d="M 46.2825 79.755 
L 553.8625 79.755 
" clip-path="url(#p4d0e59dd0b)" style="fill: none; stroke-dasharray: 2.96,1.28; stroke-dashoffset: 0; stroke: #b0b0b0; stroke-opacity: 0.5; stroke-width: 0.8"/>
     </g>
     <g id="line2d_14">
      <g>
       <use xlink:href="#me2ab01b98b" x="46.2825" y="79.755" style="stroke: #000000; stroke-width: 0.8"/>
      </g>
     </g>
     <g id="text_8">
      <!-- 10 -->
      <g transform="translate(25.09 84.516094) scale(0.14 -0.14)">
       <use xlink:href="#Calibri-31"/>
       <use xlink:href="#Calibri-30" transform="translate(50.683594 0)"/>
      </g>
     </g>
    </g>
    <g id="ytick_4">
     <g id="line2d_15">
      <path d="M 46.2825 31.385 
L 553.8625 31.385 
" clip-path="url(#p4d0e59dd0b)" style="fill: none; stroke-dasharray: 2.96,1.28; stroke-dashoffset: 0; stroke: #b0b0b0; stroke-opacity: 0.5; stroke-width: 0.8"/>
     </g>
     <g id="line2d_16">
      <g>
       <use xlink:href="#me2ab01b98b" x="46.2825" y="31.385" style="stroke: #000000; stroke-width: 0.8"/>
      </g>
     </g>
     <g id="text_9">
      <!-- 12 -->
      <g transform="translate(25.09 36.146094) scale(0.14 -0.14)">
       <use xlink:href="#Calibri-31"/>
       <use xlink:href="#Calibri-32" transform="translate(50.683594 0)"/>
      </g>
     </g>
    </g>
    <g id="text_10">
     <!-- Implied WACC [%] -->
     <g transform="translate(18.255 164.245) rotate(-90) scale(0.16 -0.16)">
      <defs>
       <path id="Calibri-Bold-49" d="M 1266 113 
Q 1266 81 1245 56 
Q 1225 31 1178 15 
Q 1131 0 1053 -9 
Q 975 -19 853 -19 
Q 734 -19 654 -9 
Q 575 0 528 15 
Q 481 31 461 56 
Q 441 81 441 113 
L 441 3931 
Q 441 3963 461 3988 
Q 481 4013 529 4028 
Q 578 4044 656 4053 
Q 734 4063 853 4063 
Q 975 4063 1053 4053 
Q 1131 4044 1178 4028 
Q 1225 4013 1245 3988 
Q 1266 3963 1266 3931 
L 1266 113 
z
" transform="scale(0.015625)"/>
       <path id="Calibri-Bold-6d" d="M 4828 106 
Q 4828 75 4809 51 
Q 4791 28 4747 12 
Q 4703 -3 4628 -11 
Q 4553 -19 4438 -19 
Q 4319 -19 4244 -11 
Q 4169 -3 4123 12 
Q 4078 28 4061 51 
Q 4044 75 4044 106 
L 4044 1759 
Q 4044 1900 4017 2015 
Q 3991 2131 3936 2214 
Q 3881 2297 3798 2342 
Q 3716 2388 3600 2388 
Q 3459 2388 3315 2278 
Q 3172 2169 3003 1959 
L 3003 106 
Q 3003 75 2984 51 
Q 2966 28 2920 12 
Q 2875 -3 2800 -11 
Q 2725 -19 2613 -19 
Q 2497 -19 2422 -11 
Q 2347 -3 2301 12 
Q 2256 28 2237 51 
Q 2219 75 2219 106 
L 2219 1759 
Q 2219 1900 2192 2015 
Q 2166 2131 2112 2214 
Q 2059 2297 1975 2342 
Q 1891 2388 1778 2388 
Q 1634 2388 1490 2278 
Q 1347 2169 1181 1959 
L 1181 106 
Q 1181 75 1162 51 
Q 1144 28 1098 12 
Q 1053 -3 978 -11 
Q 903 -19 788 -19 
Q 672 -19 597 -11 
Q 522 -3 476 12 
Q 431 28 412 51 
Q 394 75 394 106 
L 394 2894 
Q 394 2925 409 2948 
Q 425 2972 465 2987 
Q 506 3003 570 3011 
Q 634 3019 731 3019 
Q 831 3019 897 3011 
Q 963 3003 998 2987 
Q 1034 2972 1050 2948 
Q 1066 2925 1066 2894 
L 1066 2572 
Q 1297 2822 1526 2947 
Q 1756 3072 2006 3072 
Q 2178 3072 2315 3036 
Q 2453 3000 2561 2933 
Q 2669 2866 2747 2772 
Q 2825 2678 2878 2563 
Q 3003 2697 3123 2794 
Q 3244 2891 3361 2952 
Q 3478 3013 3595 3042 
Q 3713 3072 3834 3072 
Q 4113 3072 4303 2978 
Q 4494 2884 4611 2723 
Q 4728 2563 4778 2347 
Q 4828 2131 4828 1891 
L 4828 106 
z
" transform="scale(0.015625)"/>
       <path id="Calibri-Bold-41" d="M 3753 306 
Q 3791 194 3800 128 
Q 3809 63 3775 30 
Q 3741 -3 3653 -11 
Q 3566 -19 3413 -19 
Q 3253 -19 3164 -14 
Q 3075 -9 3028 5 
Q 2981 19 2962 44 
Q 2944 69 2931 109 
L 2659 922 
L 1141 922 
L 884 131 
Q 872 88 851 58 
Q 831 28 786 11 
Q 741 -6 658 -12 
Q 575 -19 441 -19 
Q 297 -19 215 -9 
Q 134 0 103 36 
Q 72 72 81 137 
Q 91 203 128 313 
L 1375 3900 
Q 1394 3953 1419 3986 
Q 1444 4019 1498 4036 
Q 1553 4053 1650 4058 
Q 1747 4063 1906 4063 
Q 2091 4063 2200 4058 
Q 2309 4053 2370 4036 
Q 2431 4019 2457 3984 
Q 2484 3950 2503 3891 
L 3753 306 
z
M 1897 3272 
L 1894 3272 
L 1322 1553 
L 2469 1553 
L 1897 3272 
z
" transform="scale(0.015625)"/>
       <path id="Calibri-Bold-43" d="M 3238 613 
Q 3238 534 3233 479 
Q 3228 425 3218 386 
Q 3209 347 3193 319 
Q 3178 291 3143 255 
Q 3109 219 3011 162 
Q 2913 106 2770 54 
Q 2628 3 2445 -31 
Q 2263 -66 2050 -66 
Q 1634 -66 1300 62 
Q 966 191 731 445 
Q 497 700 372 1081 
Q 247 1463 247 1969 
Q 247 2484 384 2884 
Q 522 3284 769 3556 
Q 1016 3828 1361 3968 
Q 1706 4109 2122 4109 
Q 2291 4109 2447 4081 
Q 2603 4053 2736 4008 
Q 2869 3963 2975 3903 
Q 3081 3844 3123 3801 
Q 3166 3759 3181 3731 
Q 3197 3703 3206 3659 
Q 3216 3616 3220 3556 
Q 3225 3497 3225 3409 
Q 3225 3316 3219 3250 
Q 3213 3184 3197 3143 
Q 3181 3103 3159 3084 
Q 3138 3066 3109 3066 
Q 3063 3066 2991 3120 
Q 2919 3175 2805 3242 
Q 2691 3309 2533 3364 
Q 2375 3419 2156 3419 
Q 1916 3419 1727 3320 
Q 1538 3222 1405 3039 
Q 1272 2856 1203 2597 
Q 1134 2338 1134 2013 
Q 1134 1656 1207 1395 
Q 1281 1134 1417 965 
Q 1553 797 1745 714 
Q 1938 631 2178 631 
Q 2397 631 2556 682 
Q 2716 734 2830 796 
Q 2944 859 3017 909 
Q 3091 959 3131 959 
Q 3163 959 3181 946 
Q 3200 934 3212 896 
Q 3225 859 3231 792 
Q 3238 725 3238 613 
z
" transform="scale(0.015625)"/>
       <path id="Calibri-Bold-5b" d="M 1806 -775 
Q 1806 -931 1778 -993 
Q 1750 -1056 1697 -1056 
L 731 -1056 
Q 678 -1056 634 -1040 
Q 591 -1025 559 -994 
Q 528 -963 509 -913 
Q 491 -863 491 -794 
L 491 4163 
Q 491 4228 509 4278 
Q 528 4328 559 4361 
Q 591 4394 634 4408 
Q 678 4422 731 4422 
L 1697 4422 
Q 1722 4422 1744 4408 
Q 1766 4394 1780 4361 
Q 1794 4328 1800 4275 
Q 1806 4222 1806 4141 
Q 1806 3981 1778 3920 
Q 1750 3859 1697 3859 
L 1225 3859 
L 1225 -494 
L 1697 -494 
Q 1722 -494 1744 -506 
Q 1766 -519 1780 -553 
Q 1794 -588 1800 -641 
Q 1806 -694 1806 -775 
z
" transform="scale(0.015625)"/>
       <path id="Calibri-Bold-25" d="M 2051 3076 
Q 2051 2829 1996 2630 
Q 1941 2432 1825 2291 
Q 1710 2151 1530 2073 
Q 1351 1995 1101 1995 
Q 835 1995 657 2073 
Q 479 2151 372 2290 
Q 266 2429 222 2623 
Q 179 2817 179 3051 
Q 179 3286 232 3481 
Q 285 3676 399 3820 
Q 513 3964 693 4043 
Q 873 4123 1126 4123 
Q 1404 4123 1583 4038 
Q 1763 3954 1866 3810 
Q 1970 3667 2010 3476 
Q 2051 3286 2051 3076 
z
M 1432 3054 
Q 1432 3226 1413 3346 
Q 1395 3467 1357 3542 
Q 1320 3617 1257 3651 
Q 1195 3686 1110 3686 
Q 1032 3686 972 3653 
Q 913 3620 874 3546 
Q 835 3473 816 3356 
Q 798 3239 798 3070 
Q 798 2876 819 2752 
Q 841 2629 882 2559 
Q 923 2489 982 2462 
Q 1041 2436 1120 2436 
Q 1210 2436 1269 2471 
Q 1329 2507 1365 2582 
Q 1401 2657 1416 2774 
Q 1432 2892 1432 3054 
z
M 4491 1028 
Q 4491 781 4436 582 
Q 4381 384 4265 243 
Q 4150 103 3970 25 
Q 3791 -53 3541 -53 
Q 3275 -53 3097 25 
Q 2919 103 2812 242 
Q 2706 381 2662 575 
Q 2619 769 2619 1003 
Q 2619 1238 2672 1433 
Q 2725 1628 2839 1772 
Q 2953 1916 3133 1995 
Q 3313 2075 3566 2075 
Q 3844 2075 4023 1990 
Q 4203 1906 4306 1762 
Q 4410 1619 4450 1428 
Q 4491 1238 4491 1028 
z
M 3872 1006 
Q 3872 1178 3853 1298 
Q 3835 1419 3797 1494 
Q 3760 1569 3697 1603 
Q 3635 1638 3550 1638 
Q 3472 1638 3412 1605 
Q 3353 1572 3314 1498 
Q 3275 1425 3256 1308 
Q 3238 1191 3238 1022 
Q 3238 828 3259 704 
Q 3281 581 3322 511 
Q 3363 441 3422 414 
Q 3481 388 3560 388 
Q 3650 388 3709 423 
Q 3769 459 3805 534 
Q 3841 609 3856 726 
Q 3872 844 3872 1006 
z
M 1197 22 
Q 1168 -16 1138 -39 
Q 1109 -63 1065 -78 
Q 1022 -94 959 -100 
Q 897 -106 806 -106 
Q 703 -106 642 -93 
Q 581 -81 554 -56 
Q 528 -31 532 1 
Q 537 34 572 81 
L 3453 4028 
Q 3481 4063 3509 4088 
Q 3537 4113 3582 4128 
Q 3628 4144 3690 4150 
Q 3753 4156 3843 4156 
Q 3947 4156 4007 4143 
Q 4068 4131 4095 4106 
Q 4122 4081 4115 4047 
Q 4109 4013 4078 3969 
L 1197 22 
z
" transform="scale(0.015625)"/>
       <path id="Calibri-Bold-5d" d="M 1594 -794 
Q 1594 -863 1573 -913 
Q 1553 -963 1522 -994 
Q 1491 -1025 1447 -1040 
Q 1403 -1056 1350 -1056 
L 381 -1056 
Q 328 -1056 300 -993 
Q 272 -931 272 -775 
Q 272 -694 280 -641 
Q 288 -588 302 -553 
Q 316 -519 336 -506 
Q 356 -494 381 -494 
L 856 -494 
L 856 3859 
L 381 3859 
Q 328 3859 300 3920 
Q 272 3981 272 4141 
Q 272 4222 280 4275 
Q 288 4328 302 4361 
Q 316 4394 336 4408 
Q 356 4422 381 4422 
L 1350 4422 
Q 1403 4422 1447 4408 
Q 1491 4394 1522 4361 
Q 1553 4328 1573 4278 
Q 1594 4228 1594 4163 
L 1594 -794 
z
" transform="scale(0.015625)"/>
      </defs>
      <use xlink:href="#Calibri-Bold-49"/>
      <use xlink:href="#Calibri-Bold-6d" transform="translate(26.660156 0)"/>
      <use xlink:href="#Calibri-Bold-70" transform="translate(108.007812 0)"/>
      <use xlink:href="#Calibri-Bold-6c" transform="translate(161.669922 0)"/>
      <use xlink:href="#Calibri-Bold-69" transform="translate(186.230469 0)"/>
      <use xlink:href="#Calibri-Bold-65" transform="translate(210.791016 0)"/>
      <use xlink:href="#Calibri-Bold-64" transform="translate(261.132812 0)"/>
      <use xlink:href="#Calibri-Bold-20" transform="translate(314.794922 0)"/>
      <use xlink:href="#Calibri-Bold-57" transform="translate(337.402344 0)"/>
      <use xlink:href="#Calibri-Bold-41" transform="translate(428.027344 0)"/>
      <use xlink:href="#Calibri-Bold-43" transform="translate(487.498047 0)"/>
      <use xlink:href="#Calibri-Bold-43" transform="translate(540.427734 0)"/>
      <use xlink:href="#Calibri-Bold-20" transform="translate(593.357422 0)"/>
      <use xlink:href="#Calibri-Bold-5b" transform="translate(615.964844 0)"/>
      <use xlink:href="#Calibri-Bold-25" transform="translate(648.435547 0)"/>
      <use xlink:href="#Calibri-Bold-5d" transform="translate(721.335938 0)"/>
     </g>
    </g>
   </g>
   <g id="line2d_17">
    <path d="M 69.354318 152.31 
L 223.166439 131.5109 
L 376.978561 105.63295 
L 530.790682 81.2061 
" clip-path="url(#p4d0e59dd0b)" style="fill: none; stroke: #e63946; stroke-width: 2.5; stroke-linecap: square"/>
    <defs>
     <path id="mafac4b2968" d="M 0 4 
C 1.060812 4 2.078319 3.578535 2.828427 2.828427 
C 3.578535 2.078319 4 1.060812 4 0 
C 4 -1.060812 3.578535 -2.078319 2.828427 -2.828427 
C 2.078319 -3.578535 1.060812 -4 0 -4 
C -1.060812 -4 -2.078319 -3.578535 -2.828427 -2.828427 
C -3.578535 -2.078319 -4 -1.060812 -4 0 
C -4 1.060812 -3.578535 2.078319 -2.828427 2.828427 
C -2.078319 3.578535 -1.060812 4 0 4 
z
" style="stroke: #e63946"/>
    </defs>
    <g clip-path="url(#p4d0e59dd0b)">
     <use xlink:href="#mafac4b2968" x="69.354318" y="152.31" style="fill: #e63946; stroke: #e63946"/>
     <use xlink:href="#mafac4b2968" x="223.166439" y="131.5109" style="fill: #e63946; stroke: #e63946"/>
     <use xlink:href="#mafac4b2968" x="376.978561" y="105.63295" style="fill: #e63946; stroke: #e63946"/>
     <use xlink:href="#mafac4b2968" x="530.790682" y="81.2061" style="fill: #e63946; stroke: #e63946"/>
    </g>
   </g>
   <g id="line2d_18">
    <path d="M 69.354318 152.31 
L 223.166439 124.2554 
L 376.978561 94.7497 
L 530.790682 36.7057 
" clip-path="url(#p4d0e59dd0b)" style="fill: none; stroke-dasharray: 9.25,4; stroke-dashoffset: 0; stroke: #ff7f0e; stroke-width: 2.5"/>
    <defs>
     <path id="md5135c0f06" d="M 0 -4 
L -4 4 
L 4 4 
z
" style="stroke: #ff7f0e; stroke-linejoin: miter"/>
    </defs>
    <g clip-path="url(#p4d0e59dd0b)">
     <use xlink:href="#md5135c0f06" x="69.354318" y="152.31" style="fill: #ff7f0e; stroke: #ff7f0e; stroke-linejoin: miter"/>
     <use xlink:href="#md5135c0f06" x="223.166439" y="124.2554" style="fill: #ff7f0e; stroke: #ff7f0e; stroke-linejoin: miter"/>
     <use xlink:href="#md5135c0f06" x="376.978561" y="94.7497" style="fill: #ff7f0e; stroke: #ff7f0e; stroke-linejoin: miter"/>
     <use xlink:href="#md5135c0f06" x="530.790682" y="36.7057" style="fill: #ff7f0e; stroke: #ff7f0e; stroke-linejoin: miter"/>
    </g>
   </g>
   <g id="line2d_19">
    <path d="M 69.354318 176.495 
L 223.166439 176.495 
L 376.978561 176.495 
L 530.790682 176.495 
" clip-path="url(#p4d0e59dd0b)" style="fill: none; stroke: #003f5c; stroke-width: 2.5; stroke-linecap: square"/>
    <defs>
     <path id="m3205f0bbe3" d="M 0 4 
C 1.060812 4 2.078319 3.578535 2.828427 2.828427 
C 3.578535 2.078319 4 1.060812 4 0 
C 4 -1.060812 3.578535 -2.078319 2.828427 -2.828427 
C 2.078319 -3.578535 1.060812 -4 0 -4 
C -1.060812 -4 -2.078319 -3.578535 -2.828427 -2.828427 
C -3.578535 -2.078319 -4 -1.060812 -4 0 
C -4 1.060812 -3.578535 2.078319 -2.828427 2.828427 
C -2.078319 3.578535 -1.060812 4 0 4 
z
" style="stroke: #003f5c"/>
    </defs>
    <g clip-path="url(#p4d0e59dd0b)">
     <use xlink:href="#m3205f0bbe3" x="69.354318" y="176.495" style="fill: #003f5c; stroke: #003f5c"/>
     <use xlink:href="#m3205f0bbe3" x="223.166439" y="176.495" style="fill: #003f5c; stroke: #003f5c"/>
     <use xlink:href="#m3205f0bbe3" x="376.978561" y="176.495" style="fill: #003f5c; stroke: #003f5c"/>
     <use xlink:href="#m3205f0bbe3" x="530.790682" y="176.495" style="fill: #003f5c; stroke: #003f5c"/>
    </g>
   </g>
   <g id="line2d_20">
    <path d="M 69.354318 176.495 
L 223.166439 162.9514 
L 376.978561 161.984 
L 530.790682 158.83995 
" clip-path="url(#p4d0e59dd0b)" style="fill: none; stroke-dasharray: 9.25,4; stroke-dashoffset: 0; stroke: #17becf; stroke-width: 2.5"/>
    <defs>
     <path id="mcf358eae2b" d="M 0 -4 
L -4 4 
L 4 4 
z
" style="stroke: #17becf; stroke-linejoin: miter"/>
    </defs>
    <g clip-path="url(#p4d0e59dd0b)">
     <use xlink:href="#mcf358eae2b" x="69.354318" y="176.495" style="fill: #17becf; stroke: #17becf; stroke-linejoin: miter"/>
     <use xlink:href="#mcf358eae2b" x="223.166439" y="162.9514" style="fill: #17becf; stroke: #17becf; stroke-linejoin: miter"/>
     <use xlink:href="#mcf358eae2b" x="376.978561" y="161.984" style="fill: #17becf; stroke: #17becf; stroke-linejoin: miter"/>
     <use xlink:href="#mcf358eae2b" x="530.790682" y="158.83995" style="fill: #17becf; stroke: #17becf; stroke-linejoin: miter"/>
    </g>
   </g>
   <g id="patch_3">
    <path d="M 46.2825 200.68 
L 46.2825 7.2 
" style="fill: none; stroke: #000000; stroke-width: 0.8; stroke-linejoin: miter; stroke-linecap: square"/>
   </g>
   <g id="patch_4">
    <path d="M 553.8625 200.68 
L 553.8625 7.2 
" style="fill: none; stroke: #000000; stroke-width: 0.8; stroke-linejoin: miter; stroke-linecap: square"/>
   </g>
   <g id="patch_5">
    <path d="M 46.2825 200.68 
L 553.8625 200.68 
" style="fill: none; stroke: #000000; stroke-width: 0.8; stroke-linejoin: miter; stroke-linecap: square"/>
   </g>
   <g id="patch_6">
    <path d="M 46.2825 7.2 
L 553.8625 7.2 
" style="fill: none; stroke: #000000; stroke-width: 0.8; stroke-linejoin: miter; stroke-linecap: square"/>
   </g>
   <g id="text_11">
    <!-- 7.00 -->
    <g style="fill: #e63946" transform="translate(56.840724 166.662625) scale(0.14 -0.14)">
     <defs>
      <path id="Calibri-Bold-37" d="M 2984 3697 
Q 2984 3606 2978 3539 
Q 2972 3472 2961 3414 
Q 2950 3356 2931 3304 
Q 2913 3253 2888 3194 
L 1556 109 
Q 1538 69 1508 44 
Q 1478 19 1425 5 
Q 1372 -9 1289 -14 
Q 1206 -19 1084 -19 
Q 919 -19 822 -8 
Q 725 3 679 26 
Q 634 50 631 86 
Q 628 122 653 175 
L 2084 3331 
L 384 3331 
Q 319 3331 286 3417 
Q 253 3503 253 3691 
Q 253 3784 262 3851 
Q 272 3919 289 3962 
Q 306 4006 329 4025 
Q 353 4044 384 4044 
L 2788 4044 
Q 2844 4044 2881 4033 
Q 2919 4022 2941 3984 
Q 2963 3947 2973 3878 
Q 2984 3809 2984 3697 
z
" transform="scale(0.015625)"/>
      <path id="Calibri-Bold-2e" d="M 1319 450 
Q 1319 159 1217 59 
Q 1116 -41 853 -41 
Q 591 -41 491 57 
Q 391 156 391 431 
Q 391 725 492 825 
Q 594 925 859 925 
Q 1119 925 1219 826 
Q 1319 728 1319 450 
z
" transform="scale(0.015625)"/>
      <path id="Calibri-Bold-30" d="M 3069 2038 
Q 3069 1553 2991 1162 
Q 2913 772 2736 497 
Q 2559 222 2276 75 
Q 1994 -72 1584 -72 
Q 1169 -72 897 70 
Q 625 213 465 480 
Q 306 747 242 1133 
Q 178 1519 178 2006 
Q 178 2488 258 2880 
Q 338 3272 514 3547 
Q 691 3822 973 3969 
Q 1256 4116 1663 4116 
Q 2078 4116 2351 3973 
Q 2625 3831 2784 3564 
Q 2944 3297 3006 2911 
Q 3069 2525 3069 2038 
z
M 2241 1997 
Q 2241 2284 2225 2504 
Q 2209 2725 2176 2887 
Q 2144 3050 2095 3162 
Q 2047 3275 1978 3342 
Q 1909 3409 1821 3437 
Q 1734 3466 1628 3466 
Q 1444 3466 1323 3377 
Q 1203 3288 1133 3109 
Q 1063 2931 1034 2665 
Q 1006 2400 1006 2047 
Q 1006 1616 1040 1333 
Q 1075 1050 1148 883 
Q 1222 716 1337 648 
Q 1453 581 1616 581 
Q 1738 581 1831 620 
Q 1925 659 1995 737 
Q 2066 816 2112 934 
Q 2159 1053 2189 1209 
Q 2219 1366 2230 1562 
Q 2241 1759 2241 1997 
z
" transform="scale(0.015625)"/>
     </defs>
     <use xlink:href="#Calibri-Bold-37"/>
     <use xlink:href="#Calibri-Bold-2e" transform="translate(50.683594 0)"/>
     <use xlink:href="#Calibri-Bold-30" transform="translate(77.392578 0)"/>
     <use xlink:href="#Calibri-Bold-30" transform="translate(128.076172 0)"/>
    </g>
   </g>
   <g id="text_12">
    <!-- 7.86 -->
    <g style="fill: #e63946" transform="translate(210.652846 145.863525) scale(0.14 -0.14)">
     <defs>
      <path id="Calibri-Bold-38" d="M 3050 1084 
Q 3050 809 2954 593 
Q 2859 378 2673 229 
Q 2488 81 2213 4 
Q 1938 -72 1578 -72 
Q 1234 -72 975 -3 
Q 716 66 541 198 
Q 366 331 278 526 
Q 191 722 191 975 
Q 191 1147 242 1298 
Q 294 1450 395 1579 
Q 497 1709 648 1823 
Q 800 1938 997 2041 
Q 838 2128 709 2229 
Q 581 2331 490 2451 
Q 400 2572 353 2715 
Q 306 2859 306 3028 
Q 306 3272 392 3470 
Q 478 3669 648 3814 
Q 819 3959 1075 4037 
Q 1331 4116 1669 4116 
Q 2003 4116 2242 4044 
Q 2481 3972 2634 3840 
Q 2788 3709 2861 3526 
Q 2934 3344 2934 3122 
Q 2934 2975 2886 2836 
Q 2838 2697 2750 2572 
Q 2663 2447 2534 2336 
Q 2406 2225 2244 2134 
Q 2434 2034 2584 1921 
Q 2734 1809 2837 1679 
Q 2941 1550 2995 1403 
Q 3050 1256 3050 1084 
z
M 2144 3047 
Q 2144 3156 2112 3243 
Q 2081 3331 2014 3392 
Q 1947 3453 1848 3484 
Q 1750 3516 1616 3516 
Q 1353 3516 1225 3395 
Q 1097 3275 1097 3063 
Q 1097 2963 1130 2878 
Q 1163 2794 1231 2719 
Q 1300 2644 1409 2572 
Q 1519 2500 1669 2419 
Q 1897 2553 2020 2706 
Q 2144 2859 2144 3047 
z
M 2238 1028 
Q 2238 1144 2198 1239 
Q 2159 1334 2076 1418 
Q 1994 1503 1869 1581 
Q 1744 1659 1578 1741 
Q 1434 1663 1325 1584 
Q 1216 1506 1144 1420 
Q 1072 1334 1036 1239 
Q 1000 1144 1000 1034 
Q 1000 791 1158 662 
Q 1316 534 1628 534 
Q 1934 534 2086 665 
Q 2238 797 2238 1028 
z
" transform="scale(0.015625)"/>
      <path id="Calibri-Bold-36" d="M 3050 1350 
Q 3050 1044 2956 783 
Q 2863 522 2681 333 
Q 2500 144 2234 36 
Q 1969 -72 1622 -72 
Q 1341 -72 1131 -8 
Q 922 56 769 176 
Q 616 297 519 469 
Q 422 641 364 856 
Q 306 1072 284 1325 
Q 263 1578 263 1863 
Q 263 2100 286 2359 
Q 309 2619 376 2869 
Q 444 3119 566 3345 
Q 688 3572 880 3742 
Q 1072 3913 1345 4013 
Q 1619 4113 1994 4113 
Q 2113 4113 2233 4098 
Q 2353 4084 2456 4062 
Q 2559 4041 2631 4012 
Q 2703 3984 2726 3964 
Q 2750 3944 2762 3919 
Q 2775 3894 2783 3864 
Q 2791 3834 2794 3790 
Q 2797 3747 2797 3684 
Q 2797 3588 2792 3523 
Q 2788 3459 2775 3423 
Q 2763 3388 2741 3372 
Q 2719 3356 2688 3356 
Q 2650 3356 2590 3376 
Q 2531 3397 2447 3422 
Q 2363 3447 2248 3465 
Q 2134 3484 1984 3484 
Q 1731 3484 1556 3390 
Q 1381 3297 1272 3136 
Q 1163 2975 1113 2762 
Q 1063 2550 1059 2313 
Q 1128 2356 1217 2400 
Q 1306 2444 1411 2475 
Q 1516 2506 1637 2526 
Q 1759 2547 1897 2547 
Q 2203 2547 2422 2462 
Q 2641 2378 2780 2222 
Q 2919 2066 2984 1844 
Q 3050 1622 3050 1350 
z
M 2244 1272 
Q 2244 1431 2216 1551 
Q 2188 1672 2125 1755 
Q 2063 1838 1959 1880 
Q 1856 1922 1709 1922 
Q 1622 1922 1537 1906 
Q 1453 1891 1372 1862 
Q 1291 1834 1216 1795 
Q 1141 1756 1075 1713 
Q 1075 1378 1112 1154 
Q 1150 931 1223 800 
Q 1297 669 1408 614 
Q 1519 559 1666 559 
Q 1809 559 1917 612 
Q 2025 666 2097 762 
Q 2169 859 2206 989 
Q 2244 1119 2244 1272 
z
" transform="scale(0.015625)"/>
     </defs>
     <use xlink:href="#Calibri-Bold-37"/>
     <use xlink:href="#Calibri-Bold-2e" transform="translate(50.683594 0)"/>
     <use xlink:href="#Calibri-Bold-38" transform="translate(77.392578 0)"/>
     <use xlink:href="#Calibri-Bold-36" transform="translate(128.076172 0)"/>
    </g>
   </g>
   <g id="text_13">
    <!-- 8.93 -->
    <g style="fill: #e63946" transform="translate(364.464967 119.985575) scale(0.14 -0.14)">
     <defs>
      <path id="Calibri-Bold-39" d="M 2997 2206 
Q 2997 1959 2972 1695 
Q 2947 1431 2876 1178 
Q 2806 925 2682 697 
Q 2559 469 2364 298 
Q 2169 128 1889 28 
Q 1609 -72 1228 -72 
Q 1094 -72 961 -53 
Q 828 -34 718 -6 
Q 609 22 532 53 
Q 456 84 422 117 
Q 388 150 372 212 
Q 356 275 356 388 
Q 356 491 361 553 
Q 366 616 380 650 
Q 394 684 414 695 
Q 434 706 463 706 
Q 500 706 569 684 
Q 638 663 736 634 
Q 834 606 959 584 
Q 1084 563 1238 563 
Q 1500 563 1681 656 
Q 1863 750 1975 909 
Q 2088 1069 2141 1278 
Q 2194 1488 2200 1719 
Q 2056 1628 1853 1561 
Q 1650 1494 1388 1494 
Q 1066 1494 841 1578 
Q 616 1663 475 1822 
Q 334 1981 270 2209 
Q 206 2438 206 2725 
Q 206 3028 297 3283 
Q 388 3538 566 3723 
Q 744 3909 1009 4012 
Q 1275 4116 1625 4116 
Q 1906 4116 2117 4050 
Q 2328 3984 2479 3862 
Q 2631 3741 2732 3567 
Q 2834 3394 2892 3181 
Q 2950 2969 2973 2722 
Q 2997 2475 2997 2206 
z
M 2181 2319 
Q 2181 2653 2143 2878 
Q 2106 3103 2031 3237 
Q 1956 3372 1843 3428 
Q 1731 3484 1581 3484 
Q 1434 3484 1328 3432 
Q 1222 3381 1151 3287 
Q 1081 3194 1047 3066 
Q 1013 2938 1013 2784 
Q 1013 2619 1042 2492 
Q 1072 2366 1136 2283 
Q 1200 2200 1303 2159 
Q 1406 2119 1553 2119 
Q 1734 2119 1895 2173 
Q 2056 2228 2181 2319 
z
" transform="scale(0.015625)"/>
      <path id="Calibri-Bold-33" d="M 2969 1184 
Q 2969 881 2853 647 
Q 2738 413 2531 253 
Q 2325 94 2037 11 
Q 1750 -72 1409 -72 
Q 1203 -72 1022 -42 
Q 841 -13 702 31 
Q 563 75 472 122 
Q 381 169 353 194 
Q 325 219 311 250 
Q 297 281 286 323 
Q 275 366 270 430 
Q 266 494 266 584 
Q 266 734 291 792 
Q 316 850 366 850 
Q 397 850 473 808 
Q 550 766 669 717 
Q 788 669 947 626 
Q 1106 584 1309 584 
Q 1481 584 1612 625 
Q 1744 666 1836 739 
Q 1928 813 1973 917 
Q 2019 1022 2019 1150 
Q 2019 1291 1964 1403 
Q 1909 1516 1801 1595 
Q 1694 1675 1530 1719 
Q 1366 1763 1144 1763 
L 794 1763 
Q 753 1763 725 1773 
Q 697 1784 678 1818 
Q 659 1853 651 1914 
Q 644 1975 644 2072 
Q 644 2163 651 2220 
Q 659 2278 676 2309 
Q 694 2341 720 2353 
Q 747 2366 784 2366 
L 1138 2366 
Q 1319 2366 1459 2408 
Q 1600 2450 1695 2528 
Q 1791 2606 1841 2717 
Q 1891 2828 1891 2963 
Q 1891 3066 1856 3158 
Q 1822 3250 1755 3317 
Q 1688 3384 1581 3423 
Q 1475 3463 1331 3463 
Q 1169 3463 1025 3414 
Q 881 3366 767 3308 
Q 653 3250 573 3200 
Q 494 3150 456 3150 
Q 431 3150 412 3161 
Q 394 3172 381 3203 
Q 369 3234 362 3293 
Q 356 3353 356 3447 
Q 356 3525 359 3576 
Q 363 3628 372 3662 
Q 381 3697 395 3722 
Q 409 3747 440 3776 
Q 472 3806 569 3865 
Q 666 3925 812 3981 
Q 959 4038 1151 4077 
Q 1344 4116 1569 4116 
Q 1863 4116 2089 4047 
Q 2316 3978 2470 3848 
Q 2625 3719 2704 3530 
Q 2784 3341 2784 3103 
Q 2784 2919 2737 2759 
Q 2691 2600 2600 2475 
Q 2509 2350 2373 2262 
Q 2238 2175 2059 2131 
L 2059 2122 
Q 2272 2097 2440 2014 
Q 2609 1931 2726 1806 
Q 2844 1681 2906 1523 
Q 2969 1366 2969 1184 
z
" transform="scale(0.015625)"/>
     </defs>
     <use xlink:href="#Calibri-Bold-38"/>
     <use xlink:href="#Calibri-Bold-2e" transform="translate(50.683594 0)"/>
     <use xlink:href="#Calibri-Bold-39" transform="translate(77.392578 0)"/>
     <use xlink:href="#Calibri-Bold-33" transform="translate(128.076172 0)"/>
    </g>
   </g>
   <g id="text_14">
    <!-- 9.94 -->
    <g style="fill: #e63946" transform="translate(518.277088 95.558725) scale(0.14 -0.14)">
     <defs>
      <path id="Calibri-Bold-34" d="M 3113 1163 
Q 3113 1003 3080 920 
Q 3047 838 2991 838 
L 2631 838 
L 2631 106 
Q 2631 75 2612 51 
Q 2594 28 2547 12 
Q 2500 -3 2425 -11 
Q 2350 -19 2231 -19 
Q 2119 -19 2042 -11 
Q 1966 -3 1920 12 
Q 1875 28 1858 51 
Q 1841 75 1841 106 
L 1841 838 
L 294 838 
Q 250 838 215 848 
Q 181 859 157 898 
Q 134 938 123 1011 
Q 113 1084 113 1206 
Q 113 1306 117 1379 
Q 122 1453 133 1512 
Q 144 1572 164 1625 
Q 184 1678 216 1738 
L 1472 3953 
Q 1488 3981 1525 4001 
Q 1563 4022 1630 4036 
Q 1697 4050 1800 4056 
Q 1903 4063 2050 4063 
Q 2209 4063 2321 4055 
Q 2434 4047 2501 4030 
Q 2569 4013 2600 3988 
Q 2631 3963 2631 3928 
L 2631 1494 
L 2991 1494 
Q 3041 1494 3077 1417 
Q 3113 1341 3113 1163 
z
M 1841 3353 
L 1834 3353 
L 769 1494 
L 1841 1494 
L 1841 3353 
z
" transform="scale(0.015625)"/>
     </defs>
     <use xlink:href="#Calibri-Bold-39"/>
     <use xlink:href="#Calibri-Bold-2e" transform="translate(50.683594 0)"/>
     <use xlink:href="#Calibri-Bold-39" transform="translate(77.392578 0)"/>
     <use xlink:href="#Calibri-Bold-34" transform="translate(128.076172 0)"/>
    </g>
   </g>
   <g id="text_15">
    <!-- 8.16 -->
    <g style="fill: #ff7f0e" transform="translate(210.652846 116.937775) scale(0.14 -0.14)">
     <defs>
      <path id="Calibri-Bold-31" d="M 2950 313 
Q 2950 225 2940 164 
Q 2931 103 2914 67 
Q 2897 31 2875 15 
Q 2853 0 2825 0 
L 594 0 
Q 569 0 547 15 
Q 525 31 508 67 
Q 491 103 481 164 
Q 472 225 472 313 
Q 472 403 480 464 
Q 488 525 505 562 
Q 522 600 544 617 
Q 566 634 594 634 
L 1347 634 
L 1347 3266 
L 697 2906 
Q 625 2872 579 2864 
Q 534 2856 507 2882 
Q 481 2909 472 2975 
Q 463 3041 463 3159 
Q 463 3234 466 3282 
Q 469 3331 481 3365 
Q 494 3400 516 3422 
Q 538 3444 575 3469 
L 1444 4031 
Q 1459 4044 1482 4051 
Q 1506 4059 1543 4064 
Q 1581 4069 1642 4070 
Q 1703 4072 1800 4072 
Q 1919 4072 1992 4067 
Q 2066 4063 2103 4052 
Q 2141 4041 2153 4022 
Q 2166 4003 2166 3975 
L 2166 634 
L 2825 634 
Q 2853 634 2876 617 
Q 2900 600 2917 562 
Q 2934 525 2942 464 
Q 2950 403 2950 313 
z
" transform="scale(0.015625)"/>
     </defs>
     <use xlink:href="#Calibri-Bold-38"/>
     <use xlink:href="#Calibri-Bold-2e" transform="translate(50.683594 0)"/>
     <use xlink:href="#Calibri-Bold-31" transform="translate(77.392578 0)"/>
     <use xlink:href="#Calibri-Bold-36" transform="translate(128.076172 0)"/>
    </g>
   </g>
   <g id="text_16">
    <!-- 9.38 -->
    <g style="fill: #ff7f0e" transform="translate(364.464967 87.432075) scale(0.14 -0.14)">
     <use xlink:href="#Calibri-Bold-39"/>
     <use xlink:href="#Calibri-Bold-2e" transform="translate(50.683594 0)"/>
     <use xlink:href="#Calibri-Bold-33" transform="translate(77.392578 0)"/>
     <use xlink:href="#Calibri-Bold-38" transform="translate(128.076172 0)"/>
    </g>
   </g>
   <g id="text_17">
    <!-- 11.78 -->
    <g style="fill: #ff7f0e" transform="translate(514.728963 29.388075) scale(0.14 -0.14)">
     <use xlink:href="#Calibri-Bold-31"/>
     <use xlink:href="#Calibri-Bold-31" transform="translate(50.683594 0)"/>
     <use xlink:href="#Calibri-Bold-2e" transform="translate(101.367188 0)"/>
     <use xlink:href="#Calibri-Bold-37" transform="translate(128.076172 0)"/>
     <use xlink:href="#Calibri-Bold-38" transform="translate(178.759766 0)"/>
    </g>
   </g>
   <g id="text_18">
    <!-- 6.00 -->
    <g style="fill: #003f5c" transform="translate(56.840724 190.847625) scale(0.14 -0.14)">
     <use xlink:href="#Calibri-Bold-36"/>
     <use xlink:href="#Calibri-Bold-2e" transform="translate(50.683594 0)"/>
     <use xlink:href="#Calibri-Bold-30" transform="translate(77.392578 0)"/>
     <use xlink:href="#Calibri-Bold-30" transform="translate(128.076172 0)"/>
    </g>
   </g>
   <g id="text_19">
    <!-- 6.00 -->
    <g style="fill: #003f5c" transform="translate(210.652846 190.847625) scale(0.14 -0.14)">
     <use xlink:href="#Calibri-Bold-36"/>
     <use xlink:href="#Calibri-Bold-2e" transform="translate(50.683594 0)"/>
     <use xlink:href="#Calibri-Bold-30" transform="translate(77.392578 0)"/>
     <use xlink:href="#Calibri-Bold-30" transform="translate(128.076172 0)"/>
    </g>
   </g>
   <g id="text_20">
    <!-- 6.00 -->
    <g style="fill: #003f5c" transform="translate(364.464967 190.847625) scale(0.14 -0.14)">
     <use xlink:href="#Calibri-Bold-36"/>
     <use xlink:href="#Calibri-Bold-2e" transform="translate(50.683594 0)"/>
     <use xlink:href="#Calibri-Bold-30" transform="translate(77.392578 0)"/>
     <use xlink:href="#Calibri-Bold-30" transform="translate(128.076172 0)"/>
    </g>
   </g>
   <g id="text_21">
    <!-- 6.00 -->
    <g style="fill: #003f5c" transform="translate(518.277088 190.847625) scale(0.14 -0.14)">
     <use xlink:href="#Calibri-Bold-36"/>
     <use xlink:href="#Calibri-Bold-2e" transform="translate(50.683594 0)"/>
     <use xlink:href="#Calibri-Bold-30" transform="translate(77.392578 0)"/>
     <use xlink:href="#Calibri-Bold-30" transform="translate(128.076172 0)"/>
    </g>
   </g>
   <g id="text_22">
    <!-- 6.56 -->
    <g style="fill: #17becf" transform="translate(210.652846 155.633775) scale(0.14 -0.14)">
     <defs>
      <path id="Calibri-Bold-35" d="M 2950 1313 
Q 2950 984 2836 726 
Q 2722 469 2514 292 
Q 2306 116 2014 22 
Q 1722 -72 1366 -72 
Q 1178 -72 1009 -48 
Q 841 -25 706 11 
Q 572 47 486 83 
Q 400 119 373 142 
Q 347 166 334 194 
Q 322 222 314 261 
Q 306 300 303 359 
Q 300 419 300 500 
Q 300 588 306 648 
Q 313 709 327 746 
Q 341 784 359 800 
Q 378 816 403 816 
Q 434 816 498 780 
Q 563 744 667 700 
Q 772 656 922 620 
Q 1072 584 1281 584 
Q 1463 584 1611 621 
Q 1759 659 1862 742 
Q 1966 825 2022 950 
Q 2078 1075 2078 1250 
Q 2078 1400 2031 1517 
Q 1984 1634 1884 1715 
Q 1784 1797 1625 1837 
Q 1466 1878 1238 1878 
Q 1056 1878 907 1859 
Q 759 1841 628 1841 
Q 538 1841 498 1886 
Q 459 1931 459 2053 
L 459 3809 
Q 459 3934 507 3989 
Q 556 4044 663 4044 
L 2578 4044 
Q 2606 4044 2631 4025 
Q 2656 4006 2673 3965 
Q 2691 3925 2698 3858 
Q 2706 3791 2706 3697 
Q 2706 3509 2673 3425 
Q 2641 3341 2578 3341 
L 1141 3341 
L 1141 2475 
Q 1250 2488 1358 2491 
Q 1466 2494 1584 2494 
Q 1913 2494 2167 2417 
Q 2422 2341 2595 2192 
Q 2769 2044 2859 1823 
Q 2950 1603 2950 1313 
z
" transform="scale(0.015625)"/>
     </defs>
     <use xlink:href="#Calibri-Bold-36"/>
     <use xlink:href="#Calibri-Bold-2e" transform="translate(50.683594 0)"/>
     <use xlink:href="#Calibri-Bold-35" transform="translate(77.392578 0)"/>
     <use xlink:href="#Calibri-Bold-36" transform="translate(128.076172 0)"/>
    </g>
   </g>
   <g id="text_23">
    <!-- 6.60 -->
    <g style="fill: #17becf" transform="translate(364.464967 154.666375) scale(0.14 -0.14)">
     <use xlink:href="#Calibri-Bold-36"/>
     <use xlink:href="#Calibri-Bold-2e" transform="translate(50.683594 0)"/>
     <use xlink:href="#Calibri-Bold-36" transform="translate(77.392578 0)"/>
     <use xlink:href="#Calibri-Bold-30" transform="translate(128.076172 0)"/>
    </g>
   </g>
   <g id="text_24">
    <!-- 6.73 -->
    <g style="fill: #17becf" transform="translate(518.277088 151.522325) scale(0.14 -0.14)">
     <use xlink:href="#Calibri-Bold-36"/>
     <use xlink:href="#Calibri-Bold-2e" transform="translate(50.683594 0)"/>
     <use xlink:href="#Calibri-Bold-37" transform="translate(77.392578 0)"/>
     <use xlink:href="#Calibri-Bold-33" transform="translate(128.076172 0)"/>
    </g>
   </g>
   <g id="legend_1">
    <g id="line2d_21">
     <path d="M 58.8825 24.7 
L 72.8825 24.7 
L 86.8825 24.7 
" style="fill: none; stroke: #e63946; stroke-width: 2.5; stroke-linecap: square"/>
     <g>
      <use xlink:href="#mafac4b2968" x="72.8825" y="24.7" style="fill: #e63946; stroke: #e63946"/>
     </g>
    </g>
    <g id="text_25">
     <!-- H Power -->
     <g transform="translate(98.0825 29.6) scale(0.14 -0.14)">
      <defs>
       <path id="Calibri-48" d="M 3450 81 
Q 3450 56 3437 37 
Q 3425 19 3394 8 
Q 3363 -3 3311 -11 
Q 3259 -19 3184 -19 
Q 3103 -19 3053 -11 
Q 3003 -3 2972 8 
Q 2941 19 2928 37 
Q 2916 56 2916 81 
L 2916 1875 
L 1075 1875 
L 1075 81 
Q 1075 56 1062 37 
Q 1050 19 1019 8 
Q 988 -3 936 -11 
Q 884 -19 806 -19 
Q 731 -19 678 -11 
Q 625 -3 594 8 
Q 563 19 550 37 
Q 538 56 538 81 
L 538 3963 
Q 538 3988 550 4006 
Q 563 4025 594 4036 
Q 625 4047 678 4055 
Q 731 4063 806 4063 
Q 884 4063 936 4055 
Q 988 4047 1019 4036 
Q 1050 4025 1062 4006 
Q 1075 3988 1075 3963 
L 1075 2344 
L 2916 2344 
L 2916 3963 
Q 2916 3988 2928 4006 
Q 2941 4025 2972 4036 
Q 3003 4047 3053 4055 
Q 3103 4063 3184 4063 
Q 3259 4063 3311 4055 
Q 3363 4047 3394 4036 
Q 3425 4025 3437 4006 
Q 3450 3988 3450 3963 
L 3450 81 
z
" transform="scale(0.015625)"/>
       <path id="Calibri-2082" d="M 1922 -447 
Q 1922 -538 1903 -584 
Q 1884 -631 1841 -631 
L 372 -631 
Q 338 -631 311 -625 
Q 284 -619 267 -600 
Q 250 -581 242 -547 
Q 234 -513 234 -459 
Q 234 -409 239 -375 
Q 244 -341 256 -311 
Q 269 -281 289 -254 
Q 309 -228 341 -194 
L 819 275 
Q 975 425 1070 547 
Q 1166 669 1219 769 
Q 1272 869 1287 953 
Q 1303 1038 1303 1113 
Q 1303 1259 1203 1353 
Q 1103 1447 919 1447 
Q 803 1447 711 1415 
Q 619 1384 548 1350 
Q 478 1316 428 1284 
Q 378 1253 353 1253 
Q 341 1253 327 1262 
Q 313 1272 303 1295 
Q 294 1319 289 1355 
Q 284 1391 284 1441 
Q 284 1509 293 1551 
Q 303 1594 331 1622 
Q 359 1650 425 1689 
Q 491 1728 583 1761 
Q 675 1794 787 1816 
Q 900 1838 1025 1838 
Q 1222 1838 1370 1788 
Q 1519 1738 1616 1650 
Q 1713 1563 1761 1441 
Q 1809 1319 1809 1178 
Q 1809 1069 1789 961 
Q 1769 853 1697 720 
Q 1625 588 1489 425 
Q 1353 263 1125 50 
L 794 -266 
L 1838 -266 
Q 1875 -266 1898 -312 
Q 1922 -359 1922 -447 
z
" transform="scale(0.015625)"/>
       <path id="Calibri-20" transform="scale(0.015625)"/>
       <path id="Calibri-50" d="M 3022 2859 
Q 3022 2556 2922 2312 
Q 2822 2069 2636 1897 
Q 2450 1725 2179 1631 
Q 1909 1538 1534 1538 
L 1075 1538 
L 1075 81 
Q 1075 56 1061 37 
Q 1047 19 1017 8 
Q 988 -3 936 -11 
Q 884 -19 806 -19 
Q 728 -19 676 -11 
Q 625 -3 594 8 
Q 563 19 550 37 
Q 538 56 538 81 
L 538 3813 
Q 538 3938 603 3991 
Q 669 4044 750 4044 
L 1616 4044 
Q 1747 4044 1867 4033 
Q 1988 4022 2152 3986 
Q 2316 3950 2486 3851 
Q 2656 3753 2775 3609 
Q 2894 3466 2958 3277 
Q 3022 3088 3022 2859 
z
M 2456 2816 
Q 2456 3063 2364 3228 
Q 2272 3394 2136 3475 
Q 2000 3556 1854 3578 
Q 1709 3600 1572 3600 
L 1075 3600 
L 1075 1978 
L 1559 1978 
Q 1803 1978 1964 2040 
Q 2125 2103 2234 2214 
Q 2344 2325 2400 2479 
Q 2456 2634 2456 2816 
z
" transform="scale(0.015625)"/>
       <path id="Calibri-6f" d="M 3094 1516 
Q 3094 1172 3003 883 
Q 2913 594 2733 384 
Q 2553 175 2283 58 
Q 2013 -59 1656 -59 
Q 1309 -59 1051 44 
Q 794 147 622 344 
Q 450 541 365 822 
Q 281 1103 281 1459 
Q 281 1803 370 2092 
Q 459 2381 639 2590 
Q 819 2800 1087 2915 
Q 1356 3031 1716 3031 
Q 2063 3031 2320 2928 
Q 2578 2825 2750 2628 
Q 2922 2431 3008 2150 
Q 3094 1869 3094 1516 
z
M 2550 1481 
Q 2550 1709 2508 1912 
Q 2466 2116 2369 2269 
Q 2272 2422 2106 2511 
Q 1941 2600 1694 2600 
Q 1466 2600 1302 2519 
Q 1138 2438 1031 2289 
Q 925 2141 873 1937 
Q 822 1734 822 1494 
Q 822 1263 864 1059 
Q 906 856 1004 704 
Q 1103 553 1268 464 
Q 1434 375 1681 375 
Q 1906 375 2072 456 
Q 2238 538 2344 684 
Q 2450 831 2500 1034 
Q 2550 1238 2550 1481 
z
" transform="scale(0.015625)"/>
       <path id="Calibri-77" d="M 4413 2897 
Q 4413 2875 4406 2844 
Q 4400 2813 4384 2766 
L 3556 94 
Q 3547 59 3526 37 
Q 3506 16 3470 3 
Q 3434 -9 3371 -14 
Q 3309 -19 3216 -19 
Q 3119 -19 3053 -12 
Q 2988 -6 2948 6 
Q 2909 19 2890 41 
Q 2872 63 2863 94 
L 2272 2134 
L 2266 2163 
L 2259 2134 
L 1713 94 
Q 1703 59 1683 37 
Q 1663 16 1622 3 
Q 1581 -9 1517 -14 
Q 1453 -19 1359 -19 
Q 1263 -19 1202 -12 
Q 1141 -6 1102 6 
Q 1063 19 1044 41 
Q 1025 63 1016 94 
L 194 2766 
Q 178 2813 172 2844 
Q 166 2875 166 2897 
Q 166 2925 178 2942 
Q 191 2959 220 2970 
Q 250 2981 300 2984 
Q 350 2988 422 2988 
Q 509 2988 562 2983 
Q 616 2978 644 2967 
Q 672 2956 684 2936 
Q 697 2916 706 2888 
L 1384 569 
L 1391 541 
L 1397 569 
L 2019 2888 
Q 2025 2916 2039 2936 
Q 2053 2956 2081 2967 
Q 2109 2978 2157 2983 
Q 2206 2988 2284 2988 
Q 2359 2988 2407 2983 
Q 2456 2978 2484 2967 
Q 2513 2956 2525 2937 
Q 2538 2919 2544 2894 
L 3216 569 
L 3222 541 
L 3225 569 
L 3894 2888 
Q 3900 2916 3914 2936 
Q 3928 2956 3958 2967 
Q 3988 2978 4039 2983 
Q 4091 2988 4172 2988 
Q 4247 2988 4292 2984 
Q 4338 2981 4364 2968 
Q 4391 2956 4402 2940 
Q 4413 2925 4413 2897 
z
" transform="scale(0.015625)"/>
       <path id="Calibri-65" d="M 2878 1606 
Q 2878 1484 2817 1432 
Q 2756 1381 2678 1381 
L 834 1381 
Q 834 1147 881 959 
Q 928 772 1037 637 
Q 1147 503 1322 431 
Q 1497 359 1750 359 
Q 1950 359 2106 392 
Q 2263 425 2377 465 
Q 2491 506 2564 539 
Q 2638 572 2675 572 
Q 2697 572 2714 561 
Q 2731 550 2740 528 
Q 2750 506 2754 467 
Q 2759 428 2759 372 
Q 2759 331 2756 301 
Q 2753 272 2748 248 
Q 2744 225 2733 206 
Q 2722 188 2705 170 
Q 2688 153 2603 114 
Q 2519 75 2384 37 
Q 2250 0 2073 -29 
Q 1897 -59 1697 -59 
Q 1350 -59 1089 37 
Q 828 134 650 325 
Q 472 516 381 803 
Q 291 1091 291 1472 
Q 291 1834 384 2123 
Q 478 2413 654 2614 
Q 831 2816 1081 2923 
Q 1331 3031 1641 3031 
Q 1972 3031 2205 2925 
Q 2438 2819 2588 2639 
Q 2738 2459 2808 2217 
Q 2878 1975 2878 1700 
L 2878 1606 
z
M 2359 1759 
Q 2369 2166 2180 2397 
Q 1991 2628 1619 2628 
Q 1428 2628 1284 2556 
Q 1141 2484 1044 2365 
Q 947 2247 894 2089 
Q 841 1931 834 1759 
L 2359 1759 
z
" transform="scale(0.015625)"/>
       <path id="Calibri-72" d="M 2122 2706 
Q 2122 2638 2119 2591 
Q 2116 2544 2106 2517 
Q 2097 2491 2083 2477 
Q 2069 2463 2044 2463 
Q 2019 2463 1983 2477 
Q 1947 2491 1901 2505 
Q 1856 2519 1800 2531 
Q 1744 2544 1678 2544 
Q 1600 2544 1525 2512 
Q 1450 2481 1367 2409 
Q 1284 2338 1193 2219 
Q 1103 2100 994 1928 
L 994 78 
Q 994 53 981 36 
Q 969 19 941 6 
Q 913 -6 863 -12 
Q 813 -19 734 -19 
Q 659 -19 609 -12 
Q 559 -6 529 6 
Q 500 19 489 36 
Q 478 53 478 78 
L 478 2891 
Q 478 2916 487 2933 
Q 497 2950 525 2964 
Q 553 2978 597 2983 
Q 641 2988 713 2988 
Q 781 2988 826 2983 
Q 872 2978 897 2964 
Q 922 2950 933 2933 
Q 944 2916 944 2891 
L 944 2481 
Q 1059 2650 1161 2756 
Q 1263 2863 1353 2923 
Q 1444 2984 1533 3007 
Q 1622 3031 1713 3031 
Q 1753 3031 1804 3026 
Q 1856 3022 1912 3009 
Q 1969 2997 2014 2981 
Q 2059 2966 2078 2950 
Q 2097 2934 2103 2920 
Q 2109 2906 2114 2884 
Q 2119 2863 2120 2820 
Q 2122 2778 2122 2706 
z
" transform="scale(0.015625)"/>
      </defs>
      <use xlink:href="#Calibri-48"/>
      <use xlink:href="#Calibri-2082" transform="translate(62.304688 0)"/>
      <use xlink:href="#Calibri-20" transform="translate(95.898438 0)"/>
      <use xlink:href="#Calibri-50" transform="translate(118.505859 0)"/>
      <use xlink:href="#Calibri-6f" transform="translate(170.166016 0)"/>
      <use xlink:href="#Calibri-77" transform="translate(222.900391 0)"/>
      <use xlink:href="#Calibri-65" transform="translate(294.384766 0)"/>
      <use xlink:href="#Calibri-72" transform="translate(344.140625 0)"/>
     </g>
    </g>
    <g id="line2d_22">
     <path d="M 58.8825 43.989375 
L 72.8825 43.989375 
L 86.8825 43.989375 
" style="fill: none; stroke-dasharray: 9.25,4; stroke-dashoffset: 0; stroke: #ff7f0e; stroke-width: 2.5"/>
     <g>
      <use xlink:href="#md5135c0f06" x="72.8825" y="43.989375" style="fill: #ff7f0e; stroke: #ff7f0e; stroke-linejoin: miter"/>
     </g>
    </g>
    <g id="text_26">
     <!-- H Energy -->
     <g transform="translate(98.0825 48.889375) scale(0.14 -0.14)">
      <defs>
       <path id="Calibri-45" d="M 2788 222 
Q 2788 166 2781 123 
Q 2775 81 2759 53 
Q 2744 25 2723 12 
Q 2703 0 2678 0 
L 738 0 
Q 666 0 602 48 
Q 538 97 538 219 
L 538 3825 
Q 538 3947 602 3995 
Q 666 4044 738 4044 
L 2656 4044 
Q 2681 4044 2701 4031 
Q 2722 4019 2734 3991 
Q 2747 3963 2755 3920 
Q 2763 3878 2763 3816 
Q 2763 3759 2755 3717 
Q 2747 3675 2734 3648 
Q 2722 3622 2701 3609 
Q 2681 3597 2656 3597 
L 1075 3597 
L 1075 2328 
L 2431 2328 
Q 2456 2328 2476 2314 
Q 2497 2300 2511 2275 
Q 2525 2250 2531 2206 
Q 2538 2163 2538 2103 
Q 2538 2047 2531 2006 
Q 2525 1966 2511 1941 
Q 2497 1916 2476 1905 
Q 2456 1894 2431 1894 
L 1075 1894 
L 1075 447 
L 2678 447 
Q 2703 447 2723 434 
Q 2744 422 2759 395 
Q 2775 369 2781 326 
Q 2788 284 2788 222 
z
" transform="scale(0.015625)"/>
       <path id="Calibri-6e" d="M 2900 78 
Q 2900 53 2887 36 
Q 2875 19 2847 6 
Q 2819 -6 2769 -12 
Q 2719 -19 2644 -19 
Q 2566 -19 2516 -12 
Q 2466 -6 2437 6 
Q 2409 19 2396 36 
Q 2384 53 2384 78 
L 2384 1725 
Q 2384 1966 2346 2112 
Q 2309 2259 2237 2365 
Q 2166 2472 2052 2528 
Q 1938 2584 1788 2584 
Q 1594 2584 1400 2446 
Q 1206 2309 994 2044 
L 994 78 
Q 994 53 981 36 
Q 969 19 941 6 
Q 913 -6 863 -12 
Q 813 -19 734 -19 
Q 659 -19 609 -12 
Q 559 -6 529 6 
Q 500 19 489 36 
Q 478 53 478 78 
L 478 2891 
Q 478 2916 487 2933 
Q 497 2950 525 2964 
Q 553 2978 597 2983 
Q 641 2988 713 2988 
Q 781 2988 826 2983 
Q 872 2978 897 2964 
Q 922 2950 933 2933 
Q 944 2916 944 2891 
L 944 2519 
Q 1181 2784 1417 2907 
Q 1653 3031 1894 3031 
Q 2175 3031 2367 2936 
Q 2559 2841 2678 2681 
Q 2797 2522 2848 2308 
Q 2900 2094 2900 1794 
L 2900 78 
z
" transform="scale(0.015625)"/>
       <path id="Calibri-67" d="M 2828 2763 
Q 2828 2653 2798 2604 
Q 2769 2556 2722 2556 
L 2319 2556 
Q 2428 2444 2472 2308 
Q 2516 2172 2516 2025 
Q 2516 1781 2437 1593 
Q 2359 1406 2214 1276 
Q 2069 1147 1869 1078 
Q 1669 1009 1425 1009 
Q 1253 1009 1098 1054 
Q 944 1100 859 1169 
Q 803 1113 767 1041 
Q 731 969 731 875 
Q 731 766 832 694 
Q 934 622 1103 616 
L 1838 584 
Q 2047 578 2222 526 
Q 2397 475 2525 379 
Q 2653 284 2725 145 
Q 2797 6 2797 -178 
Q 2797 -372 2715 -547 
Q 2634 -722 2467 -855 
Q 2300 -988 2040 -1064 
Q 1781 -1141 1428 -1141 
Q 1088 -1141 848 -1083 
Q 609 -1025 456 -925 
Q 303 -825 234 -686 
Q 166 -547 166 -384 
Q 166 -281 191 -184 
Q 216 -88 267 0 
Q 319 88 395 167 
Q 472 247 572 325 
Q 419 403 345 522 
Q 272 641 272 778 
Q 272 969 350 1119 
Q 428 1269 544 1388 
Q 447 1503 390 1648 
Q 334 1794 334 2000 
Q 334 2241 415 2431 
Q 497 2622 640 2753 
Q 784 2884 986 2954 
Q 1188 3025 1425 3025 
Q 1553 3025 1664 3011 
Q 1775 2997 1872 2972 
L 2722 2972 
Q 2775 2972 2801 2920 
Q 2828 2869 2828 2763 
z
M 2022 2022 
Q 2022 2309 1864 2470 
Q 1706 2631 1416 2631 
Q 1266 2631 1155 2581 
Q 1044 2531 970 2443 
Q 897 2356 861 2242 
Q 825 2128 825 2003 
Q 825 1725 983 1565 
Q 1141 1406 1425 1406 
Q 1578 1406 1690 1454 
Q 1803 1503 1876 1589 
Q 1950 1675 1986 1787 
Q 2022 1900 2022 2022 
z
M 2281 -206 
Q 2281 -25 2132 73 
Q 1984 172 1731 178 
L 1003 203 
Q 903 125 839 54 
Q 775 -16 737 -80 
Q 700 -144 686 -206 
Q 672 -269 672 -334 
Q 672 -538 878 -642 
Q 1084 -747 1453 -747 
Q 1688 -747 1845 -701 
Q 2003 -656 2100 -581 
Q 2197 -506 2239 -409 
Q 2281 -313 2281 -206 
z
" transform="scale(0.015625)"/>
       <path id="Calibri-79" d="M 1759 0 
L 1384 -1034 
Q 1366 -1084 1289 -1111 
Q 1213 -1138 1056 -1138 
Q 975 -1138 925 -1130 
Q 875 -1122 848 -1103 
Q 822 -1084 819 -1053 
Q 816 -1022 834 -978 
L 1222 0 
Q 1194 13 1169 41 
Q 1144 69 1134 100 
L 131 2788 
Q 106 2853 106 2890 
Q 106 2928 131 2950 
Q 156 2972 212 2980 
Q 269 2988 363 2988 
Q 456 2988 509 2983 
Q 563 2978 594 2965 
Q 625 2953 639 2929 
Q 653 2906 669 2866 
L 1472 609 
L 1481 609 
L 2256 2878 
Q 2275 2938 2301 2955 
Q 2328 2972 2381 2980 
Q 2434 2988 2534 2988 
Q 2622 2988 2678 2980 
Q 2734 2972 2761 2950 
Q 2788 2928 2788 2890 
Q 2788 2853 2769 2797 
L 1759 0 
z
" transform="scale(0.015625)"/>
      </defs>
      <use xlink:href="#Calibri-48"/>
      <use xlink:href="#Calibri-2082" transform="translate(62.304688 0)"/>
      <use xlink:href="#Calibri-20" transform="translate(95.898438 0)"/>
      <use xlink:href="#Calibri-45" transform="translate(118.505859 0)"/>
      <use xlink:href="#Calibri-6e" transform="translate(167.333984 0)"/>
      <use xlink:href="#Calibri-65" transform="translate(219.873047 0)"/>
      <use xlink:href="#Calibri-72" transform="translate(269.628906 0)"/>
      <use xlink:href="#Calibri-67" transform="translate(304.492188 0)"/>
      <use xlink:href="#Calibri-79" transform="translate(351.5625 0)"/>
     </g>
    </g>
    <g id="line2d_23">
     <path d="M 181.640625 24.7 
L 195.640625 24.7 
L 209.640625 24.7 
" style="fill: none; stroke: #003f5c; stroke-width: 2.5; stroke-linecap: square"/>
     <g>
      <use xlink:href="#m3205f0bbe3" x="195.640625" y="24.7" style="fill: #003f5c; stroke: #003f5c"/>
     </g>
    </g>
    <g id="text_27">
     <!-- BESS Power -->
     <g transform="translate(220.840625 29.6) scale(0.14 -0.14)">
      <defs>
       <path id="Calibri-42" d="M 3203 1159 
Q 3203 969 3154 808 
Q 3106 647 3018 519 
Q 2931 391 2807 294 
Q 2684 197 2529 131 
Q 2375 66 2198 33 
Q 2022 0 1794 0 
L 738 0 
Q 666 0 602 48 
Q 538 97 538 219 
L 538 3825 
Q 538 3947 602 3995 
Q 666 4044 738 4044 
L 1656 4044 
Q 2019 4044 2250 3975 
Q 2481 3906 2636 3775 
Q 2791 3644 2869 3453 
Q 2947 3263 2947 3022 
Q 2947 2878 2912 2747 
Q 2878 2616 2811 2505 
Q 2744 2394 2642 2306 
Q 2541 2219 2409 2163 
Q 2575 2131 2719 2048 
Q 2863 1966 2970 1837 
Q 3078 1709 3140 1537 
Q 3203 1366 3203 1159 
z
M 2394 2969 
Q 2394 3116 2353 3234 
Q 2313 3353 2225 3436 
Q 2138 3519 1997 3562 
Q 1856 3606 1625 3606 
L 1069 3606 
L 1069 2297 
L 1681 2297 
Q 1891 2297 2019 2351 
Q 2147 2406 2231 2498 
Q 2316 2591 2355 2714 
Q 2394 2838 2394 2969 
z
M 2638 1128 
Q 2638 1309 2580 1446 
Q 2522 1584 2411 1678 
Q 2300 1772 2133 1820 
Q 1966 1869 1713 1869 
L 1069 1869 
L 1069 444 
L 1850 444 
Q 2034 444 2171 487 
Q 2309 531 2414 617 
Q 2519 703 2578 831 
Q 2638 959 2638 1128 
z
" transform="scale(0.015625)"/>
       <path id="Calibri-53" d="M 2709 1134 
Q 2709 850 2604 628 
Q 2500 406 2314 251 
Q 2128 97 1876 19 
Q 1625 -59 1334 -59 
Q 1131 -59 957 -25 
Q 784 9 648 59 
Q 513 109 420 162 
Q 328 216 292 253 
Q 256 291 239 348 
Q 222 406 222 503 
Q 222 572 228 617 
Q 234 663 246 691 
Q 259 719 278 730 
Q 297 741 322 741 
Q 366 741 445 687 
Q 525 634 650 571 
Q 775 509 951 454 
Q 1128 400 1359 400 
Q 1534 400 1679 447 
Q 1825 494 1929 580 
Q 2034 666 2090 791 
Q 2147 916 2147 1075 
Q 2147 1247 2069 1369 
Q 1991 1491 1862 1583 
Q 1734 1675 1570 1751 
Q 1406 1828 1234 1908 
Q 1063 1988 900 2084 
Q 738 2181 609 2312 
Q 481 2444 401 2620 
Q 322 2797 322 3044 
Q 322 3297 414 3495 
Q 506 3694 670 3828 
Q 834 3963 1061 4033 
Q 1288 4103 1550 4103 
Q 1684 4103 1820 4079 
Q 1956 4056 2076 4017 
Q 2197 3978 2290 3929 
Q 2384 3881 2414 3851 
Q 2444 3822 2453 3805 
Q 2463 3788 2469 3761 
Q 2475 3734 2478 3696 
Q 2481 3659 2481 3600 
Q 2481 3544 2476 3500 
Q 2472 3456 2462 3426 
Q 2453 3397 2436 3383 
Q 2419 3369 2397 3369 
Q 2363 3369 2289 3412 
Q 2216 3456 2109 3511 
Q 2003 3566 1858 3611 
Q 1713 3656 1531 3656 
Q 1363 3656 1238 3611 
Q 1113 3566 1031 3491 
Q 950 3416 909 3312 
Q 869 3209 869 3094 
Q 869 2925 947 2803 
Q 1025 2681 1154 2587 
Q 1284 2494 1450 2416 
Q 1616 2338 1787 2258 
Q 1959 2178 2125 2083 
Q 2291 1988 2420 1858 
Q 2550 1728 2629 1551 
Q 2709 1375 2709 1134 
z
" transform="scale(0.015625)"/>
      </defs>
      <use xlink:href="#Calibri-42"/>
      <use xlink:href="#Calibri-45" transform="translate(54.394531 0)"/>
      <use xlink:href="#Calibri-53" transform="translate(102.222656 0)"/>
      <use xlink:href="#Calibri-53" transform="translate(148.169922 0)"/>
      <use xlink:href="#Calibri-20" transform="translate(194.117188 0)"/>
      <use xlink:href="#Calibri-50" transform="translate(216.724609 0)"/>
      <use xlink:href="#Calibri-6f" transform="translate(268.384766 0)"/>
      <use xlink:href="#Calibri-77" transform="translate(321.119141 0)"/>
      <use xlink:href="#Calibri-65" transform="translate(392.603516 0)"/>
      <use xlink:href="#Calibri-72" transform="translate(442.359375 0)"/>
     </g>
    </g>
    <g id="line2d_24">
     <path d="M 181.640625 43.989375 
L 195.640625 43.989375 
L 209.640625 43.989375 
" style="fill: none; stroke-dasharray: 9.25,4; stroke-dashoffset: 0; stroke: #17becf; stroke-width: 2.5"/>
     <g>
      <use xlink:href="#mcf358eae2b" x="195.640625" y="43.989375" style="fill: #17becf; stroke: #17becf; stroke-linejoin: miter"/>
     </g>
    </g>
    <g id="text_28">
     <!-- BESS Energy -->
     <g transform="translate(220.840625 48.889375) scale(0.14 -0.14)">
      <use xlink:href="#Calibri-42"/>
      <use xlink:href="#Calibri-45" transform="translate(54.394531 0)"/>
      <use xlink:href="#Calibri-53" transform="translate(102.222656 0)"/>
      <use xlink:href="#Calibri-53" transform="translate(148.169922 0)"/>
      <use xlink:href="#Calibri-20" transform="translate(194.117188 0)"/>
      <use xlink:href="#Calibri-45" transform="translate(216.724609 0)"/>
      <use xlink:href="#Calibri-6e" transform="translate(265.552734 0)"/>
      <use xlink:href="#Calibri-65" transform="translate(318.091797 0)"/>
      <use xlink:href="#Calibri-72" transform="translate(367.847656 0)"/>
      <use xlink:href="#Calibri-67" transform="translate(402.710938 0)"/>
      <use xlink:href="#Calibri-79" transform="translate(449.78125 0)"/>
     </g>
    </g>
   </g>
  </g>
 </g>
 <defs>
  <clipPath id="p4d0e59dd0b">
   <rect x="46.2825" y="7.2" width="507.58" height="193.48"/>
  </clipPath>
 </defs>
</svg>
